M48
; DRILL file {KiCad (5.1.12)-1} date 09/04/22 13:19:19
; FORMAT={-:-/ absolute / inch / decimal}
; #@! TF.CreationDate,2022-09-04T13:19:19+02:00
; #@! TF.GenerationSoftware,Kicad,Pcbnew,(5.1.12)-1
; #@! TF.FileFunction,Plated,1,2,PTH
FMAT,2
INCH
T1C0.0157
T2C0.0236
T3C0.0315
T4C0.0354
T5C0.0394
T6C0.0433
T7C0.0512
T8C0.0551
T9C0.0591
T10C0.0630
%
G90
G05
T1
X4.4664Y-2.7179
X4.7264Y-4.3029
X5.1664Y-4.4429
X5.3014Y-4.6129
X5.39Y-4.725
X5.3914Y-3.8679
X5.435Y-4.995
X5.5585Y-4.54
X5.9425Y-4.6975
X5.98Y-4.5
X6.0548Y-4.8315
X6.12Y-2.8493
X6.39Y-4.1
X6.45Y-4.0215
X6.47Y-4.675
X6.5764Y-4.7529
X6.85Y-4.535
X7.1564Y-4.2279
X7.21Y-3.505
X7.275Y-3.575
X7.3464Y-3.1529
X7.4214Y-3.2629
X7.585Y-3.915
X7.81Y-4.63
X7.8314Y-4.7579
X8.0364Y-4.4379
X8.0814Y-3.4479
T2
X6.28Y-4.105
T3
X4.2264Y-2.1379
X4.3264Y-2.1379
X4.4264Y-2.1379
X4.7764Y-4.3829
X4.7764Y-4.5079
X4.7846Y-4.7629
X4.9814Y-4.7629
X5.0764Y-4.3829
X5.0764Y-4.5079
X5.0946Y-4.7629
X5.2314Y-3.9529
X5.2914Y-4.7629
X5.47Y-4.64
X5.47Y-4.7638
X5.5314Y-3.9529
X5.57Y-4.7638
X5.6669Y-4.64
X5.6731Y-4.78
X5.7Y-3.475
X5.7Y-3.6719
X5.7Y-3.78
X5.7Y-4.08
X5.7Y-4.165
X5.7Y-4.465
X5.82Y-3.95
X5.82Y-4.05
X5.82Y-4.15
X5.82Y-4.25
X5.82Y-4.35
X5.82Y-4.45
X5.82Y-4.55
X5.82Y-4.65
X5.83Y-3.475
X5.83Y-3.6719
X5.87Y-4.78
X6.12Y-3.95
X6.12Y-4.05
X6.12Y-4.15
X6.12Y-4.25
X6.12Y-4.35
X6.12Y-4.45
X6.12Y-4.55
X6.12Y-4.65
X6.235Y-4.8329
X6.235Y-4.9329
X6.2364Y-5.0679
X6.24Y-4.4231
X6.24Y-4.62
X6.3364Y-5.0679
X6.36Y-4.6629
X6.36Y-4.9629
X6.465Y-4.75
X6.65Y-4.5079
X6.65Y-4.63
X6.7472Y-4.2229
X6.765Y-4.75
X6.8504Y-4.75
X6.8614Y-5.0779
X6.95Y-4.5079
X6.95Y-4.63
X7.0425Y-4.5079
X7.0425Y-4.63
X7.0472Y-4.2229
X7.1504Y-4.75
X7.1614Y-5.0779
X7.2514Y-5.0779
X7.2614Y-4.8179
X7.285Y-4.2229
X7.3425Y-4.5079
X7.3425Y-4.63
X7.44Y-4.63
X7.4414Y-4.5079
X7.5514Y-5.0779
X7.5614Y-4.8179
X7.585Y-4.2229
X7.74Y-4.63
X7.7414Y-4.5079
X7.8914Y-4.4879
X7.8914Y-4.5879
X7.8914Y-4.6879
X8.1975Y-3.5125
X8.1975Y-3.8125
X8.2Y-4.84
X8.2Y-4.94
X8.2Y-5.04
X8.2087Y-4.5472
X8.2087Y-4.7441
X8.54Y-2.7494
X8.54Y-3.0494
X8.55Y-2.2925
X8.55Y-2.4894
X8.67Y-2.7494
X8.67Y-3.0494
X8.68Y-2.2838
X8.68Y-2.5838
X8.8Y-2.2838
X8.8Y-2.5838
X8.8Y-2.7494
X8.8Y-3.0494
T4
X4.7764Y-4.6379
X5.0764Y-4.6379
X5.2164Y-4.0829
X5.5164Y-4.0829
T5
X3.7814Y-2.2679
X3.8414Y-2.2679
X4.0806Y-2.2679
X4.1914Y-4.6129
X4.1914Y-4.7129
X4.2914Y-4.6129
X4.2914Y-4.7129
X4.3914Y-4.6129
X4.3914Y-4.7129
X4.4914Y-4.6129
X4.4914Y-4.7129
X5.8714Y-2.1379
X5.8714Y-2.2379
X5.8714Y-2.3379
X5.8714Y-2.4379
X5.8714Y-2.5379
X5.8714Y-2.6379
X6.56Y-4.3479
X6.56Y-4.9479
X6.66Y-4.3479
X6.66Y-4.9479
X6.76Y-4.3479
X6.76Y-4.9479
X6.86Y-4.3479
X6.86Y-4.9479
X6.96Y-4.3479
X6.96Y-4.9479
X7.06Y-4.3479
X7.06Y-4.9479
X7.16Y-4.3479
X7.16Y-4.9479
X7.26Y-4.3479
X7.26Y-4.9479
X7.36Y-4.3479
X7.36Y-4.9479
X7.46Y-4.3479
X7.46Y-4.9479
X7.56Y-4.3479
X7.56Y-4.9479
X7.66Y-4.3479
X7.66Y-4.9479
X7.76Y-4.3479
X7.76Y-4.9479
X7.86Y-4.3479
X7.86Y-4.9479
X7.96Y-4.3479
X7.96Y-4.9479
X8.4939Y-2.1263
X8.5939Y-2.1263
X8.6939Y-2.1263
X8.7939Y-2.1263
T6
X4.5364Y-2.4729
X4.9364Y-2.4729
X5.8Y-3.0179
X5.8Y-3.1179
X5.8Y-3.2179
X5.98Y-3.41
X5.98Y-3.81
X8.21Y-4.26
X8.21Y-4.41
T7
X4.8156Y-2.2079
X5.7014Y-2.2079
T8
X3.8157Y-5.0
X4.0157Y-5.0
X4.2843Y-2.299
X4.2843Y-2.449
X4.3472Y-5.0
X4.5472Y-5.0
X4.8756Y-5.0
X5.0756Y-5.0
X5.2756Y-5.0
X5.6039Y-5.0
X5.8039Y-5.0
X6.0039Y-5.0
X9.0314Y-3.9961
X9.0314Y-4.1961
X9.0314Y-4.3961
X9.0314Y-4.5961
X9.0314Y-4.7961
X9.0314Y-4.9961
T9
X8.4514Y-4.0257
X8.4514Y-4.2226
X8.4514Y-4.4194
X8.4514Y-5.01
X8.7467Y-4.0257
X8.7467Y-4.2226
X8.7467Y-4.4194
X8.7467Y-5.01
T10
X3.7704Y-4.6659
X3.9704Y-4.6659
T0
M30
