%TF.GenerationSoftware,KiCad,Pcbnew,(5.1.12)-1*%
%TF.CreationDate,2022-08-04T11:45:50+02:00*%
%TF.ProjectId,portail_moteur_continu,706f7274-6169-46c5-9f6d-6f746575725f,1.1*%
%TF.SameCoordinates,Original*%
%TF.FileFunction,Legend,Top*%
%TF.FilePolarity,Positive*%
%FSLAX46Y46*%
G04 Gerber Fmt 4.6, Leading zero omitted, Abs format (unit mm)*
G04 Created by KiCad (PCBNEW (5.1.12)-1) date 2022-08-04 11:45:50*
%MOMM*%
%LPD*%
G01*
G04 APERTURE LIST*
%ADD10C,0.150000*%
%ADD11C,0.300000*%
%ADD12C,0.120000*%
G04 APERTURE END LIST*
D10*
X108280904Y-91838380D02*
X108280904Y-90838380D01*
X108661857Y-90838380D01*
X108757095Y-90886000D01*
X108804714Y-90933619D01*
X108852333Y-91028857D01*
X108852333Y-91171714D01*
X108804714Y-91266952D01*
X108757095Y-91314571D01*
X108661857Y-91362190D01*
X108280904Y-91362190D01*
X109423761Y-91838380D02*
X109328523Y-91790761D01*
X109280904Y-91695523D01*
X109280904Y-90838380D01*
X110233285Y-91838380D02*
X110233285Y-91314571D01*
X110185666Y-91219333D01*
X110090428Y-91171714D01*
X109899952Y-91171714D01*
X109804714Y-91219333D01*
X110233285Y-91790761D02*
X110138047Y-91838380D01*
X109899952Y-91838380D01*
X109804714Y-91790761D01*
X109757095Y-91695523D01*
X109757095Y-91600285D01*
X109804714Y-91505047D01*
X109899952Y-91457428D01*
X110138047Y-91457428D01*
X110233285Y-91409809D01*
X111138047Y-91171714D02*
X111138047Y-92171714D01*
X111138047Y-91790761D02*
X111042809Y-91838380D01*
X110852333Y-91838380D01*
X110757095Y-91790761D01*
X110709476Y-91743142D01*
X110661857Y-91647904D01*
X110661857Y-91362190D01*
X110709476Y-91266952D01*
X110757095Y-91219333D01*
X110852333Y-91171714D01*
X111042809Y-91171714D01*
X111138047Y-91219333D01*
X112042809Y-91171714D02*
X112042809Y-91838380D01*
X111614238Y-91171714D02*
X111614238Y-91695523D01*
X111661857Y-91790761D01*
X111757095Y-91838380D01*
X111899952Y-91838380D01*
X111995190Y-91790761D01*
X112042809Y-91743142D01*
X112899952Y-91790761D02*
X112804714Y-91838380D01*
X112614238Y-91838380D01*
X112519000Y-91790761D01*
X112471380Y-91695523D01*
X112471380Y-91314571D01*
X112519000Y-91219333D01*
X112614238Y-91171714D01*
X112804714Y-91171714D01*
X112899952Y-91219333D01*
X112947571Y-91314571D01*
X112947571Y-91409809D01*
X112471380Y-91505047D01*
X114566619Y-91838380D02*
X114566619Y-90838380D01*
X114566619Y-91790761D02*
X114471380Y-91838380D01*
X114280904Y-91838380D01*
X114185666Y-91790761D01*
X114138047Y-91743142D01*
X114090428Y-91647904D01*
X114090428Y-91362190D01*
X114138047Y-91266952D01*
X114185666Y-91219333D01*
X114280904Y-91171714D01*
X114471380Y-91171714D01*
X114566619Y-91219333D01*
X115423761Y-91790761D02*
X115328523Y-91838380D01*
X115138047Y-91838380D01*
X115042809Y-91790761D01*
X114995190Y-91695523D01*
X114995190Y-91314571D01*
X115042809Y-91219333D01*
X115138047Y-91171714D01*
X115328523Y-91171714D01*
X115423761Y-91219333D01*
X115471380Y-91314571D01*
X115471380Y-91409809D01*
X114995190Y-91505047D01*
X116661857Y-91838380D02*
X116661857Y-91171714D01*
X116661857Y-91362190D02*
X116709476Y-91266952D01*
X116757095Y-91219333D01*
X116852333Y-91171714D01*
X116947571Y-91171714D01*
X117661857Y-91790761D02*
X117566619Y-91838380D01*
X117376142Y-91838380D01*
X117280904Y-91790761D01*
X117233285Y-91695523D01*
X117233285Y-91314571D01*
X117280904Y-91219333D01*
X117376142Y-91171714D01*
X117566619Y-91171714D01*
X117661857Y-91219333D01*
X117709476Y-91314571D01*
X117709476Y-91409809D01*
X117233285Y-91505047D01*
X117995190Y-91171714D02*
X118376142Y-91171714D01*
X118138047Y-91838380D02*
X118138047Y-90981238D01*
X118185666Y-90886000D01*
X118280904Y-90838380D01*
X118376142Y-90838380D01*
X118709476Y-91838380D02*
X118709476Y-91171714D01*
X118709476Y-91362190D02*
X118757095Y-91266952D01*
X118804714Y-91219333D01*
X118899952Y-91171714D01*
X118995190Y-91171714D01*
X119471380Y-91838380D02*
X119376142Y-91790761D01*
X119328523Y-91743142D01*
X119280904Y-91647904D01*
X119280904Y-91362190D01*
X119328523Y-91266952D01*
X119376142Y-91219333D01*
X119471380Y-91171714D01*
X119614238Y-91171714D01*
X119709476Y-91219333D01*
X119757095Y-91266952D01*
X119804714Y-91362190D01*
X119804714Y-91647904D01*
X119757095Y-91743142D01*
X119709476Y-91790761D01*
X119614238Y-91838380D01*
X119471380Y-91838380D01*
X120233285Y-91838380D02*
X120233285Y-91171714D01*
X120233285Y-90838380D02*
X120185666Y-90886000D01*
X120233285Y-90933619D01*
X120280904Y-90886000D01*
X120233285Y-90838380D01*
X120233285Y-90933619D01*
X121138047Y-91838380D02*
X121138047Y-90838380D01*
X121138047Y-91790761D02*
X121042809Y-91838380D01*
X120852333Y-91838380D01*
X120757095Y-91790761D01*
X120709476Y-91743142D01*
X120661857Y-91647904D01*
X120661857Y-91362190D01*
X120709476Y-91266952D01*
X120757095Y-91219333D01*
X120852333Y-91171714D01*
X121042809Y-91171714D01*
X121138047Y-91219333D01*
X121614238Y-91838380D02*
X121614238Y-91171714D01*
X121614238Y-90838380D02*
X121566619Y-90886000D01*
X121614238Y-90933619D01*
X121661857Y-90886000D01*
X121614238Y-90838380D01*
X121614238Y-90933619D01*
X122042809Y-91790761D02*
X122138047Y-91838380D01*
X122328523Y-91838380D01*
X122423761Y-91790761D01*
X122471380Y-91695523D01*
X122471380Y-91647904D01*
X122423761Y-91552666D01*
X122328523Y-91505047D01*
X122185666Y-91505047D01*
X122090428Y-91457428D01*
X122042809Y-91362190D01*
X122042809Y-91314571D01*
X122090428Y-91219333D01*
X122185666Y-91171714D01*
X122328523Y-91171714D01*
X122423761Y-91219333D01*
X122852333Y-91790761D02*
X122947571Y-91838380D01*
X123138047Y-91838380D01*
X123233285Y-91790761D01*
X123280904Y-91695523D01*
X123280904Y-91647904D01*
X123233285Y-91552666D01*
X123138047Y-91505047D01*
X122995190Y-91505047D01*
X122899952Y-91457428D01*
X122852333Y-91362190D01*
X122852333Y-91314571D01*
X122899952Y-91219333D01*
X122995190Y-91171714D01*
X123138047Y-91171714D01*
X123233285Y-91219333D01*
X124090428Y-91790761D02*
X123995190Y-91838380D01*
X123804714Y-91838380D01*
X123709476Y-91790761D01*
X123661857Y-91695523D01*
X123661857Y-91314571D01*
X123709476Y-91219333D01*
X123804714Y-91171714D01*
X123995190Y-91171714D01*
X124090428Y-91219333D01*
X124138047Y-91314571D01*
X124138047Y-91409809D01*
X123661857Y-91505047D01*
X124566619Y-91838380D02*
X124566619Y-91171714D01*
X124566619Y-91266952D02*
X124614238Y-91219333D01*
X124709476Y-91171714D01*
X124852333Y-91171714D01*
X124947571Y-91219333D01*
X124995190Y-91314571D01*
X124995190Y-91838380D01*
X124995190Y-91314571D02*
X125042809Y-91219333D01*
X125138047Y-91171714D01*
X125280904Y-91171714D01*
X125376142Y-91219333D01*
X125423761Y-91314571D01*
X125423761Y-91838380D01*
X126280904Y-91790761D02*
X126185666Y-91838380D01*
X125995190Y-91838380D01*
X125899952Y-91790761D01*
X125852333Y-91695523D01*
X125852333Y-91314571D01*
X125899952Y-91219333D01*
X125995190Y-91171714D01*
X126185666Y-91171714D01*
X126280904Y-91219333D01*
X126328523Y-91314571D01*
X126328523Y-91409809D01*
X125852333Y-91505047D01*
X126757095Y-91171714D02*
X126757095Y-91838380D01*
X126757095Y-91266952D02*
X126804714Y-91219333D01*
X126899952Y-91171714D01*
X127042809Y-91171714D01*
X127138047Y-91219333D01*
X127185666Y-91314571D01*
X127185666Y-91838380D01*
X127519000Y-91171714D02*
X127899952Y-91171714D01*
X127661857Y-90838380D02*
X127661857Y-91695523D01*
X127709476Y-91790761D01*
X127804714Y-91838380D01*
X127899952Y-91838380D01*
X128076857Y-61787571D02*
X127743523Y-61787571D01*
X127743523Y-62311380D02*
X127743523Y-61311380D01*
X128219714Y-61311380D01*
X129029238Y-61644714D02*
X129029238Y-62311380D01*
X128600666Y-61644714D02*
X128600666Y-62168523D01*
X128648285Y-62263761D01*
X128743523Y-62311380D01*
X128886380Y-62311380D01*
X128981619Y-62263761D01*
X129029238Y-62216142D01*
X129457809Y-62263761D02*
X129553047Y-62311380D01*
X129743523Y-62311380D01*
X129838761Y-62263761D01*
X129886380Y-62168523D01*
X129886380Y-62120904D01*
X129838761Y-62025666D01*
X129743523Y-61978047D01*
X129600666Y-61978047D01*
X129505428Y-61930428D01*
X129457809Y-61835190D01*
X129457809Y-61787571D01*
X129505428Y-61692333D01*
X129600666Y-61644714D01*
X129743523Y-61644714D01*
X129838761Y-61692333D01*
X130314952Y-62311380D02*
X130314952Y-61644714D01*
X130314952Y-61311380D02*
X130267333Y-61359000D01*
X130314952Y-61406619D01*
X130362571Y-61359000D01*
X130314952Y-61311380D01*
X130314952Y-61406619D01*
X130791142Y-62311380D02*
X130791142Y-61311380D01*
X130791142Y-61692333D02*
X130886380Y-61644714D01*
X131076857Y-61644714D01*
X131172095Y-61692333D01*
X131219714Y-61739952D01*
X131267333Y-61835190D01*
X131267333Y-62120904D01*
X131219714Y-62216142D01*
X131172095Y-62263761D01*
X131076857Y-62311380D01*
X130886380Y-62311380D01*
X130791142Y-62263761D01*
X131838761Y-62311380D02*
X131743523Y-62263761D01*
X131695904Y-62168523D01*
X131695904Y-61311380D01*
X132600666Y-62263761D02*
X132505428Y-62311380D01*
X132314952Y-62311380D01*
X132219714Y-62263761D01*
X132172095Y-62168523D01*
X132172095Y-61787571D01*
X132219714Y-61692333D01*
X132314952Y-61644714D01*
X132505428Y-61644714D01*
X132600666Y-61692333D01*
X132648285Y-61787571D01*
X132648285Y-61882809D01*
X132172095Y-61978047D01*
X133695904Y-61644714D02*
X134076857Y-61644714D01*
X133838761Y-62311380D02*
X133838761Y-61454238D01*
X133886380Y-61359000D01*
X133981619Y-61311380D01*
X134076857Y-61311380D01*
X134410190Y-62311380D02*
X134410190Y-61644714D01*
X134410190Y-61311380D02*
X134362571Y-61359000D01*
X134410190Y-61406619D01*
X134457809Y-61359000D01*
X134410190Y-61311380D01*
X134410190Y-61406619D01*
X134886380Y-61644714D02*
X134886380Y-62311380D01*
X134886380Y-61739952D02*
X134934000Y-61692333D01*
X135029238Y-61644714D01*
X135172095Y-61644714D01*
X135267333Y-61692333D01*
X135314952Y-61787571D01*
X135314952Y-62311380D01*
X135743523Y-62263761D02*
X135838761Y-62311380D01*
X136029238Y-62311380D01*
X136124476Y-62263761D01*
X136172095Y-62168523D01*
X136172095Y-62120904D01*
X136124476Y-62025666D01*
X136029238Y-61978047D01*
X135886380Y-61978047D01*
X135791142Y-61930428D01*
X135743523Y-61835190D01*
X135743523Y-61787571D01*
X135791142Y-61692333D01*
X135886380Y-61644714D01*
X136029238Y-61644714D01*
X136124476Y-61692333D01*
X137791142Y-62311380D02*
X137791142Y-61311380D01*
X137791142Y-62263761D02*
X137695904Y-62311380D01*
X137505428Y-62311380D01*
X137410190Y-62263761D01*
X137362571Y-62216142D01*
X137314952Y-62120904D01*
X137314952Y-61835190D01*
X137362571Y-61739952D01*
X137410190Y-61692333D01*
X137505428Y-61644714D01*
X137695904Y-61644714D01*
X137791142Y-61692333D01*
X138648285Y-62263761D02*
X138553047Y-62311380D01*
X138362571Y-62311380D01*
X138267333Y-62263761D01*
X138219714Y-62168523D01*
X138219714Y-61787571D01*
X138267333Y-61692333D01*
X138362571Y-61644714D01*
X138553047Y-61644714D01*
X138648285Y-61692333D01*
X138695904Y-61787571D01*
X138695904Y-61882809D01*
X138219714Y-61978047D01*
X140314952Y-62263761D02*
X140219714Y-62311380D01*
X140029238Y-62311380D01*
X139934000Y-62263761D01*
X139886380Y-62216142D01*
X139838761Y-62120904D01*
X139838761Y-61835190D01*
X139886380Y-61739952D01*
X139934000Y-61692333D01*
X140029238Y-61644714D01*
X140219714Y-61644714D01*
X140314952Y-61692333D01*
X140886380Y-62311380D02*
X140791142Y-62263761D01*
X140743523Y-62216142D01*
X140695904Y-62120904D01*
X140695904Y-61835190D01*
X140743523Y-61739952D01*
X140791142Y-61692333D01*
X140886380Y-61644714D01*
X141029238Y-61644714D01*
X141124476Y-61692333D01*
X141172095Y-61739952D01*
X141219714Y-61835190D01*
X141219714Y-62120904D01*
X141172095Y-62216142D01*
X141124476Y-62263761D01*
X141029238Y-62311380D01*
X140886380Y-62311380D01*
X142076857Y-61644714D02*
X142076857Y-62311380D01*
X141648285Y-61644714D02*
X141648285Y-62168523D01*
X141695904Y-62263761D01*
X141791142Y-62311380D01*
X141934000Y-62311380D01*
X142029238Y-62263761D01*
X142076857Y-62216142D01*
X142553047Y-62311380D02*
X142553047Y-61644714D01*
X142553047Y-61835190D02*
X142600666Y-61739952D01*
X142648285Y-61692333D01*
X142743523Y-61644714D01*
X142838761Y-61644714D01*
X143124476Y-62263761D02*
X143219714Y-62311380D01*
X143410190Y-62311380D01*
X143505428Y-62263761D01*
X143553047Y-62168523D01*
X143553047Y-62120904D01*
X143505428Y-62025666D01*
X143410190Y-61978047D01*
X143267333Y-61978047D01*
X143172095Y-61930428D01*
X143124476Y-61835190D01*
X143124476Y-61787571D01*
X143172095Y-61692333D01*
X143267333Y-61644714D01*
X143410190Y-61644714D01*
X143505428Y-61692333D01*
X144362571Y-62263761D02*
X144267333Y-62311380D01*
X144076857Y-62311380D01*
X143981619Y-62263761D01*
X143934000Y-62168523D01*
X143934000Y-61787571D01*
X143981619Y-61692333D01*
X144076857Y-61644714D01*
X144267333Y-61644714D01*
X144362571Y-61692333D01*
X144410190Y-61787571D01*
X144410190Y-61882809D01*
X143934000Y-61978047D01*
X133434000Y-63913761D02*
X133338761Y-63961380D01*
X133148285Y-63961380D01*
X133053047Y-63913761D01*
X133005428Y-63818523D01*
X133005428Y-63437571D01*
X133053047Y-63342333D01*
X133148285Y-63294714D01*
X133338761Y-63294714D01*
X133434000Y-63342333D01*
X133481619Y-63437571D01*
X133481619Y-63532809D01*
X133005428Y-63628047D01*
X133767333Y-63294714D02*
X134148285Y-63294714D01*
X133910190Y-62961380D02*
X133910190Y-63818523D01*
X133957809Y-63913761D01*
X134053047Y-63961380D01*
X134148285Y-63961380D01*
X135672095Y-63913761D02*
X135576857Y-63961380D01*
X135386380Y-63961380D01*
X135291142Y-63913761D01*
X135243523Y-63866142D01*
X135195904Y-63770904D01*
X135195904Y-63485190D01*
X135243523Y-63389952D01*
X135291142Y-63342333D01*
X135386380Y-63294714D01*
X135576857Y-63294714D01*
X135672095Y-63342333D01*
X136481619Y-63913761D02*
X136386380Y-63961380D01*
X136195904Y-63961380D01*
X136100666Y-63913761D01*
X136053047Y-63818523D01*
X136053047Y-63437571D01*
X136100666Y-63342333D01*
X136195904Y-63294714D01*
X136386380Y-63294714D01*
X136481619Y-63342333D01*
X136529238Y-63437571D01*
X136529238Y-63532809D01*
X136053047Y-63628047D01*
X137100666Y-63961380D02*
X137005428Y-63913761D01*
X136957809Y-63818523D01*
X136957809Y-62961380D01*
X137624476Y-63961380D02*
X137529238Y-63913761D01*
X137481619Y-63818523D01*
X137481619Y-62961380D01*
X138434000Y-63294714D02*
X138434000Y-63961380D01*
X138005428Y-63294714D02*
X138005428Y-63818523D01*
X138053047Y-63913761D01*
X138148285Y-63961380D01*
X138291142Y-63961380D01*
X138386380Y-63913761D01*
X138434000Y-63866142D01*
X139053047Y-63961380D02*
X138957809Y-63913761D01*
X138910190Y-63818523D01*
X138910190Y-62961380D01*
X139814952Y-63913761D02*
X139719714Y-63961380D01*
X139529238Y-63961380D01*
X139434000Y-63913761D01*
X139386380Y-63818523D01*
X139386380Y-63437571D01*
X139434000Y-63342333D01*
X139529238Y-63294714D01*
X139719714Y-63294714D01*
X139814952Y-63342333D01*
X139862571Y-63437571D01*
X139862571Y-63532809D01*
X139386380Y-63628047D01*
X119479619Y-53357380D02*
X118908190Y-53357380D01*
X119193904Y-53357380D02*
X119193904Y-52357380D01*
X119098666Y-52500238D01*
X119003428Y-52595476D01*
X118908190Y-52643095D01*
X119860571Y-53071666D02*
X120336761Y-53071666D01*
X119765333Y-53357380D02*
X120098666Y-52357380D01*
X120432000Y-53357380D01*
X121860571Y-52833571D02*
X121527238Y-52833571D01*
X121527238Y-53357380D02*
X121527238Y-52357380D01*
X122003428Y-52357380D01*
X111097571Y-57524761D02*
X111211857Y-57524761D01*
X111326142Y-57620000D01*
X111383285Y-57715238D01*
X111440428Y-57905714D01*
X111497571Y-58286666D01*
X111497571Y-58762857D01*
X111440428Y-59143809D01*
X111383285Y-59334285D01*
X111326142Y-59429523D01*
X111211857Y-59524761D01*
X111097571Y-59524761D01*
X110983285Y-59429523D01*
X110926142Y-59334285D01*
X110869000Y-59143809D01*
X110811857Y-58762857D01*
X110811857Y-58286666D01*
X110869000Y-57905714D01*
X110926142Y-57715238D01*
X110983285Y-57620000D01*
X111097571Y-57524761D01*
X111840428Y-57524761D02*
X112240428Y-59524761D01*
X112640428Y-57524761D01*
X156883214Y-96970000D02*
X157597500Y-96970000D01*
X156740357Y-97398571D02*
X157240357Y-95898571D01*
X157740357Y-97398571D01*
X158240357Y-97398571D02*
X158240357Y-95898571D01*
X159097500Y-97398571D01*
X159097500Y-95898571D01*
X159597500Y-95898571D02*
X160454642Y-95898571D01*
X160026071Y-97398571D02*
X160026071Y-95898571D01*
X157811785Y-87238571D02*
X157311785Y-86524285D01*
X156954642Y-87238571D02*
X156954642Y-85738571D01*
X157526071Y-85738571D01*
X157668928Y-85810000D01*
X157740357Y-85881428D01*
X157811785Y-86024285D01*
X157811785Y-86238571D01*
X157740357Y-86381428D01*
X157668928Y-86452857D01*
X157526071Y-86524285D01*
X156954642Y-86524285D01*
X159168928Y-87238571D02*
X158454642Y-87238571D01*
X158454642Y-85738571D01*
X157811785Y-82015714D02*
X157740357Y-82087142D01*
X157526071Y-82158571D01*
X157383214Y-82158571D01*
X157168928Y-82087142D01*
X157026071Y-81944285D01*
X156954642Y-81801428D01*
X156883214Y-81515714D01*
X156883214Y-81301428D01*
X156954642Y-81015714D01*
X157026071Y-80872857D01*
X157168928Y-80730000D01*
X157383214Y-80658571D01*
X157526071Y-80658571D01*
X157740357Y-80730000D01*
X157811785Y-80801428D01*
X158740357Y-80658571D02*
X159026071Y-80658571D01*
X159168928Y-80730000D01*
X159311785Y-80872857D01*
X159383214Y-81158571D01*
X159383214Y-81658571D01*
X159311785Y-81944285D01*
X159168928Y-82087142D01*
X159026071Y-82158571D01*
X158740357Y-82158571D01*
X158597500Y-82087142D01*
X158454642Y-81944285D01*
X158383214Y-81658571D01*
X158383214Y-81158571D01*
X158454642Y-80872857D01*
X158597500Y-80730000D01*
X158740357Y-80658571D01*
X157811785Y-77078571D02*
X157311785Y-76364285D01*
X156954642Y-77078571D02*
X156954642Y-75578571D01*
X157526071Y-75578571D01*
X157668928Y-75650000D01*
X157740357Y-75721428D01*
X157811785Y-75864285D01*
X157811785Y-76078571D01*
X157740357Y-76221428D01*
X157668928Y-76292857D01*
X157526071Y-76364285D01*
X156954642Y-76364285D01*
X159311785Y-77078571D02*
X158811785Y-76364285D01*
X158454642Y-77078571D02*
X158454642Y-75578571D01*
X159026071Y-75578571D01*
X159168928Y-75650000D01*
X159240357Y-75721428D01*
X159311785Y-75864285D01*
X159311785Y-76078571D01*
X159240357Y-76221428D01*
X159168928Y-76292857D01*
X159026071Y-76364285D01*
X158454642Y-76364285D01*
X157811785Y-71855714D02*
X157740357Y-71927142D01*
X157526071Y-71998571D01*
X157383214Y-71998571D01*
X157168928Y-71927142D01*
X157026071Y-71784285D01*
X156954642Y-71641428D01*
X156883214Y-71355714D01*
X156883214Y-71141428D01*
X156954642Y-70855714D01*
X157026071Y-70712857D01*
X157168928Y-70570000D01*
X157383214Y-70498571D01*
X157526071Y-70498571D01*
X157740357Y-70570000D01*
X157811785Y-70641428D01*
X158740357Y-70498571D02*
X159026071Y-70498571D01*
X159168928Y-70570000D01*
X159311785Y-70712857D01*
X159383214Y-70998571D01*
X159383214Y-71498571D01*
X159311785Y-71784285D01*
X159168928Y-71927142D01*
X159026071Y-71998571D01*
X158740357Y-71998571D01*
X158597500Y-71927142D01*
X158454642Y-71784285D01*
X158383214Y-71498571D01*
X158383214Y-70998571D01*
X158454642Y-70712857D01*
X158597500Y-70570000D01*
X158740357Y-70498571D01*
X156883214Y-65561428D02*
X156954642Y-65490000D01*
X157097500Y-65418571D01*
X157454642Y-65418571D01*
X157597500Y-65490000D01*
X157668928Y-65561428D01*
X157740357Y-65704285D01*
X157740357Y-65847142D01*
X157668928Y-66061428D01*
X156811785Y-66918571D01*
X157740357Y-66918571D01*
X159026071Y-65918571D02*
X159026071Y-66918571D01*
X158668928Y-65347142D02*
X158311785Y-66418571D01*
X159240357Y-66418571D01*
X159597500Y-65418571D02*
X160097500Y-66918571D01*
X160597500Y-65418571D01*
X157240357Y-60338571D02*
X157383214Y-60338571D01*
X157526071Y-60410000D01*
X157597500Y-60481428D01*
X157668928Y-60624285D01*
X157740357Y-60910000D01*
X157740357Y-61267142D01*
X157668928Y-61552857D01*
X157597500Y-61695714D01*
X157526071Y-61767142D01*
X157383214Y-61838571D01*
X157240357Y-61838571D01*
X157097500Y-61767142D01*
X157026071Y-61695714D01*
X156954642Y-61552857D01*
X156883214Y-61267142D01*
X156883214Y-60910000D01*
X156954642Y-60624285D01*
X157026071Y-60481428D01*
X157097500Y-60410000D01*
X157240357Y-60338571D01*
X158168928Y-60338571D02*
X158668928Y-61838571D01*
X159168928Y-60338571D01*
X151840619Y-52669071D02*
X151840619Y-52764309D01*
X151793000Y-52859547D01*
X151745380Y-52907166D01*
X151650142Y-52954785D01*
X151459666Y-53002404D01*
X151221571Y-53002404D01*
X151031095Y-52954785D01*
X150935857Y-52907166D01*
X150888238Y-52859547D01*
X150840619Y-52764309D01*
X150840619Y-52669071D01*
X150888238Y-52573833D01*
X150935857Y-52526214D01*
X151031095Y-52478595D01*
X151221571Y-52430976D01*
X151459666Y-52430976D01*
X151650142Y-52478595D01*
X151745380Y-52526214D01*
X151793000Y-52573833D01*
X151840619Y-52669071D01*
X151840619Y-53288119D02*
X150840619Y-53621452D01*
X151840619Y-53954785D01*
X151745380Y-55002404D02*
X151793000Y-55050023D01*
X151840619Y-55145261D01*
X151840619Y-55383357D01*
X151793000Y-55478595D01*
X151745380Y-55526214D01*
X151650142Y-55573833D01*
X151554904Y-55573833D01*
X151412047Y-55526214D01*
X150840619Y-54954785D01*
X150840619Y-55573833D01*
X151507285Y-56430976D02*
X150840619Y-56430976D01*
X151888238Y-56192880D02*
X151173952Y-55954785D01*
X151173952Y-56573833D01*
X151840619Y-56811928D02*
X150840619Y-57145261D01*
X151840619Y-57478595D01*
X150935857Y-59145261D02*
X150888238Y-59097642D01*
X150840619Y-58954785D01*
X150840619Y-58859547D01*
X150888238Y-58716690D01*
X150983476Y-58621452D01*
X151078714Y-58573833D01*
X151269190Y-58526214D01*
X151412047Y-58526214D01*
X151602523Y-58573833D01*
X151697761Y-58621452D01*
X151793000Y-58716690D01*
X151840619Y-58859547D01*
X151840619Y-58954785D01*
X151793000Y-59097642D01*
X151745380Y-59145261D01*
X151840619Y-59764309D02*
X151840619Y-59954785D01*
X151793000Y-60050023D01*
X151697761Y-60145261D01*
X151507285Y-60192880D01*
X151173952Y-60192880D01*
X150983476Y-60145261D01*
X150888238Y-60050023D01*
X150840619Y-59954785D01*
X150840619Y-59764309D01*
X150888238Y-59669071D01*
X150983476Y-59573833D01*
X151173952Y-59526214D01*
X151507285Y-59526214D01*
X151697761Y-59573833D01*
X151793000Y-59669071D01*
X151840619Y-59764309D01*
X150840619Y-61954785D02*
X151316809Y-61621452D01*
X150840619Y-61383357D02*
X151840619Y-61383357D01*
X151840619Y-61764309D01*
X151793000Y-61859547D01*
X151745380Y-61907166D01*
X151650142Y-61954785D01*
X151507285Y-61954785D01*
X151412047Y-61907166D01*
X151364428Y-61859547D01*
X151316809Y-61764309D01*
X151316809Y-61383357D01*
X150840619Y-62954785D02*
X151316809Y-62621452D01*
X150840619Y-62383357D02*
X151840619Y-62383357D01*
X151840619Y-62764309D01*
X151793000Y-62859547D01*
X151745380Y-62907166D01*
X151650142Y-62954785D01*
X151507285Y-62954785D01*
X151412047Y-62907166D01*
X151364428Y-62859547D01*
X151316809Y-62764309D01*
X151316809Y-62383357D01*
X150935857Y-64716690D02*
X150888238Y-64669071D01*
X150840619Y-64526214D01*
X150840619Y-64430976D01*
X150888238Y-64288119D01*
X150983476Y-64192880D01*
X151078714Y-64145261D01*
X151269190Y-64097642D01*
X151412047Y-64097642D01*
X151602523Y-64145261D01*
X151697761Y-64192880D01*
X151793000Y-64288119D01*
X151840619Y-64430976D01*
X151840619Y-64526214D01*
X151793000Y-64669071D01*
X151745380Y-64716690D01*
X151840619Y-65335738D02*
X151840619Y-65526214D01*
X151793000Y-65621452D01*
X151697761Y-65716690D01*
X151507285Y-65764309D01*
X151173952Y-65764309D01*
X150983476Y-65716690D01*
X150888238Y-65621452D01*
X150840619Y-65526214D01*
X150840619Y-65335738D01*
X150888238Y-65240500D01*
X150983476Y-65145261D01*
X151173952Y-65097642D01*
X151507285Y-65097642D01*
X151697761Y-65145261D01*
X151793000Y-65240500D01*
X151840619Y-65335738D01*
X150840619Y-67526214D02*
X151316809Y-67192880D01*
X150840619Y-66954785D02*
X151840619Y-66954785D01*
X151840619Y-67335738D01*
X151793000Y-67430976D01*
X151745380Y-67478595D01*
X151650142Y-67526214D01*
X151507285Y-67526214D01*
X151412047Y-67478595D01*
X151364428Y-67430976D01*
X151316809Y-67335738D01*
X151316809Y-66954785D01*
X150840619Y-68430976D02*
X150840619Y-67954785D01*
X151840619Y-67954785D01*
D11*
X173074952Y-56986761D02*
X173074952Y-54986761D01*
X173836857Y-54986761D01*
X174027333Y-55082000D01*
X174122571Y-55177238D01*
X174217809Y-55367714D01*
X174217809Y-55653428D01*
X174122571Y-55843904D01*
X174027333Y-55939142D01*
X173836857Y-56034380D01*
X173074952Y-56034380D01*
X175074952Y-56986761D02*
X175074952Y-55653428D01*
X175074952Y-54986761D02*
X174979714Y-55082000D01*
X175074952Y-55177238D01*
X175170190Y-55082000D01*
X175074952Y-54986761D01*
X175074952Y-55177238D01*
X176313047Y-56986761D02*
X176122571Y-56891523D01*
X176027333Y-56701047D01*
X176027333Y-54986761D01*
X177360666Y-56986761D02*
X177170190Y-56891523D01*
X177074952Y-56796285D01*
X176979714Y-56605809D01*
X176979714Y-56034380D01*
X177074952Y-55843904D01*
X177170190Y-55748666D01*
X177360666Y-55653428D01*
X177646380Y-55653428D01*
X177836857Y-55748666D01*
X177932095Y-55843904D01*
X178027333Y-56034380D01*
X178027333Y-56605809D01*
X177932095Y-56796285D01*
X177836857Y-56891523D01*
X177646380Y-56986761D01*
X177360666Y-56986761D01*
X178598761Y-55653428D02*
X179360666Y-55653428D01*
X178884476Y-54986761D02*
X178884476Y-56701047D01*
X178979714Y-56891523D01*
X179170190Y-56986761D01*
X179360666Y-56986761D01*
X180884476Y-56986761D02*
X180884476Y-55939142D01*
X180789238Y-55748666D01*
X180598761Y-55653428D01*
X180217809Y-55653428D01*
X180027333Y-55748666D01*
X180884476Y-56891523D02*
X180694000Y-56986761D01*
X180217809Y-56986761D01*
X180027333Y-56891523D01*
X179932095Y-56701047D01*
X179932095Y-56510571D01*
X180027333Y-56320095D01*
X180217809Y-56224857D01*
X180694000Y-56224857D01*
X180884476Y-56129619D01*
X182694000Y-55653428D02*
X182694000Y-57272476D01*
X182598761Y-57462952D01*
X182503523Y-57558190D01*
X182313047Y-57653428D01*
X182027333Y-57653428D01*
X181836857Y-57558190D01*
X182694000Y-56891523D02*
X182503523Y-56986761D01*
X182122571Y-56986761D01*
X181932095Y-56891523D01*
X181836857Y-56796285D01*
X181741619Y-56605809D01*
X181741619Y-56034380D01*
X181836857Y-55843904D01*
X181932095Y-55748666D01*
X182122571Y-55653428D01*
X182503523Y-55653428D01*
X182694000Y-55748666D01*
X184408285Y-56891523D02*
X184217809Y-56986761D01*
X183836857Y-56986761D01*
X183646380Y-56891523D01*
X183551142Y-56701047D01*
X183551142Y-55939142D01*
X183646380Y-55748666D01*
X183836857Y-55653428D01*
X184217809Y-55653428D01*
X184408285Y-55748666D01*
X184503523Y-55939142D01*
X184503523Y-56129619D01*
X183551142Y-56320095D01*
X186884476Y-56986761D02*
X186884476Y-55653428D01*
X186884476Y-55843904D02*
X186979714Y-55748666D01*
X187170190Y-55653428D01*
X187455904Y-55653428D01*
X187646380Y-55748666D01*
X187741619Y-55939142D01*
X187741619Y-56986761D01*
X187741619Y-55939142D02*
X187836857Y-55748666D01*
X188027333Y-55653428D01*
X188313047Y-55653428D01*
X188503523Y-55748666D01*
X188598761Y-55939142D01*
X188598761Y-56986761D01*
X189836857Y-56986761D02*
X189646380Y-56891523D01*
X189551142Y-56796285D01*
X189455904Y-56605809D01*
X189455904Y-56034380D01*
X189551142Y-55843904D01*
X189646380Y-55748666D01*
X189836857Y-55653428D01*
X190122571Y-55653428D01*
X190313047Y-55748666D01*
X190408285Y-55843904D01*
X190503523Y-56034380D01*
X190503523Y-56605809D01*
X190408285Y-56796285D01*
X190313047Y-56891523D01*
X190122571Y-56986761D01*
X189836857Y-56986761D01*
X191074952Y-55653428D02*
X191836857Y-55653428D01*
X191360666Y-54986761D02*
X191360666Y-56701047D01*
X191455904Y-56891523D01*
X191646380Y-56986761D01*
X191836857Y-56986761D01*
X193265428Y-56891523D02*
X193074952Y-56986761D01*
X192694000Y-56986761D01*
X192503523Y-56891523D01*
X192408285Y-56701047D01*
X192408285Y-55939142D01*
X192503523Y-55748666D01*
X192694000Y-55653428D01*
X193074952Y-55653428D01*
X193265428Y-55748666D01*
X193360666Y-55939142D01*
X193360666Y-56129619D01*
X192408285Y-56320095D01*
X195074952Y-55653428D02*
X195074952Y-56986761D01*
X194217809Y-55653428D02*
X194217809Y-56701047D01*
X194313047Y-56891523D01*
X194503523Y-56986761D01*
X194789238Y-56986761D01*
X194979714Y-56891523D01*
X195074952Y-56796285D01*
X196027333Y-56986761D02*
X196027333Y-55653428D01*
X196027333Y-56034380D02*
X196122571Y-55843904D01*
X196217809Y-55748666D01*
X196408285Y-55653428D01*
X196598761Y-55653428D01*
X174074952Y-60191523D02*
X173884476Y-60286761D01*
X173503523Y-60286761D01*
X173313047Y-60191523D01*
X173217809Y-60096285D01*
X173122571Y-59905809D01*
X173122571Y-59334380D01*
X173217809Y-59143904D01*
X173313047Y-59048666D01*
X173503523Y-58953428D01*
X173884476Y-58953428D01*
X174074952Y-59048666D01*
X175217809Y-60286761D02*
X175027333Y-60191523D01*
X174932095Y-60096285D01*
X174836857Y-59905809D01*
X174836857Y-59334380D01*
X174932095Y-59143904D01*
X175027333Y-59048666D01*
X175217809Y-58953428D01*
X175503523Y-58953428D01*
X175694000Y-59048666D01*
X175789238Y-59143904D01*
X175884476Y-59334380D01*
X175884476Y-59905809D01*
X175789238Y-60096285D01*
X175694000Y-60191523D01*
X175503523Y-60286761D01*
X175217809Y-60286761D01*
X177598761Y-58953428D02*
X177598761Y-60286761D01*
X176741619Y-58953428D02*
X176741619Y-60001047D01*
X176836857Y-60191523D01*
X177027333Y-60286761D01*
X177313047Y-60286761D01*
X177503523Y-60191523D01*
X177598761Y-60096285D01*
X178551142Y-60286761D02*
X178551142Y-58953428D01*
X178551142Y-59334380D02*
X178646380Y-59143904D01*
X178741619Y-59048666D01*
X178932095Y-58953428D01*
X179122571Y-58953428D01*
X180646380Y-60286761D02*
X180646380Y-59239142D01*
X180551142Y-59048666D01*
X180360666Y-58953428D01*
X179979714Y-58953428D01*
X179789238Y-59048666D01*
X180646380Y-60191523D02*
X180455904Y-60286761D01*
X179979714Y-60286761D01*
X179789238Y-60191523D01*
X179694000Y-60001047D01*
X179694000Y-59810571D01*
X179789238Y-59620095D01*
X179979714Y-59524857D01*
X180455904Y-59524857D01*
X180646380Y-59429619D01*
X181598761Y-58953428D02*
X181598761Y-60286761D01*
X181598761Y-59143904D02*
X181694000Y-59048666D01*
X181884476Y-58953428D01*
X182170190Y-58953428D01*
X182360666Y-59048666D01*
X182455904Y-59239142D01*
X182455904Y-60286761D01*
X183122571Y-58953428D02*
X183884476Y-58953428D01*
X183408285Y-58286761D02*
X183408285Y-60001047D01*
X183503523Y-60191523D01*
X183694000Y-60286761D01*
X183884476Y-60286761D01*
X186932095Y-60191523D02*
X186741619Y-60286761D01*
X186360666Y-60286761D01*
X186170190Y-60191523D01*
X186074952Y-60096285D01*
X185979714Y-59905809D01*
X185979714Y-59334380D01*
X186074952Y-59143904D01*
X186170190Y-59048666D01*
X186360666Y-58953428D01*
X186741619Y-58953428D01*
X186932095Y-59048666D01*
X188074952Y-60286761D02*
X187884476Y-60191523D01*
X187789238Y-60096285D01*
X187694000Y-59905809D01*
X187694000Y-59334380D01*
X187789238Y-59143904D01*
X187884476Y-59048666D01*
X188074952Y-58953428D01*
X188360666Y-58953428D01*
X188551142Y-59048666D01*
X188646380Y-59143904D01*
X188741619Y-59334380D01*
X188741619Y-59905809D01*
X188646380Y-60096285D01*
X188551142Y-60191523D01*
X188360666Y-60286761D01*
X188074952Y-60286761D01*
X189598761Y-58953428D02*
X189598761Y-60286761D01*
X189598761Y-59143904D02*
X189694000Y-59048666D01*
X189884476Y-58953428D01*
X190170190Y-58953428D01*
X190360666Y-59048666D01*
X190455904Y-59239142D01*
X190455904Y-60286761D01*
X191122571Y-58953428D02*
X191884476Y-58953428D01*
X191408285Y-58286761D02*
X191408285Y-60001047D01*
X191503523Y-60191523D01*
X191694000Y-60286761D01*
X191884476Y-60286761D01*
X192551142Y-60286761D02*
X192551142Y-58953428D01*
X192551142Y-58286761D02*
X192455904Y-58382000D01*
X192551142Y-58477238D01*
X192646380Y-58382000D01*
X192551142Y-58286761D01*
X192551142Y-58477238D01*
X193503523Y-58953428D02*
X193503523Y-60286761D01*
X193503523Y-59143904D02*
X193598761Y-59048666D01*
X193789238Y-58953428D01*
X194074952Y-58953428D01*
X194265428Y-59048666D01*
X194360666Y-59239142D01*
X194360666Y-60286761D01*
X196170190Y-58953428D02*
X196170190Y-60286761D01*
X195313047Y-58953428D02*
X195313047Y-60001047D01*
X195408285Y-60191523D01*
X195598761Y-60286761D01*
X195884476Y-60286761D01*
X196074952Y-60191523D01*
X196170190Y-60096285D01*
X176265428Y-62253428D02*
X176265428Y-64253428D01*
X176265428Y-62348666D02*
X176455904Y-62253428D01*
X176836857Y-62253428D01*
X177027333Y-62348666D01*
X177122571Y-62443904D01*
X177217809Y-62634380D01*
X177217809Y-63205809D01*
X177122571Y-63396285D01*
X177027333Y-63491523D01*
X176836857Y-63586761D01*
X176455904Y-63586761D01*
X176265428Y-63491523D01*
X178360666Y-63586761D02*
X178170190Y-63491523D01*
X178074952Y-63396285D01*
X177979714Y-63205809D01*
X177979714Y-62634380D01*
X178074952Y-62443904D01*
X178170190Y-62348666D01*
X178360666Y-62253428D01*
X178646380Y-62253428D01*
X178836857Y-62348666D01*
X178932095Y-62443904D01*
X179027333Y-62634380D01*
X179027333Y-63205809D01*
X178932095Y-63396285D01*
X178836857Y-63491523D01*
X178646380Y-63586761D01*
X178360666Y-63586761D01*
X179884476Y-63586761D02*
X179884476Y-62253428D01*
X179884476Y-62634380D02*
X179979714Y-62443904D01*
X180074952Y-62348666D01*
X180265428Y-62253428D01*
X180455904Y-62253428D01*
X180836857Y-62253428D02*
X181598761Y-62253428D01*
X181122571Y-61586761D02*
X181122571Y-63301047D01*
X181217809Y-63491523D01*
X181408285Y-63586761D01*
X181598761Y-63586761D01*
X183122571Y-63586761D02*
X183122571Y-62539142D01*
X183027333Y-62348666D01*
X182836857Y-62253428D01*
X182455904Y-62253428D01*
X182265428Y-62348666D01*
X183122571Y-63491523D02*
X182932095Y-63586761D01*
X182455904Y-63586761D01*
X182265428Y-63491523D01*
X182170190Y-63301047D01*
X182170190Y-63110571D01*
X182265428Y-62920095D01*
X182455904Y-62824857D01*
X182932095Y-62824857D01*
X183122571Y-62729619D01*
X184074952Y-63586761D02*
X184074952Y-62253428D01*
X184074952Y-61586761D02*
X183979714Y-61682000D01*
X184074952Y-61777238D01*
X184170190Y-61682000D01*
X184074952Y-61586761D01*
X184074952Y-61777238D01*
X185313047Y-63586761D02*
X185122571Y-63491523D01*
X185027333Y-63301047D01*
X185027333Y-61586761D01*
X187313047Y-61586761D02*
X187979714Y-63586761D01*
X188646380Y-61586761D01*
X190360666Y-63586761D02*
X189217809Y-63586761D01*
X189789238Y-63586761D02*
X189789238Y-61586761D01*
X189598761Y-61872476D01*
X189408285Y-62062952D01*
X189217809Y-62158190D01*
X191217809Y-63396285D02*
X191313047Y-63491523D01*
X191217809Y-63586761D01*
X191122571Y-63491523D01*
X191217809Y-63396285D01*
X191217809Y-63586761D01*
X193217809Y-63586761D02*
X192074952Y-63586761D01*
X192646380Y-63586761D02*
X192646380Y-61586761D01*
X192455904Y-61872476D01*
X192265428Y-62062952D01*
X192074952Y-62158190D01*
D10*
X117050523Y-118055904D02*
X117145761Y-118055904D01*
X116860047Y-117960666D02*
X117145761Y-117960666D01*
X116669571Y-117865428D02*
X117145761Y-117865428D01*
X116479095Y-117770190D02*
X117145761Y-117770190D01*
X116383857Y-117674952D02*
X117145761Y-117674952D01*
X116193380Y-117579714D02*
X117145761Y-117579714D01*
X116002904Y-117484476D02*
X117145761Y-117484476D01*
X115812428Y-117389238D02*
X117145761Y-117389238D01*
X115621952Y-117294000D02*
X117145761Y-117294000D01*
X115812428Y-117198761D02*
X117145761Y-117198761D01*
X116002904Y-117103523D02*
X117145761Y-117103523D01*
X116193380Y-117008285D02*
X117145761Y-117008285D01*
X116383857Y-116913047D02*
X117145761Y-116913047D01*
X116479095Y-116817809D02*
X117145761Y-116817809D01*
X116669571Y-116722571D02*
X117145761Y-116722571D01*
X116860047Y-116627333D02*
X117145761Y-116627333D01*
X117145761Y-116532095D02*
X115717190Y-117294000D01*
X117145761Y-118055904D01*
X117050523Y-116532095D02*
X117145761Y-116532095D01*
X115621952Y-117294000D02*
X117145761Y-116436857D01*
X117145761Y-118151142D01*
X115621952Y-117294000D01*
D12*
X142911000Y-96984000D02*
X93873000Y-96984000D01*
X93873000Y-85984000D02*
X142873000Y-85984000D01*
D10*
X146190476Y-53540095D02*
X146095238Y-53540095D01*
X146380952Y-53635333D02*
X146095238Y-53635333D01*
X146571428Y-53730571D02*
X146095238Y-53730571D01*
X146761904Y-53825809D02*
X146095238Y-53825809D01*
X146857142Y-53921047D02*
X146095238Y-53921047D01*
X147047619Y-54016285D02*
X146095238Y-54016285D01*
X147238095Y-54111523D02*
X146095238Y-54111523D01*
X147428571Y-54206761D02*
X146095238Y-54206761D01*
X147619047Y-54302000D02*
X146095238Y-54302000D01*
X147428571Y-54397238D02*
X146095238Y-54397238D01*
X147238095Y-54492476D02*
X146095238Y-54492476D01*
X147047619Y-54587714D02*
X146095238Y-54587714D01*
X146857142Y-54682952D02*
X146095238Y-54682952D01*
X146761904Y-54778190D02*
X146095238Y-54778190D01*
X146571428Y-54873428D02*
X146095238Y-54873428D01*
X146380952Y-54968666D02*
X146095238Y-54968666D01*
X146095238Y-55063904D02*
X147523809Y-54302000D01*
X146095238Y-53540095D01*
X146190476Y-55063904D02*
X146095238Y-55063904D01*
X147619047Y-54302000D02*
X146095238Y-55159142D01*
X146095238Y-53444857D01*
X147619047Y-54302000D01*
D11*
X214602571Y-96319142D02*
X215745428Y-96319142D01*
X226032571Y-96573142D02*
X227175428Y-96573142D01*
X226604000Y-97144571D02*
X226604000Y-96001714D01*
X222691285Y-80737857D02*
X223191285Y-80737857D01*
X223405571Y-81523571D02*
X222691285Y-81523571D01*
X222691285Y-80023571D01*
X223405571Y-80023571D01*
X224048428Y-81523571D02*
X224048428Y-80023571D01*
X224905571Y-81523571D01*
X224905571Y-80023571D01*
X225405571Y-80023571D02*
X226262714Y-80023571D01*
X225834142Y-81523571D02*
X225834142Y-80023571D01*
X227619857Y-81523571D02*
X227119857Y-80809285D01*
X226762714Y-81523571D02*
X226762714Y-80023571D01*
X227334142Y-80023571D01*
X227477000Y-80095000D01*
X227548428Y-80166428D01*
X227619857Y-80309285D01*
X227619857Y-80523571D01*
X227548428Y-80666428D01*
X227477000Y-80737857D01*
X227334142Y-80809285D01*
X226762714Y-80809285D01*
X228262714Y-80737857D02*
X228762714Y-80737857D01*
X228977000Y-81523571D02*
X228262714Y-81523571D01*
X228262714Y-80023571D01*
X228977000Y-80023571D01*
X229619857Y-80737857D02*
X230119857Y-80737857D01*
X230334142Y-81523571D02*
X229619857Y-81523571D01*
X229619857Y-80023571D01*
X230334142Y-80023571D01*
X212808857Y-80737857D02*
X213308857Y-80737857D01*
X213523142Y-81523571D02*
X212808857Y-81523571D01*
X212808857Y-80023571D01*
X213523142Y-80023571D01*
X215023142Y-81380714D02*
X214951714Y-81452142D01*
X214737428Y-81523571D01*
X214594571Y-81523571D01*
X214380285Y-81452142D01*
X214237428Y-81309285D01*
X214166000Y-81166428D01*
X214094571Y-80880714D01*
X214094571Y-80666428D01*
X214166000Y-80380714D01*
X214237428Y-80237857D01*
X214380285Y-80095000D01*
X214594571Y-80023571D01*
X214737428Y-80023571D01*
X214951714Y-80095000D01*
X215023142Y-80166428D01*
X215666000Y-81523571D02*
X215666000Y-80023571D01*
X215666000Y-80737857D02*
X216523142Y-80737857D01*
X216523142Y-81523571D02*
X216523142Y-80023571D01*
X198973857Y-127894571D02*
X198973857Y-128894571D01*
X198973857Y-128037428D02*
X199045285Y-127966000D01*
X199188142Y-127894571D01*
X199402428Y-127894571D01*
X199545285Y-127966000D01*
X199616714Y-128108857D01*
X199616714Y-128894571D01*
X200973857Y-128894571D02*
X200973857Y-128108857D01*
X200902428Y-127966000D01*
X200759571Y-127894571D01*
X200473857Y-127894571D01*
X200331000Y-127966000D01*
X200973857Y-128823142D02*
X200831000Y-128894571D01*
X200473857Y-128894571D01*
X200331000Y-128823142D01*
X200259571Y-128680285D01*
X200259571Y-128537428D01*
X200331000Y-128394571D01*
X200473857Y-128323142D01*
X200831000Y-128323142D01*
X200973857Y-128251714D01*
X201688142Y-127894571D02*
X201688142Y-128894571D01*
X201688142Y-128037428D02*
X201759571Y-127966000D01*
X201902428Y-127894571D01*
X202116714Y-127894571D01*
X202259571Y-127966000D01*
X202331000Y-128108857D01*
X202331000Y-128894571D01*
X203259571Y-128894571D02*
X203116714Y-128823142D01*
X203045285Y-128751714D01*
X202973857Y-128608857D01*
X202973857Y-128180285D01*
X203045285Y-128037428D01*
X203116714Y-127966000D01*
X203259571Y-127894571D01*
X203473857Y-127894571D01*
X203616714Y-127966000D01*
X203688142Y-128037428D01*
X203759571Y-128180285D01*
X203759571Y-128608857D01*
X203688142Y-128751714D01*
X203616714Y-128823142D01*
X203473857Y-128894571D01*
X203259571Y-128894571D01*
X161176857Y-115887285D02*
X162148285Y-115887285D01*
X162262571Y-115830142D01*
X162319714Y-115773000D01*
X162376857Y-115658714D01*
X162376857Y-115430142D01*
X162319714Y-115315857D01*
X162262571Y-115258714D01*
X162148285Y-115201571D01*
X161176857Y-115201571D01*
X162319714Y-114687285D02*
X162376857Y-114515857D01*
X162376857Y-114230142D01*
X162319714Y-114115857D01*
X162262571Y-114058714D01*
X162148285Y-114001571D01*
X162034000Y-114001571D01*
X161919714Y-114058714D01*
X161862571Y-114115857D01*
X161805428Y-114230142D01*
X161748285Y-114458714D01*
X161691142Y-114573000D01*
X161634000Y-114630142D01*
X161519714Y-114687285D01*
X161405428Y-114687285D01*
X161291142Y-114630142D01*
X161234000Y-114573000D01*
X161176857Y-114458714D01*
X161176857Y-114173000D01*
X161234000Y-114001571D01*
X161748285Y-113087285D02*
X161805428Y-112915857D01*
X161862571Y-112858714D01*
X161976857Y-112801571D01*
X162148285Y-112801571D01*
X162262571Y-112858714D01*
X162319714Y-112915857D01*
X162376857Y-113030142D01*
X162376857Y-113487285D01*
X161176857Y-113487285D01*
X161176857Y-113087285D01*
X161234000Y-112973000D01*
X161291142Y-112915857D01*
X161405428Y-112858714D01*
X161519714Y-112858714D01*
X161634000Y-112915857D01*
X161691142Y-112973000D01*
X161748285Y-113087285D01*
X161748285Y-113487285D01*
D10*
X213531428Y-67694857D02*
X214031428Y-67694857D01*
X214245714Y-68480571D02*
X213531428Y-68480571D01*
X213531428Y-66980571D01*
X214245714Y-66980571D01*
X215531428Y-68409142D02*
X215388571Y-68480571D01*
X215102857Y-68480571D01*
X214960000Y-68409142D01*
X214888571Y-68337714D01*
X214817142Y-68194857D01*
X214817142Y-67766285D01*
X214888571Y-67623428D01*
X214960000Y-67552000D01*
X215102857Y-67480571D01*
X215388571Y-67480571D01*
X215531428Y-67552000D01*
X216174285Y-68480571D02*
X216174285Y-67480571D01*
X216174285Y-67766285D02*
X216245714Y-67623428D01*
X216317142Y-67552000D01*
X216460000Y-67480571D01*
X216602857Y-67480571D01*
X217745714Y-68480571D02*
X217745714Y-67694857D01*
X217674285Y-67552000D01*
X217531428Y-67480571D01*
X217245714Y-67480571D01*
X217102857Y-67552000D01*
X217745714Y-68409142D02*
X217602857Y-68480571D01*
X217245714Y-68480571D01*
X217102857Y-68409142D01*
X217031428Y-68266285D01*
X217031428Y-68123428D01*
X217102857Y-67980571D01*
X217245714Y-67909142D01*
X217602857Y-67909142D01*
X217745714Y-67837714D01*
X218460000Y-67480571D02*
X218460000Y-68480571D01*
X218460000Y-67623428D02*
X218531428Y-67552000D01*
X218674285Y-67480571D01*
X218888571Y-67480571D01*
X219031428Y-67552000D01*
X219102857Y-67694857D01*
X219102857Y-68480571D01*
X221245714Y-66980571D02*
X221531428Y-66980571D01*
X221674285Y-67052000D01*
X221817142Y-67194857D01*
X221888571Y-67480571D01*
X221888571Y-67980571D01*
X221817142Y-68266285D01*
X221674285Y-68409142D01*
X221531428Y-68480571D01*
X221245714Y-68480571D01*
X221102857Y-68409142D01*
X220960000Y-68266285D01*
X220888571Y-67980571D01*
X220888571Y-67480571D01*
X220960000Y-67194857D01*
X221102857Y-67052000D01*
X221245714Y-66980571D01*
X223245714Y-68480571D02*
X222531428Y-68480571D01*
X222531428Y-66980571D01*
X223745714Y-67694857D02*
X224245714Y-67694857D01*
X224460000Y-68480571D02*
X223745714Y-68480571D01*
X223745714Y-66980571D01*
X224460000Y-66980571D01*
X225102857Y-68480571D02*
X225102857Y-66980571D01*
X225460000Y-66980571D01*
X225674285Y-67052000D01*
X225817142Y-67194857D01*
X225888571Y-67337714D01*
X225960000Y-67623428D01*
X225960000Y-67837714D01*
X225888571Y-68123428D01*
X225817142Y-68266285D01*
X225674285Y-68409142D01*
X225460000Y-68480571D01*
X225102857Y-68480571D01*
D12*
X232000000Y-52000000D02*
X209000000Y-52000000D01*
X232000000Y-79500000D02*
X232000000Y-52000000D01*
X209000000Y-79508000D02*
X232000000Y-79508000D01*
X209000000Y-52000000D02*
X209000000Y-79500000D01*
D10*
X110367428Y-61271238D02*
X110424571Y-61176000D01*
X110538857Y-61080761D01*
X110824571Y-61080761D01*
X110938857Y-61176000D01*
X110996000Y-61271238D01*
X111053142Y-61461714D01*
X111053142Y-61652190D01*
X110996000Y-61937904D01*
X110310285Y-63080761D01*
X111053142Y-63080761D01*
X112081714Y-61747428D02*
X112081714Y-63080761D01*
X111796000Y-60985523D02*
X111510285Y-62414095D01*
X112253142Y-62414095D01*
X112538857Y-61080761D02*
X112938857Y-63080761D01*
X113338857Y-61080761D01*
D12*
X93873000Y-114484000D02*
X93873000Y-64484000D01*
X142873000Y-114484000D02*
X93873000Y-114484000D01*
X142873000Y-64484000D02*
X142873000Y-114484000D01*
X93873000Y-64484000D02*
X142873000Y-64484000D01*
X160900000Y-52000000D02*
X206000000Y-52000000D01*
X160900000Y-105000000D02*
X160900000Y-52000000D01*
X206000000Y-105000000D02*
X160900000Y-105000000D01*
X206000000Y-52000000D02*
X206000000Y-105000000D01*
D10*
X170800714Y-76383571D02*
X170800714Y-75383571D01*
X170800714Y-75669285D02*
X170872142Y-75526428D01*
X170943571Y-75455000D01*
X171086428Y-75383571D01*
X171229285Y-75383571D01*
X172300714Y-76312142D02*
X172157857Y-76383571D01*
X171872142Y-76383571D01*
X171729285Y-76312142D01*
X171657857Y-76169285D01*
X171657857Y-75597857D01*
X171729285Y-75455000D01*
X171872142Y-75383571D01*
X172157857Y-75383571D01*
X172300714Y-75455000D01*
X172372142Y-75597857D01*
X172372142Y-75740714D01*
X171657857Y-75883571D01*
X172157857Y-74812142D02*
X171943571Y-75026428D01*
X173657857Y-76312142D02*
X173515000Y-76383571D01*
X173229285Y-76383571D01*
X173086428Y-76312142D01*
X173015000Y-76240714D01*
X172943571Y-76097857D01*
X172943571Y-75669285D01*
X173015000Y-75526428D01*
X173086428Y-75455000D01*
X173229285Y-75383571D01*
X173515000Y-75383571D01*
X173657857Y-75455000D01*
X174872142Y-76312142D02*
X174729285Y-76383571D01*
X174443571Y-76383571D01*
X174300714Y-76312142D01*
X174229285Y-76169285D01*
X174229285Y-75597857D01*
X174300714Y-75455000D01*
X174443571Y-75383571D01*
X174729285Y-75383571D01*
X174872142Y-75455000D01*
X174943571Y-75597857D01*
X174943571Y-75740714D01*
X174229285Y-75883571D01*
X175586428Y-75383571D02*
X175586428Y-76883571D01*
X175586428Y-75455000D02*
X175729285Y-75383571D01*
X176015000Y-75383571D01*
X176157857Y-75455000D01*
X176229285Y-75526428D01*
X176300714Y-75669285D01*
X176300714Y-76097857D01*
X176229285Y-76240714D01*
X176157857Y-76312142D01*
X176015000Y-76383571D01*
X175729285Y-76383571D01*
X175586428Y-76312142D01*
X176729285Y-75383571D02*
X177300714Y-75383571D01*
X176943571Y-74883571D02*
X176943571Y-76169285D01*
X177015000Y-76312142D01*
X177157857Y-76383571D01*
X177300714Y-76383571D01*
X178372142Y-76312142D02*
X178229285Y-76383571D01*
X177943571Y-76383571D01*
X177800714Y-76312142D01*
X177729285Y-76169285D01*
X177729285Y-75597857D01*
X177800714Y-75455000D01*
X177943571Y-75383571D01*
X178229285Y-75383571D01*
X178372142Y-75455000D01*
X178443571Y-75597857D01*
X178443571Y-75740714D01*
X177729285Y-75883571D01*
X179729285Y-75383571D02*
X179729285Y-76383571D01*
X179086428Y-75383571D02*
X179086428Y-76169285D01*
X179157857Y-76312142D01*
X179300714Y-76383571D01*
X179515000Y-76383571D01*
X179657857Y-76312142D01*
X179729285Y-76240714D01*
X180443571Y-76383571D02*
X180443571Y-75383571D01*
X180443571Y-75669285D02*
X180515000Y-75526428D01*
X180586428Y-75455000D01*
X180729285Y-75383571D01*
X180872142Y-75383571D01*
X183157857Y-76312142D02*
X183015000Y-76383571D01*
X182729285Y-76383571D01*
X182586428Y-76312142D01*
X182515000Y-76240714D01*
X182443571Y-76097857D01*
X182443571Y-75669285D01*
X182515000Y-75526428D01*
X182586428Y-75455000D01*
X182729285Y-75383571D01*
X183015000Y-75383571D01*
X183157857Y-75455000D01*
X184015000Y-76383571D02*
X183872142Y-76312142D01*
X183800714Y-76240714D01*
X183729285Y-76097857D01*
X183729285Y-75669285D01*
X183800714Y-75526428D01*
X183872142Y-75455000D01*
X184015000Y-75383571D01*
X184229285Y-75383571D01*
X184372142Y-75455000D01*
X184443571Y-75526428D01*
X184515000Y-75669285D01*
X184515000Y-76097857D01*
X184443571Y-76240714D01*
X184372142Y-76312142D01*
X184229285Y-76383571D01*
X184015000Y-76383571D01*
X185800714Y-76383571D02*
X185800714Y-74883571D01*
X185800714Y-76312142D02*
X185657857Y-76383571D01*
X185372142Y-76383571D01*
X185229285Y-76312142D01*
X185157857Y-76240714D01*
X185086428Y-76097857D01*
X185086428Y-75669285D01*
X185157857Y-75526428D01*
X185229285Y-75455000D01*
X185372142Y-75383571D01*
X185657857Y-75383571D01*
X185800714Y-75455000D01*
X187086428Y-76312142D02*
X186943571Y-76383571D01*
X186657857Y-76383571D01*
X186515000Y-76312142D01*
X186443571Y-76169285D01*
X186443571Y-75597857D01*
X186515000Y-75455000D01*
X186657857Y-75383571D01*
X186943571Y-75383571D01*
X187086428Y-75455000D01*
X187157857Y-75597857D01*
X187157857Y-75740714D01*
X186443571Y-75883571D01*
X188943571Y-76383571D02*
X188943571Y-75383571D01*
X188943571Y-75669285D02*
X189015000Y-75526428D01*
X189086428Y-75455000D01*
X189229285Y-75383571D01*
X189372142Y-75383571D01*
X190086428Y-76383571D02*
X189943571Y-76312142D01*
X189872142Y-76240714D01*
X189800714Y-76097857D01*
X189800714Y-75669285D01*
X189872142Y-75526428D01*
X189943571Y-75455000D01*
X190086428Y-75383571D01*
X190300714Y-75383571D01*
X190443571Y-75455000D01*
X190515000Y-75526428D01*
X190586428Y-75669285D01*
X190586428Y-76097857D01*
X190515000Y-76240714D01*
X190443571Y-76312142D01*
X190300714Y-76383571D01*
X190086428Y-76383571D01*
X191872142Y-75383571D02*
X191872142Y-76383571D01*
X191229285Y-75383571D02*
X191229285Y-76169285D01*
X191300714Y-76312142D01*
X191443571Y-76383571D01*
X191657857Y-76383571D01*
X191800714Y-76312142D01*
X191872142Y-76240714D01*
X192800714Y-76383571D02*
X192657857Y-76312142D01*
X192586428Y-76169285D01*
X192586428Y-74883571D01*
X194015000Y-76383571D02*
X194015000Y-75597857D01*
X193943571Y-75455000D01*
X193800714Y-75383571D01*
X193515000Y-75383571D01*
X193372142Y-75455000D01*
X194015000Y-76312142D02*
X193872142Y-76383571D01*
X193515000Y-76383571D01*
X193372142Y-76312142D01*
X193300714Y-76169285D01*
X193300714Y-76026428D01*
X193372142Y-75883571D01*
X193515000Y-75812142D01*
X193872142Y-75812142D01*
X194015000Y-75740714D01*
X194729285Y-75383571D02*
X194729285Y-76383571D01*
X194729285Y-75526428D02*
X194800714Y-75455000D01*
X194943571Y-75383571D01*
X195157857Y-75383571D01*
X195300714Y-75455000D01*
X195372142Y-75597857D01*
X195372142Y-76383571D01*
X195872142Y-75383571D02*
X196443571Y-75383571D01*
X196086428Y-74883571D02*
X196086428Y-76169285D01*
X196157857Y-76312142D01*
X196300714Y-76383571D01*
X196443571Y-76383571D01*
X179586428Y-78783571D02*
X179086428Y-78069285D01*
X178729285Y-78783571D02*
X178729285Y-77283571D01*
X179300714Y-77283571D01*
X179443571Y-77355000D01*
X179515000Y-77426428D01*
X179586428Y-77569285D01*
X179586428Y-77783571D01*
X179515000Y-77926428D01*
X179443571Y-77997857D01*
X179300714Y-78069285D01*
X178729285Y-78069285D01*
X180086428Y-78783571D02*
X180872142Y-77783571D01*
X180086428Y-77783571D02*
X180872142Y-78783571D01*
X181443571Y-78212142D02*
X182586428Y-78212142D01*
X183300714Y-78783571D02*
X183300714Y-77783571D01*
X183300714Y-77926428D02*
X183372142Y-77855000D01*
X183515000Y-77783571D01*
X183729285Y-77783571D01*
X183872142Y-77855000D01*
X183943571Y-77997857D01*
X183943571Y-78783571D01*
X183943571Y-77997857D02*
X184015000Y-77855000D01*
X184157857Y-77783571D01*
X184372142Y-77783571D01*
X184515000Y-77855000D01*
X184586428Y-77997857D01*
X184586428Y-78783571D01*
X185943571Y-77783571D02*
X185943571Y-78783571D01*
X185300714Y-77783571D02*
X185300714Y-78569285D01*
X185372142Y-78712142D01*
X185515000Y-78783571D01*
X185729285Y-78783571D01*
X185872142Y-78712142D01*
X185943571Y-78640714D01*
X186872142Y-78783571D02*
X186729285Y-78712142D01*
X186657857Y-78569285D01*
X186657857Y-77283571D01*
X187229285Y-77783571D02*
X187800714Y-77783571D01*
X187443571Y-77283571D02*
X187443571Y-78569285D01*
X187515000Y-78712142D01*
X187657857Y-78783571D01*
X187800714Y-78783571D01*
X188300714Y-78783571D02*
X188300714Y-77783571D01*
X188300714Y-77283571D02*
X188229285Y-77355000D01*
X188300714Y-77426428D01*
X188372142Y-77355000D01*
X188300714Y-77283571D01*
X188300714Y-77426428D01*
X176086428Y-81112142D02*
X176300714Y-81183571D01*
X176657857Y-81183571D01*
X176800714Y-81112142D01*
X176872142Y-81040714D01*
X176943571Y-80897857D01*
X176943571Y-80755000D01*
X176872142Y-80612142D01*
X176800714Y-80540714D01*
X176657857Y-80469285D01*
X176372142Y-80397857D01*
X176229285Y-80326428D01*
X176157857Y-80255000D01*
X176086428Y-80112142D01*
X176086428Y-79969285D01*
X176157857Y-79826428D01*
X176229285Y-79755000D01*
X176372142Y-79683571D01*
X176729285Y-79683571D01*
X176943571Y-79755000D01*
X177586428Y-81183571D02*
X177586428Y-79683571D01*
X178086428Y-80755000D01*
X178586428Y-79683571D01*
X178586428Y-81183571D01*
X180086428Y-79755000D02*
X179943571Y-79683571D01*
X179729285Y-79683571D01*
X179515000Y-79755000D01*
X179372142Y-79897857D01*
X179300714Y-80040714D01*
X179229285Y-80326428D01*
X179229285Y-80540714D01*
X179300714Y-80826428D01*
X179372142Y-80969285D01*
X179515000Y-81112142D01*
X179729285Y-81183571D01*
X179872142Y-81183571D01*
X180086428Y-81112142D01*
X180157857Y-81040714D01*
X180157857Y-80540714D01*
X179872142Y-80540714D01*
X180800714Y-80612142D02*
X181943571Y-80612142D01*
X183300714Y-79683571D02*
X183015000Y-79683571D01*
X182872142Y-79755000D01*
X182800714Y-79826428D01*
X182657857Y-80040714D01*
X182586428Y-80326428D01*
X182586428Y-80897857D01*
X182657857Y-81040714D01*
X182729285Y-81112142D01*
X182872142Y-81183571D01*
X183157857Y-81183571D01*
X183300714Y-81112142D01*
X183372142Y-81040714D01*
X183443571Y-80897857D01*
X183443571Y-80540714D01*
X183372142Y-80397857D01*
X183300714Y-80326428D01*
X183157857Y-80255000D01*
X182872142Y-80255000D01*
X182729285Y-80326428D01*
X182657857Y-80397857D01*
X182586428Y-80540714D01*
X184729285Y-79683571D02*
X184443571Y-79683571D01*
X184300714Y-79755000D01*
X184229285Y-79826428D01*
X184086428Y-80040714D01*
X184015000Y-80326428D01*
X184015000Y-80897857D01*
X184086428Y-81040714D01*
X184157857Y-81112142D01*
X184300714Y-81183571D01*
X184586428Y-81183571D01*
X184729285Y-81112142D01*
X184800714Y-81040714D01*
X184872142Y-80897857D01*
X184872142Y-80540714D01*
X184800714Y-80397857D01*
X184729285Y-80326428D01*
X184586428Y-80255000D01*
X184300714Y-80255000D01*
X184157857Y-80326428D01*
X184086428Y-80397857D01*
X184015000Y-80540714D01*
X185443571Y-79826428D02*
X185515000Y-79755000D01*
X185657857Y-79683571D01*
X186015000Y-79683571D01*
X186157857Y-79755000D01*
X186229285Y-79826428D01*
X186300714Y-79969285D01*
X186300714Y-80112142D01*
X186229285Y-80326428D01*
X185372142Y-81183571D01*
X186300714Y-81183571D01*
X186943571Y-81183571D02*
X186943571Y-79683571D01*
X187443571Y-80755000D01*
X187943571Y-79683571D01*
X187943571Y-81183571D01*
X189515000Y-81183571D02*
X189015000Y-80469285D01*
X188657857Y-81183571D02*
X188657857Y-79683571D01*
X189229285Y-79683571D01*
X189372142Y-79755000D01*
X189443571Y-79826428D01*
X189515000Y-79969285D01*
X189515000Y-80183571D01*
X189443571Y-80326428D01*
X189372142Y-80397857D01*
X189229285Y-80469285D01*
X188657857Y-80469285D01*
X190015000Y-79683571D02*
X191015000Y-81183571D01*
X191015000Y-79683571D02*
X190015000Y-81183571D01*
X110788857Y-78234571D02*
X110788857Y-76734571D01*
X111146000Y-76734571D01*
X111360285Y-76806000D01*
X111503142Y-76948857D01*
X111574571Y-77091714D01*
X111646000Y-77377428D01*
X111646000Y-77591714D01*
X111574571Y-77877428D01*
X111503142Y-78020285D01*
X111360285Y-78163142D01*
X111146000Y-78234571D01*
X110788857Y-78234571D01*
X112288857Y-78234571D02*
X112288857Y-77234571D01*
X112288857Y-77520285D02*
X112360285Y-77377428D01*
X112431714Y-77306000D01*
X112574571Y-77234571D01*
X112717428Y-77234571D01*
X113217428Y-78234571D02*
X113217428Y-77234571D01*
X113217428Y-76734571D02*
X113146000Y-76806000D01*
X113217428Y-76877428D01*
X113288857Y-76806000D01*
X113217428Y-76734571D01*
X113217428Y-76877428D01*
X113788857Y-77234571D02*
X114146000Y-78234571D01*
X114503142Y-77234571D01*
X115646000Y-78163142D02*
X115503142Y-78234571D01*
X115217428Y-78234571D01*
X115074571Y-78163142D01*
X115003142Y-78020285D01*
X115003142Y-77448857D01*
X115074571Y-77306000D01*
X115217428Y-77234571D01*
X115503142Y-77234571D01*
X115646000Y-77306000D01*
X115717428Y-77448857D01*
X115717428Y-77591714D01*
X115003142Y-77734571D01*
X116360285Y-78234571D02*
X116360285Y-77234571D01*
X116360285Y-77520285D02*
X116431714Y-77377428D01*
X116503142Y-77306000D01*
X116646000Y-77234571D01*
X116788857Y-77234571D01*
X118431714Y-78234571D02*
X118431714Y-77234571D01*
X118431714Y-77377428D02*
X118503142Y-77306000D01*
X118646000Y-77234571D01*
X118860285Y-77234571D01*
X119003142Y-77306000D01*
X119074571Y-77448857D01*
X119074571Y-78234571D01*
X119074571Y-77448857D02*
X119146000Y-77306000D01*
X119288857Y-77234571D01*
X119503142Y-77234571D01*
X119646000Y-77306000D01*
X119717428Y-77448857D01*
X119717428Y-78234571D01*
X120646000Y-78234571D02*
X120503142Y-78163142D01*
X120431714Y-78091714D01*
X120360285Y-77948857D01*
X120360285Y-77520285D01*
X120431714Y-77377428D01*
X120503142Y-77306000D01*
X120646000Y-77234571D01*
X120860285Y-77234571D01*
X121003142Y-77306000D01*
X121074571Y-77377428D01*
X121146000Y-77520285D01*
X121146000Y-77948857D01*
X121074571Y-78091714D01*
X121003142Y-78163142D01*
X120860285Y-78234571D01*
X120646000Y-78234571D01*
X121574571Y-77234571D02*
X122146000Y-77234571D01*
X121788857Y-76734571D02*
X121788857Y-78020285D01*
X121860285Y-78163142D01*
X122003142Y-78234571D01*
X122146000Y-78234571D01*
X123217428Y-78163142D02*
X123074571Y-78234571D01*
X122788857Y-78234571D01*
X122646000Y-78163142D01*
X122574571Y-78020285D01*
X122574571Y-77448857D01*
X122646000Y-77306000D01*
X122788857Y-77234571D01*
X123074571Y-77234571D01*
X123217428Y-77306000D01*
X123288857Y-77448857D01*
X123288857Y-77591714D01*
X122574571Y-77734571D01*
X124574571Y-77234571D02*
X124574571Y-78234571D01*
X123931714Y-77234571D02*
X123931714Y-78020285D01*
X124003142Y-78163142D01*
X124146000Y-78234571D01*
X124360285Y-78234571D01*
X124503142Y-78163142D01*
X124574571Y-78091714D01*
X125288857Y-78234571D02*
X125288857Y-77234571D01*
X125288857Y-77520285D02*
X125360285Y-77377428D01*
X125431714Y-77306000D01*
X125574571Y-77234571D01*
X125717428Y-77234571D01*
X107538857Y-80563142D02*
X107395999Y-80634571D01*
X107110285Y-80634571D01*
X106967428Y-80563142D01*
X106895999Y-80491714D01*
X106824571Y-80348857D01*
X106824571Y-79920285D01*
X106895999Y-79777428D01*
X106967428Y-79706000D01*
X107110285Y-79634571D01*
X107395999Y-79634571D01*
X107538857Y-79706000D01*
X108395999Y-80634571D02*
X108253142Y-80563142D01*
X108181714Y-80491714D01*
X108110285Y-80348857D01*
X108110285Y-79920285D01*
X108181714Y-79777428D01*
X108253142Y-79706000D01*
X108395999Y-79634571D01*
X108610285Y-79634571D01*
X108753142Y-79706000D01*
X108824571Y-79777428D01*
X108895999Y-79920285D01*
X108895999Y-80348857D01*
X108824571Y-80491714D01*
X108753142Y-80563142D01*
X108610285Y-80634571D01*
X108395999Y-80634571D01*
X110181714Y-79634571D02*
X110181714Y-80634571D01*
X109538857Y-79634571D02*
X109538857Y-80420285D01*
X109610285Y-80563142D01*
X109753142Y-80634571D01*
X109967428Y-80634571D01*
X110110285Y-80563142D01*
X110181714Y-80491714D01*
X110895999Y-80634571D02*
X110895999Y-79634571D01*
X110895999Y-79920285D02*
X110967428Y-79777428D01*
X111038857Y-79706000D01*
X111181714Y-79634571D01*
X111324571Y-79634571D01*
X112467428Y-80634571D02*
X112467428Y-79848857D01*
X112396000Y-79706000D01*
X112253142Y-79634571D01*
X111967428Y-79634571D01*
X111824571Y-79706000D01*
X112467428Y-80563142D02*
X112324571Y-80634571D01*
X111967428Y-80634571D01*
X111824571Y-80563142D01*
X111753142Y-80420285D01*
X111753142Y-80277428D01*
X111824571Y-80134571D01*
X111967428Y-80063142D01*
X112324571Y-80063142D01*
X112467428Y-79991714D01*
X113181714Y-79634571D02*
X113181714Y-80634571D01*
X113181714Y-79777428D02*
X113253142Y-79706000D01*
X113396000Y-79634571D01*
X113610285Y-79634571D01*
X113753142Y-79706000D01*
X113824571Y-79848857D01*
X113824571Y-80634571D01*
X114324571Y-79634571D02*
X114896000Y-79634571D01*
X114538857Y-79134571D02*
X114538857Y-80420285D01*
X114610285Y-80563142D01*
X114753142Y-80634571D01*
X114896000Y-80634571D01*
X117181714Y-80563142D02*
X117038857Y-80634571D01*
X116753142Y-80634571D01*
X116610285Y-80563142D01*
X116538857Y-80491714D01*
X116467428Y-80348857D01*
X116467428Y-79920285D01*
X116538857Y-79777428D01*
X116610285Y-79706000D01*
X116753142Y-79634571D01*
X117038857Y-79634571D01*
X117181714Y-79706000D01*
X118038857Y-80634571D02*
X117895999Y-80563142D01*
X117824571Y-80491714D01*
X117753142Y-80348857D01*
X117753142Y-79920285D01*
X117824571Y-79777428D01*
X117895999Y-79706000D01*
X118038857Y-79634571D01*
X118253142Y-79634571D01*
X118395999Y-79706000D01*
X118467428Y-79777428D01*
X118538857Y-79920285D01*
X118538857Y-80348857D01*
X118467428Y-80491714D01*
X118395999Y-80563142D01*
X118253142Y-80634571D01*
X118038857Y-80634571D01*
X119181714Y-79634571D02*
X119181714Y-80634571D01*
X119181714Y-79777428D02*
X119253142Y-79706000D01*
X119395999Y-79634571D01*
X119610285Y-79634571D01*
X119753142Y-79706000D01*
X119824571Y-79848857D01*
X119824571Y-80634571D01*
X120324571Y-79634571D02*
X120895999Y-79634571D01*
X120538857Y-79134571D02*
X120538857Y-80420285D01*
X120610285Y-80563142D01*
X120753142Y-80634571D01*
X120895999Y-80634571D01*
X121395999Y-80634571D02*
X121395999Y-79634571D01*
X121395999Y-79134571D02*
X121324571Y-79206000D01*
X121395999Y-79277428D01*
X121467428Y-79206000D01*
X121395999Y-79134571D01*
X121395999Y-79277428D01*
X122110285Y-79634571D02*
X122110285Y-80634571D01*
X122110285Y-79777428D02*
X122181714Y-79706000D01*
X122324571Y-79634571D01*
X122538857Y-79634571D01*
X122681714Y-79706000D01*
X122753142Y-79848857D01*
X122753142Y-80634571D01*
X124110285Y-79634571D02*
X124110285Y-80634571D01*
X123467428Y-79634571D02*
X123467428Y-80420285D01*
X123538857Y-80563142D01*
X123681714Y-80634571D01*
X123895999Y-80634571D01*
X124038857Y-80563142D01*
X124110285Y-80491714D01*
X125895999Y-79277428D02*
X125967428Y-79206000D01*
X126110285Y-79134571D01*
X126467428Y-79134571D01*
X126610285Y-79206000D01*
X126681714Y-79277428D01*
X126753142Y-79420285D01*
X126753142Y-79563142D01*
X126681714Y-79777428D01*
X125824571Y-80634571D01*
X126753142Y-80634571D01*
X128038857Y-79634571D02*
X128038857Y-80634571D01*
X127681714Y-79063142D02*
X127324571Y-80134571D01*
X128253142Y-80134571D01*
X128610285Y-79134571D02*
X129110285Y-80634571D01*
X129610285Y-79134571D01*
X115538857Y-83034571D02*
X115538857Y-81534571D01*
X116753142Y-82248857D02*
X116967428Y-82320285D01*
X117038857Y-82391714D01*
X117110285Y-82534571D01*
X117110285Y-82748857D01*
X117038857Y-82891714D01*
X116967428Y-82963142D01*
X116824571Y-83034571D01*
X116253142Y-83034571D01*
X116253142Y-81534571D01*
X116753142Y-81534571D01*
X116896000Y-81606000D01*
X116967428Y-81677428D01*
X117038857Y-81820285D01*
X117038857Y-81963142D01*
X116967428Y-82106000D01*
X116896000Y-82177428D01*
X116753142Y-82248857D01*
X116253142Y-82248857D01*
X117538857Y-81534571D02*
X118396000Y-81534571D01*
X117967428Y-83034571D02*
X117967428Y-81534571D01*
X118538857Y-83177428D02*
X119681714Y-83177428D01*
X119967428Y-81677428D02*
X120038857Y-81606000D01*
X120181714Y-81534571D01*
X120538857Y-81534571D01*
X120681714Y-81606000D01*
X120753142Y-81677428D01*
X120824571Y-81820285D01*
X120824571Y-81963142D01*
X120753142Y-82177428D01*
X119896000Y-83034571D01*
X120824571Y-83034571D01*
D12*
%TO.C,C9*%
X135622000Y-122347000D02*
X128182000Y-122347000D01*
X135622000Y-119607000D02*
X128182000Y-119607000D01*
X135622000Y-122347000D02*
X135622000Y-119607000D01*
X128182000Y-122347000D02*
X128182000Y-119607000D01*
%TO.C,J11*%
X105132000Y-115837000D02*
X105132000Y-121037000D01*
X112812000Y-115837000D02*
X105132000Y-115837000D01*
X115412000Y-121037000D02*
X105132000Y-121037000D01*
X112812000Y-115837000D02*
X112812000Y-118437000D01*
X112812000Y-118437000D02*
X115412000Y-118437000D01*
X115412000Y-118437000D02*
X115412000Y-121037000D01*
X114082000Y-115837000D02*
X115412000Y-115837000D01*
X115412000Y-115837000D02*
X115412000Y-117167000D01*
%TO.C,J2*%
X137650000Y-131910000D02*
X137650000Y-123090000D01*
X137650000Y-123090000D02*
X120190000Y-123090000D01*
X120190000Y-123090000D02*
X120190000Y-131910000D01*
X120190000Y-131910000D02*
X137650000Y-131910000D01*
X137650000Y-131100000D02*
X135110000Y-131100000D01*
X120190000Y-131100000D02*
X122730000Y-131100000D01*
X133000000Y-131100000D02*
X129920000Y-131100000D01*
X127920000Y-131100000D02*
X124840000Y-131100000D01*
X135000000Y-130100000D02*
X135000000Y-131910000D01*
X135000000Y-131910000D02*
X133000000Y-131910000D01*
X133000000Y-131910000D02*
X133000000Y-130100000D01*
X133000000Y-130100000D02*
X135000000Y-130100000D01*
X129920000Y-130100000D02*
X129920000Y-131910000D01*
X129920000Y-131910000D02*
X127920000Y-131910000D01*
X127920000Y-131910000D02*
X127920000Y-130100000D01*
X127920000Y-130100000D02*
X129920000Y-130100000D01*
X124840000Y-130100000D02*
X124840000Y-131910000D01*
X124840000Y-131910000D02*
X122840000Y-131910000D01*
X122840000Y-131910000D02*
X122840000Y-130100000D01*
X122840000Y-130100000D02*
X124840000Y-130100000D01*
X132000000Y-124800000D02*
X130920000Y-124800000D01*
X126920000Y-124800000D02*
X125840000Y-124800000D01*
X136000000Y-124800000D02*
X136740000Y-124800000D01*
X136740000Y-124800000D02*
X136740000Y-130100000D01*
X136740000Y-130100000D02*
X121100000Y-130100000D01*
X121100000Y-130100000D02*
X121100000Y-124800000D01*
X121100000Y-124800000D02*
X121840000Y-124800000D01*
X133700000Y-132710000D02*
X134000000Y-132110000D01*
X134000000Y-132110000D02*
X134300000Y-132710000D01*
X134300000Y-132710000D02*
X133700000Y-132710000D01*
X121853159Y-124784179D02*
G75*
G02*
X125840000Y-124800000I1986841J-1665821D01*
G01*
X126933159Y-124784179D02*
G75*
G02*
X130920000Y-124800000I1986841J-1665821D01*
G01*
X132013159Y-124784179D02*
G75*
G02*
X136000000Y-124800000I1986841J-1665821D01*
G01*
%TO.C,R27*%
X121861000Y-113460000D02*
X121861000Y-113130000D01*
X121861000Y-113130000D02*
X128401000Y-113130000D01*
X128401000Y-113130000D02*
X128401000Y-113460000D01*
X121861000Y-115540000D02*
X121861000Y-115870000D01*
X121861000Y-115870000D02*
X128401000Y-115870000D01*
X128401000Y-115870000D02*
X128401000Y-115540000D01*
%TO.C,D2*%
X118365000Y-61341000D02*
X118365000Y-64281000D01*
X118605000Y-61341000D02*
X118605000Y-64281000D01*
X118485000Y-61341000D02*
X118485000Y-64281000D01*
X124045000Y-62811000D02*
X123025000Y-62811000D01*
X116565000Y-62811000D02*
X117585000Y-62811000D01*
X123025000Y-61341000D02*
X117585000Y-61341000D01*
X123025000Y-64281000D02*
X123025000Y-61341000D01*
X117585000Y-64281000D02*
X123025000Y-64281000D01*
X117585000Y-61341000D02*
X117585000Y-64281000D01*
%TO.C,R13*%
X159775000Y-128724000D02*
X159845000Y-128724000D01*
X159775000Y-128724000D02*
G75*
G03*
X159775000Y-128724000I-1370000J0D01*
G01*
%TO.C,D1*%
X98488600Y-118513200D02*
G75*
G03*
X98488600Y-118513200I-2720000J0D01*
G01*
X98488600Y-118513200D02*
X98948600Y-118513200D01*
%TO.C,Q1*%
X198592000Y-114732000D02*
X198592000Y-118332000D01*
X199319205Y-118856184D02*
G75*
G02*
X198592000Y-118332000I1122795J2324184D01*
G01*
X201540807Y-118888400D02*
G75*
G03*
X203042000Y-116532000I-1098807J2356400D01*
G01*
X201540807Y-114175600D02*
G75*
G02*
X203042000Y-116532000I-1098807J-2356400D01*
G01*
X199319205Y-114207816D02*
G75*
G03*
X198592000Y-114732000I1122795J-2324184D01*
G01*
%TO.C,R7*%
X189552000Y-113460000D02*
X189552000Y-113130000D01*
X189552000Y-113130000D02*
X196092000Y-113130000D01*
X196092000Y-113130000D02*
X196092000Y-113460000D01*
X189552000Y-115540000D02*
X189552000Y-115870000D01*
X189552000Y-115870000D02*
X196092000Y-115870000D01*
X196092000Y-115870000D02*
X196092000Y-115540000D01*
%TO.C,R6*%
X191266000Y-130018000D02*
X191266000Y-130348000D01*
X191266000Y-130348000D02*
X184726000Y-130348000D01*
X184726000Y-130348000D02*
X184726000Y-130018000D01*
X191266000Y-127938000D02*
X191266000Y-127608000D01*
X191266000Y-127608000D02*
X184726000Y-127608000D01*
X184726000Y-127608000D02*
X184726000Y-127938000D01*
%TO.C,R5*%
X181360000Y-130018000D02*
X181360000Y-130348000D01*
X181360000Y-130348000D02*
X174820000Y-130348000D01*
X174820000Y-130348000D02*
X174820000Y-130018000D01*
X181360000Y-127938000D02*
X181360000Y-127608000D01*
X181360000Y-127608000D02*
X174820000Y-127608000D01*
X174820000Y-127608000D02*
X174820000Y-127938000D01*
%TO.C,F1*%
X144926000Y-51170000D02*
X144926000Y-54330000D01*
X144926000Y-51170000D02*
X122206000Y-51170000D01*
X144926000Y-60990000D02*
X122206000Y-60990000D01*
X144926000Y-57830000D02*
X144926000Y-60990000D01*
X122206000Y-57830000D02*
X122206000Y-60990000D01*
X122206000Y-51170000D02*
X122206000Y-54330000D01*
%TO.C,Q3*%
X107951000Y-56002000D02*
X111801000Y-56002000D01*
X112193383Y-55414264D02*
G75*
G02*
X111801000Y-56002000I-2302383J1112264D01*
G01*
X112247400Y-53203193D02*
G75*
G03*
X109891000Y-51702000I-2356400J-1098807D01*
G01*
X107534600Y-53203193D02*
G75*
G02*
X109891000Y-51702000I2356400J-1098807D01*
G01*
X107568369Y-55424045D02*
G75*
G03*
X107951000Y-56002000I2322631J1122045D01*
G01*
%TO.C,J6*%
X147804000Y-68332000D02*
X150464000Y-68332000D01*
X147804000Y-55572000D02*
X147804000Y-68332000D01*
X150464000Y-55572000D02*
X150464000Y-68332000D01*
X147804000Y-55572000D02*
X150464000Y-55572000D01*
X147804000Y-54302000D02*
X147804000Y-52972000D01*
X147804000Y-52972000D02*
X149134000Y-52972000D01*
%TO.C,BZ1*%
X105948000Y-57604000D02*
G75*
G03*
X105948000Y-57604000I-6100000J0D01*
G01*
%TO.C,C5*%
X127748000Y-122347000D02*
X120308000Y-122347000D01*
X127748000Y-119607000D02*
X120308000Y-119607000D01*
X127748000Y-122347000D02*
X127748000Y-119607000D01*
X120308000Y-122347000D02*
X120308000Y-119607000D01*
%TO.C,C3*%
X150318000Y-122782000D02*
X142878000Y-122782000D01*
X150318000Y-120042000D02*
X142878000Y-120042000D01*
X150318000Y-122782000D02*
X150318000Y-120042000D01*
X142878000Y-122782000D02*
X142878000Y-120042000D01*
%TO.C,R15*%
X159739000Y-125295000D02*
G75*
G03*
X159739000Y-125295000I-1370000J0D01*
G01*
X158369000Y-123925000D02*
X158369000Y-123855000D01*
%TO.C,C4*%
X137718000Y-116486000D02*
X145158000Y-116486000D01*
X137718000Y-119226000D02*
X145158000Y-119226000D01*
X137718000Y-116486000D02*
X137718000Y-119226000D01*
X145158000Y-116486000D02*
X145158000Y-119226000D01*
%TO.C,R9*%
X140308000Y-121000000D02*
G75*
G03*
X140308000Y-121000000I-1370000J0D01*
G01*
X140308000Y-121000000D02*
X140378000Y-121000000D01*
%TO.C,D3*%
X210284635Y-112014000D02*
G75*
G03*
X210284635Y-112014000I-1750635J0D01*
G01*
X208534000Y-110263365D02*
X208534000Y-109604000D01*
%TO.C,U5*%
X150638000Y-99000000D02*
X149388000Y-99000000D01*
X149388000Y-99000000D02*
X149388000Y-104200000D01*
X149388000Y-104200000D02*
X153888000Y-104200000D01*
X153888000Y-104200000D02*
X153888000Y-99000000D01*
X153888000Y-99000000D02*
X152638000Y-99000000D01*
X152638000Y-99000000D02*
G75*
G02*
X150638000Y-99000000I-1000000J0D01*
G01*
%TO.C,U4*%
X150638000Y-104080000D02*
X149388000Y-104080000D01*
X149388000Y-104080000D02*
X149388000Y-109280000D01*
X149388000Y-109280000D02*
X153888000Y-109280000D01*
X153888000Y-109280000D02*
X153888000Y-104080000D01*
X153888000Y-104080000D02*
X152638000Y-104080000D01*
X152638000Y-104080000D02*
G75*
G02*
X150638000Y-104080000I-1000000J0D01*
G01*
%TO.C,U2*%
X150638000Y-109160000D02*
X149388000Y-109160000D01*
X149388000Y-109160000D02*
X149388000Y-114360000D01*
X149388000Y-114360000D02*
X153888000Y-114360000D01*
X153888000Y-114360000D02*
X153888000Y-109160000D01*
X153888000Y-109160000D02*
X152638000Y-109160000D01*
X152638000Y-109160000D02*
G75*
G02*
X150638000Y-109160000I-1000000J0D01*
G01*
%TO.C,U1*%
X150638000Y-114240000D02*
X149388000Y-114240000D01*
X149388000Y-114240000D02*
X149388000Y-119440000D01*
X149388000Y-119440000D02*
X153888000Y-119440000D01*
X153888000Y-119440000D02*
X153888000Y-114240000D01*
X153888000Y-114240000D02*
X152638000Y-114240000D01*
X152638000Y-114240000D02*
G75*
G02*
X150638000Y-114240000I-1000000J0D01*
G01*
%TO.C,U3*%
X144050000Y-84314000D02*
X144050000Y-74074000D01*
X148691000Y-84314000D02*
X148691000Y-74074000D01*
X144050000Y-84314000D02*
X148691000Y-84314000D01*
X144050000Y-74074000D02*
X148691000Y-74074000D01*
X145560000Y-84314000D02*
X145560000Y-74074000D01*
X144050000Y-81044000D02*
X145560000Y-81044000D01*
X144050000Y-77343000D02*
X145560000Y-77343000D01*
%TO.C,R31*%
X174540000Y-119610000D02*
X174540000Y-119280000D01*
X174540000Y-119280000D02*
X181080000Y-119280000D01*
X181080000Y-119280000D02*
X181080000Y-119610000D01*
X174540000Y-121690000D02*
X174540000Y-122020000D01*
X174540000Y-122020000D02*
X181080000Y-122020000D01*
X181080000Y-122020000D02*
X181080000Y-121690000D01*
%TO.C,R30*%
X162584000Y-118977000D02*
X162914000Y-118977000D01*
X162914000Y-118977000D02*
X162914000Y-125517000D01*
X162914000Y-125517000D02*
X162584000Y-125517000D01*
X160504000Y-118977000D02*
X160174000Y-118977000D01*
X160174000Y-118977000D02*
X160174000Y-125517000D01*
X160174000Y-125517000D02*
X160504000Y-125517000D01*
%TO.C,R29*%
X169450000Y-116562000D02*
X169450000Y-116232000D01*
X169450000Y-116232000D02*
X175990000Y-116232000D01*
X175990000Y-116232000D02*
X175990000Y-116562000D01*
X169450000Y-118642000D02*
X169450000Y-118972000D01*
X169450000Y-118972000D02*
X175990000Y-118972000D01*
X175990000Y-118972000D02*
X175990000Y-118642000D01*
%TO.C,R23*%
X178460000Y-108301000D02*
X178460000Y-108631000D01*
X178460000Y-108631000D02*
X171920000Y-108631000D01*
X171920000Y-108631000D02*
X171920000Y-108301000D01*
X178460000Y-106221000D02*
X178460000Y-105891000D01*
X178460000Y-105891000D02*
X171920000Y-105891000D01*
X171920000Y-105891000D02*
X171920000Y-106221000D01*
%TO.C,R22*%
X175990000Y-115540000D02*
X175990000Y-115870000D01*
X175990000Y-115870000D02*
X169450000Y-115870000D01*
X169450000Y-115870000D02*
X169450000Y-115540000D01*
X175990000Y-113460000D02*
X175990000Y-113130000D01*
X175990000Y-113130000D02*
X169450000Y-113130000D01*
X169450000Y-113130000D02*
X169450000Y-113460000D01*
%TO.C,R21*%
X185960000Y-118642000D02*
X185960000Y-118972000D01*
X185960000Y-118972000D02*
X179420000Y-118972000D01*
X179420000Y-118972000D02*
X179420000Y-118642000D01*
X185960000Y-116562000D02*
X185960000Y-116232000D01*
X185960000Y-116232000D02*
X179420000Y-116232000D01*
X179420000Y-116232000D02*
X179420000Y-116562000D01*
%TO.C,R20*%
X185960000Y-115540000D02*
X185960000Y-115870000D01*
X185960000Y-115870000D02*
X179420000Y-115870000D01*
X179420000Y-115870000D02*
X179420000Y-115540000D01*
X185960000Y-113460000D02*
X185960000Y-113130000D01*
X185960000Y-113130000D02*
X179420000Y-113130000D01*
X179420000Y-113130000D02*
X179420000Y-113460000D01*
%TO.C,R19*%
X192119000Y-108301000D02*
X192119000Y-108631000D01*
X192119000Y-108631000D02*
X185579000Y-108631000D01*
X185579000Y-108631000D02*
X185579000Y-108301000D01*
X192119000Y-106221000D02*
X192119000Y-105891000D01*
X192119000Y-105891000D02*
X185579000Y-105891000D01*
X185579000Y-105891000D02*
X185579000Y-106221000D01*
%TO.C,R17*%
X143740000Y-103092000D02*
X143410000Y-103092000D01*
X143410000Y-103092000D02*
X143410000Y-96552000D01*
X143410000Y-96552000D02*
X143740000Y-96552000D01*
X145820000Y-103092000D02*
X146150000Y-103092000D01*
X146150000Y-103092000D02*
X146150000Y-96552000D01*
X146150000Y-96552000D02*
X145820000Y-96552000D01*
%TO.C,R16*%
X143740000Y-112871000D02*
X143410000Y-112871000D01*
X143410000Y-112871000D02*
X143410000Y-106331000D01*
X143410000Y-106331000D02*
X143740000Y-106331000D01*
X145820000Y-112871000D02*
X146150000Y-112871000D01*
X146150000Y-112871000D02*
X146150000Y-106331000D01*
X146150000Y-106331000D02*
X145820000Y-106331000D01*
%TO.C,R28*%
X164751000Y-119610000D02*
X164751000Y-119280000D01*
X164751000Y-119280000D02*
X171291000Y-119280000D01*
X171291000Y-119280000D02*
X171291000Y-119610000D01*
X164751000Y-121690000D02*
X164751000Y-122020000D01*
X164751000Y-122020000D02*
X171291000Y-122020000D01*
X171291000Y-122020000D02*
X171291000Y-121690000D01*
%TO.C,R11*%
X221512000Y-58548000D02*
X221842000Y-58548000D01*
X221842000Y-58548000D02*
X221842000Y-65088000D01*
X221842000Y-65088000D02*
X221512000Y-65088000D01*
X219432000Y-58548000D02*
X219102000Y-58548000D01*
X219102000Y-58548000D02*
X219102000Y-65088000D01*
X219102000Y-65088000D02*
X219432000Y-65088000D01*
%TO.C,R10*%
X224560000Y-58548000D02*
X224890000Y-58548000D01*
X224890000Y-58548000D02*
X224890000Y-65088000D01*
X224890000Y-65088000D02*
X224560000Y-65088000D01*
X222480000Y-58548000D02*
X222150000Y-58548000D01*
X222150000Y-58548000D02*
X222150000Y-65088000D01*
X222150000Y-65088000D02*
X222480000Y-65088000D01*
%TO.C,R4*%
X209256500Y-89757500D02*
X209586500Y-89757500D01*
X209586500Y-89757500D02*
X209586500Y-96297500D01*
X209586500Y-96297500D02*
X209256500Y-96297500D01*
X207176500Y-89757500D02*
X206846500Y-89757500D01*
X206846500Y-89757500D02*
X206846500Y-96297500D01*
X206846500Y-96297500D02*
X207176500Y-96297500D01*
%TO.C,R3*%
X215876000Y-76914000D02*
X215546000Y-76914000D01*
X215546000Y-76914000D02*
X215546000Y-70374000D01*
X215546000Y-70374000D02*
X215876000Y-70374000D01*
X217956000Y-76914000D02*
X218286000Y-76914000D01*
X218286000Y-76914000D02*
X218286000Y-70374000D01*
X218286000Y-70374000D02*
X217956000Y-70374000D01*
%TO.C,R2*%
X222480000Y-76914000D02*
X222150000Y-76914000D01*
X222150000Y-76914000D02*
X222150000Y-70374000D01*
X222150000Y-70374000D02*
X222480000Y-70374000D01*
X224560000Y-76914000D02*
X224890000Y-76914000D01*
X224890000Y-76914000D02*
X224890000Y-70374000D01*
X224890000Y-70374000D02*
X224560000Y-70374000D01*
%TO.C,R8*%
X121861000Y-110285000D02*
X121861000Y-109955000D01*
X121861000Y-109955000D02*
X128401000Y-109955000D01*
X128401000Y-109955000D02*
X128401000Y-110285000D01*
X121861000Y-112365000D02*
X121861000Y-112695000D01*
X121861000Y-112695000D02*
X128401000Y-112695000D01*
X128401000Y-112695000D02*
X128401000Y-112365000D01*
%TO.C,R14*%
X196056000Y-118642000D02*
X196056000Y-118972000D01*
X196056000Y-118972000D02*
X189516000Y-118972000D01*
X189516000Y-118972000D02*
X189516000Y-118642000D01*
X196056000Y-116562000D02*
X196056000Y-116232000D01*
X196056000Y-116232000D02*
X189516000Y-116232000D01*
X189516000Y-116232000D02*
X189516000Y-116562000D01*
%TO.C,R12*%
X191520000Y-123414000D02*
X191520000Y-123744000D01*
X191520000Y-123744000D02*
X184980000Y-123744000D01*
X184980000Y-123744000D02*
X184980000Y-123414000D01*
X191520000Y-121334000D02*
X191520000Y-121004000D01*
X191520000Y-121004000D02*
X184980000Y-121004000D01*
X184980000Y-121004000D02*
X184980000Y-121334000D01*
%TO.C,R1*%
X219178000Y-76914000D02*
X218848000Y-76914000D01*
X218848000Y-76914000D02*
X218848000Y-70374000D01*
X218848000Y-70374000D02*
X219178000Y-70374000D01*
X221258000Y-76914000D02*
X221588000Y-76914000D01*
X221588000Y-76914000D02*
X221588000Y-70374000D01*
X221588000Y-70374000D02*
X221258000Y-70374000D01*
%TO.C,R25*%
X133418000Y-99363000D02*
X133418000Y-99033000D01*
X133418000Y-99033000D02*
X139958000Y-99033000D01*
X139958000Y-99033000D02*
X139958000Y-99363000D01*
X133418000Y-101443000D02*
X133418000Y-101773000D01*
X133418000Y-101773000D02*
X139958000Y-101773000D01*
X139958000Y-101773000D02*
X139958000Y-101443000D01*
%TO.C,Q2*%
X206580000Y-123536000D02*
X206580000Y-127386000D01*
X207167736Y-127778383D02*
G75*
G02*
X206580000Y-127386000I1112264J2302383D01*
G01*
X209378807Y-127832400D02*
G75*
G03*
X210880000Y-125476000I-1098807J2356400D01*
G01*
X209378807Y-123119600D02*
G75*
G02*
X210880000Y-125476000I-1098807J-2356400D01*
G01*
X207157955Y-123153369D02*
G75*
G03*
X206580000Y-123536000I1122045J-2322631D01*
G01*
%TO.C,K1*%
X213377000Y-130554000D02*
X210977000Y-130554000D01*
X210977000Y-128154000D02*
X210977000Y-130554000D01*
X223877000Y-130354000D02*
X211177000Y-130354000D01*
X223877000Y-101154000D02*
X223877000Y-130354000D01*
X222677000Y-101154000D02*
X223877000Y-101154000D01*
X215177000Y-101154000D02*
X219877000Y-101154000D01*
X211177000Y-101154000D02*
X212377000Y-101154000D01*
X211177000Y-130354000D02*
X211177000Y-101154000D01*
X216317000Y-124714000D02*
X217587000Y-122174000D01*
X220127000Y-123444000D02*
X221397000Y-123444000D01*
X221397000Y-123444000D02*
X221397000Y-124714000D01*
X213777000Y-124714000D02*
X213777000Y-123444000D01*
X213777000Y-123444000D02*
X215047000Y-123444000D01*
X215047000Y-123444000D02*
X215047000Y-122174000D01*
X215047000Y-122174000D02*
X220127000Y-122174000D01*
X220127000Y-122174000D02*
X220127000Y-124714000D01*
X220127000Y-124714000D02*
X215047000Y-124714000D01*
X215047000Y-124714000D02*
X215047000Y-123444000D01*
%TO.C,J9*%
X107491000Y-57063500D02*
X107491000Y-59723500D01*
X107551000Y-57063500D02*
X107491000Y-57063500D01*
X107551000Y-59723500D02*
X107491000Y-59723500D01*
X107551000Y-57063500D02*
X107551000Y-59723500D01*
X108821000Y-57063500D02*
X110151000Y-57063500D01*
X110151000Y-57063500D02*
X110151000Y-58393500D01*
%TO.C,J7*%
X119150000Y-131910000D02*
X119150000Y-123090000D01*
X119150000Y-123090000D02*
X106770000Y-123090000D01*
X106770000Y-123090000D02*
X106770000Y-131910000D01*
X106770000Y-131910000D02*
X119150000Y-131910000D01*
X119150000Y-131100000D02*
X116610000Y-131100000D01*
X106770000Y-131100000D02*
X109310000Y-131100000D01*
X114500000Y-131100000D02*
X111420000Y-131100000D01*
X116500000Y-130100000D02*
X116500000Y-131910000D01*
X116500000Y-131910000D02*
X114500000Y-131910000D01*
X114500000Y-131910000D02*
X114500000Y-130100000D01*
X114500000Y-130100000D02*
X116500000Y-130100000D01*
X111420000Y-130100000D02*
X111420000Y-131910000D01*
X111420000Y-131910000D02*
X109420000Y-131910000D01*
X109420000Y-131910000D02*
X109420000Y-130100000D01*
X109420000Y-130100000D02*
X111420000Y-130100000D01*
X113500000Y-124800000D02*
X112420000Y-124800000D01*
X117500000Y-124800000D02*
X118240000Y-124800000D01*
X118240000Y-124800000D02*
X118240000Y-130100000D01*
X118240000Y-130100000D02*
X107680000Y-130100000D01*
X107680000Y-130100000D02*
X107680000Y-124800000D01*
X107680000Y-124800000D02*
X108420000Y-124800000D01*
X115200000Y-132710000D02*
X115500000Y-132110000D01*
X115500000Y-132110000D02*
X115800000Y-132710000D01*
X115800000Y-132710000D02*
X115200000Y-132710000D01*
X108433159Y-124784179D02*
G75*
G02*
X112420000Y-124800000I1986841J-1665821D01*
G01*
X113513159Y-124784179D02*
G75*
G02*
X117500000Y-124800000I1986841J-1665821D01*
G01*
%TO.C,J5*%
X156150000Y-131910000D02*
X156150000Y-123090000D01*
X156150000Y-123090000D02*
X138690000Y-123090000D01*
X138690000Y-123090000D02*
X138690000Y-131910000D01*
X138690000Y-131910000D02*
X156150000Y-131910000D01*
X156150000Y-131100000D02*
X153610000Y-131100000D01*
X138690000Y-131100000D02*
X141230000Y-131100000D01*
X151500000Y-131100000D02*
X148420000Y-131100000D01*
X146420000Y-131100000D02*
X143340000Y-131100000D01*
X153500000Y-130100000D02*
X153500000Y-131910000D01*
X153500000Y-131910000D02*
X151500000Y-131910000D01*
X151500000Y-131910000D02*
X151500000Y-130100000D01*
X151500000Y-130100000D02*
X153500000Y-130100000D01*
X148420000Y-130100000D02*
X148420000Y-131910000D01*
X148420000Y-131910000D02*
X146420000Y-131910000D01*
X146420000Y-131910000D02*
X146420000Y-130100000D01*
X146420000Y-130100000D02*
X148420000Y-130100000D01*
X143340000Y-130100000D02*
X143340000Y-131910000D01*
X143340000Y-131910000D02*
X141340000Y-131910000D01*
X141340000Y-131910000D02*
X141340000Y-130100000D01*
X141340000Y-130100000D02*
X143340000Y-130100000D01*
X150500000Y-124800000D02*
X149420000Y-124800000D01*
X145420000Y-124800000D02*
X144340000Y-124800000D01*
X154500000Y-124800000D02*
X155240000Y-124800000D01*
X155240000Y-124800000D02*
X155240000Y-130100000D01*
X155240000Y-130100000D02*
X139600000Y-130100000D01*
X139600000Y-130100000D02*
X139600000Y-124800000D01*
X139600000Y-124800000D02*
X140340000Y-124800000D01*
X152200000Y-132710000D02*
X152500000Y-132110000D01*
X152500000Y-132110000D02*
X152800000Y-132710000D01*
X152800000Y-132710000D02*
X152200000Y-132710000D01*
X140353159Y-124784179D02*
G75*
G02*
X144340000Y-124800000I1986841J-1665821D01*
G01*
X145433159Y-124784179D02*
G75*
G02*
X149420000Y-124800000I1986841J-1665821D01*
G01*
X150513159Y-124784179D02*
G75*
G02*
X154500000Y-124800000I1986841J-1665821D01*
G01*
%TO.C,J4*%
X233410000Y-97850000D02*
X224590000Y-97850000D01*
X224590000Y-97850000D02*
X224590000Y-130550000D01*
X224590000Y-130550000D02*
X233410000Y-130550000D01*
X233410000Y-130550000D02*
X233410000Y-97850000D01*
X232600000Y-97850000D02*
X232600000Y-100390000D01*
X232600000Y-130550000D02*
X232600000Y-128010000D01*
X232600000Y-102500000D02*
X232600000Y-105580000D01*
X232600000Y-107580000D02*
X232600000Y-110660000D01*
X232600000Y-112660000D02*
X232600000Y-115740000D01*
X232600000Y-117740000D02*
X232600000Y-120820000D01*
X232600000Y-122820000D02*
X232600000Y-125900000D01*
X231600000Y-100500000D02*
X233410000Y-100500000D01*
X233410000Y-100500000D02*
X233410000Y-102500000D01*
X233410000Y-102500000D02*
X231600000Y-102500000D01*
X231600000Y-102500000D02*
X231600000Y-100500000D01*
X231600000Y-105580000D02*
X233410000Y-105580000D01*
X233410000Y-105580000D02*
X233410000Y-107580000D01*
X233410000Y-107580000D02*
X231600000Y-107580000D01*
X231600000Y-107580000D02*
X231600000Y-105580000D01*
X231600000Y-110660000D02*
X233410000Y-110660000D01*
X233410000Y-110660000D02*
X233410000Y-112660000D01*
X233410000Y-112660000D02*
X231600000Y-112660000D01*
X231600000Y-112660000D02*
X231600000Y-110660000D01*
X231600000Y-115740000D02*
X233410000Y-115740000D01*
X233410000Y-115740000D02*
X233410000Y-117740000D01*
X233410000Y-117740000D02*
X231600000Y-117740000D01*
X231600000Y-117740000D02*
X231600000Y-115740000D01*
X231600000Y-120820000D02*
X233410000Y-120820000D01*
X233410000Y-120820000D02*
X233410000Y-122820000D01*
X233410000Y-122820000D02*
X231600000Y-122820000D01*
X231600000Y-122820000D02*
X231600000Y-120820000D01*
X231600000Y-125900000D02*
X233410000Y-125900000D01*
X233410000Y-125900000D02*
X233410000Y-127900000D01*
X233410000Y-127900000D02*
X231600000Y-127900000D01*
X231600000Y-127900000D02*
X231600000Y-125900000D01*
X226300000Y-103500000D02*
X226300000Y-104580000D01*
X226300000Y-108580000D02*
X226300000Y-109660000D01*
X226300000Y-113660000D02*
X226300000Y-114740000D01*
X226300000Y-118740000D02*
X226300000Y-119820000D01*
X226300000Y-123820000D02*
X226300000Y-124900000D01*
X226300000Y-99500000D02*
X226300000Y-98760000D01*
X226300000Y-98760000D02*
X231600000Y-98760000D01*
X231600000Y-98760000D02*
X231600000Y-129640000D01*
X231600000Y-129640000D02*
X226300000Y-129640000D01*
X226300000Y-129640000D02*
X226300000Y-128900000D01*
X234210000Y-101800000D02*
X233610000Y-101500000D01*
X233610000Y-101500000D02*
X234210000Y-101200000D01*
X234210000Y-101200000D02*
X234210000Y-101800000D01*
X226284179Y-128886841D02*
G75*
G02*
X226300000Y-124900000I1665821J1986841D01*
G01*
X226284179Y-123806841D02*
G75*
G02*
X226300000Y-119820000I1665821J1986841D01*
G01*
X226284179Y-118726841D02*
G75*
G02*
X226300000Y-114740000I1665821J1986841D01*
G01*
X226284179Y-113646841D02*
G75*
G02*
X226300000Y-109660000I1665821J1986841D01*
G01*
X226284179Y-108566841D02*
G75*
G02*
X226300000Y-104580000I1665821J1986841D01*
G01*
X226284179Y-103486841D02*
G75*
G02*
X226300000Y-99500000I1665821J1986841D01*
G01*
%TO.C,J3*%
X222096000Y-52678000D02*
X222096000Y-55338000D01*
X222096000Y-52678000D02*
X214416000Y-52678000D01*
X214416000Y-52678000D02*
X214416000Y-55338000D01*
X222096000Y-55338000D02*
X214416000Y-55338000D01*
X224696000Y-55338000D02*
X223366000Y-55338000D01*
X224696000Y-54008000D02*
X224696000Y-55338000D01*
%TO.C,J1*%
X105650000Y-131910000D02*
X105650000Y-123090000D01*
X105650000Y-123090000D02*
X93270000Y-123090000D01*
X93270000Y-123090000D02*
X93270000Y-131910000D01*
X93270000Y-131910000D02*
X105650000Y-131910000D01*
X105650000Y-131100000D02*
X103110000Y-131100000D01*
X93270000Y-131100000D02*
X95810000Y-131100000D01*
X101000000Y-131100000D02*
X97920000Y-131100000D01*
X103000000Y-130100000D02*
X103000000Y-131910000D01*
X103000000Y-131910000D02*
X101000000Y-131910000D01*
X101000000Y-131910000D02*
X101000000Y-130100000D01*
X101000000Y-130100000D02*
X103000000Y-130100000D01*
X97920000Y-130100000D02*
X97920000Y-131910000D01*
X97920000Y-131910000D02*
X95920000Y-131910000D01*
X95920000Y-131910000D02*
X95920000Y-130100000D01*
X95920000Y-130100000D02*
X97920000Y-130100000D01*
X100000000Y-124800000D02*
X98920000Y-124800000D01*
X104000000Y-124800000D02*
X104740000Y-124800000D01*
X104740000Y-124800000D02*
X104740000Y-130100000D01*
X104740000Y-130100000D02*
X94180000Y-130100000D01*
X94180000Y-130100000D02*
X94180000Y-124800000D01*
X94180000Y-124800000D02*
X94920000Y-124800000D01*
X101700000Y-132710000D02*
X102000000Y-132110000D01*
X102000000Y-132110000D02*
X102300000Y-132710000D01*
X102300000Y-132710000D02*
X101700000Y-132710000D01*
X94933159Y-124784179D02*
G75*
G02*
X98920000Y-124800000I1986841J-1665821D01*
G01*
X100013159Y-124784179D02*
G75*
G02*
X104000000Y-124800000I1986841J-1665821D01*
G01*
%TO.C,J8*%
X107491000Y-60873500D02*
X107491000Y-63533500D01*
X107551000Y-60873500D02*
X107491000Y-60873500D01*
X107551000Y-63533500D02*
X107491000Y-63533500D01*
X107551000Y-60873500D02*
X107551000Y-63533500D01*
X108821000Y-60873500D02*
X110151000Y-60873500D01*
X110151000Y-60873500D02*
X110151000Y-62203500D01*
%TO.C,D6*%
X127851000Y-118942000D02*
X127851000Y-119272000D01*
X127851000Y-119272000D02*
X122411000Y-119272000D01*
X122411000Y-119272000D02*
X122411000Y-118942000D01*
X127851000Y-116662000D02*
X127851000Y-116332000D01*
X127851000Y-116332000D02*
X122411000Y-116332000D01*
X122411000Y-116332000D02*
X122411000Y-116662000D01*
X126951000Y-119272000D02*
X126951000Y-116332000D01*
X126831000Y-119272000D02*
X126831000Y-116332000D01*
X127071000Y-119272000D02*
X127071000Y-116332000D01*
%TO.C,D5*%
X133587000Y-102565000D02*
X133587000Y-102235000D01*
X133587000Y-102235000D02*
X139027000Y-102235000D01*
X139027000Y-102235000D02*
X139027000Y-102565000D01*
X133587000Y-104845000D02*
X133587000Y-105175000D01*
X133587000Y-105175000D02*
X139027000Y-105175000D01*
X139027000Y-105175000D02*
X139027000Y-104845000D01*
X134487000Y-102235000D02*
X134487000Y-105175000D01*
X134607000Y-102235000D02*
X134607000Y-105175000D01*
X134367000Y-102235000D02*
X134367000Y-105175000D01*
%TO.C,D4*%
X153362000Y-88974000D02*
X150422000Y-88974000D01*
X150422000Y-88974000D02*
X150422000Y-94414000D01*
X150422000Y-94414000D02*
X153362000Y-94414000D01*
X153362000Y-94414000D02*
X153362000Y-88974000D01*
X151892000Y-87954000D02*
X151892000Y-88974000D01*
X151892000Y-95434000D02*
X151892000Y-94414000D01*
X153362000Y-89874000D02*
X150422000Y-89874000D01*
X153362000Y-89994000D02*
X150422000Y-89994000D01*
X153362000Y-89754000D02*
X150422000Y-89754000D01*
%TO.C,C1*%
X207130000Y-121720000D02*
X207130000Y-114280000D01*
X209870000Y-121720000D02*
X209870000Y-114280000D01*
X207130000Y-121720000D02*
X209870000Y-121720000D01*
X207130000Y-114280000D02*
X209870000Y-114280000D01*
%TO.C,C7*%
X157126000Y-118568000D02*
X157126000Y-111128000D01*
X159866000Y-118568000D02*
X159866000Y-111128000D01*
X157126000Y-118568000D02*
X159866000Y-118568000D01*
X157126000Y-111128000D02*
X159866000Y-111128000D01*
%TO.C,C2*%
X215800000Y-64450000D02*
X215800000Y-57010000D01*
X218540000Y-64450000D02*
X218540000Y-57010000D01*
X215800000Y-64450000D02*
X218540000Y-64450000D01*
X215800000Y-57010000D02*
X218540000Y-57010000D01*
%TO.C,C8*%
X146150000Y-87045000D02*
X146150000Y-94485000D01*
X143410000Y-87045000D02*
X143410000Y-94485000D01*
X146150000Y-87045000D02*
X143410000Y-87045000D01*
X146150000Y-94485000D02*
X143410000Y-94485000D01*
%TO.C,C6*%
X149452000Y-87045000D02*
X149452000Y-94485000D01*
X146712000Y-87045000D02*
X146712000Y-94485000D01*
X149452000Y-87045000D02*
X146712000Y-87045000D01*
X149452000Y-94485000D02*
X146712000Y-94485000D01*
%TO.C,BpEch1*%
X217982000Y-81840000D02*
X212182000Y-81840000D01*
X218082000Y-88340000D02*
X212082000Y-88340000D01*
X218182000Y-83790000D02*
X218182000Y-86390000D01*
X211982000Y-83790000D02*
X211982000Y-86390000D01*
X209982000Y-81790000D02*
X210982000Y-81790000D01*
X209982000Y-82790000D02*
X209982000Y-81790000D01*
%TO.C,Bp-Ent1*%
X229377000Y-81840000D02*
X223577000Y-81840000D01*
X229477000Y-88340000D02*
X223477000Y-88340000D01*
X229577000Y-83790000D02*
X229577000Y-86390000D01*
X223377000Y-83790000D02*
X223377000Y-86390000D01*
X221377000Y-81790000D02*
X222377000Y-81790000D01*
X221377000Y-82790000D02*
X221377000Y-81790000D01*
%TO.C,Bp-1*%
X217982000Y-88952000D02*
X212182000Y-88952000D01*
X218082000Y-95452000D02*
X212082000Y-95452000D01*
X218182000Y-90902000D02*
X218182000Y-93502000D01*
X211982000Y-90902000D02*
X211982000Y-93502000D01*
X209982000Y-88902000D02*
X210982000Y-88902000D01*
X209982000Y-89902000D02*
X209982000Y-88902000D01*
%TO.C,Bp+1*%
X229377000Y-88898000D02*
X223577000Y-88898000D01*
X229477000Y-95398000D02*
X223477000Y-95398000D01*
X229577000Y-90848000D02*
X229577000Y-93448000D01*
X223377000Y-90848000D02*
X223377000Y-93448000D01*
X221377000Y-88848000D02*
X222377000Y-88848000D01*
X221377000Y-89848000D02*
X221377000Y-88848000D01*
%TO.C,A1*%
X200914000Y-111706000D02*
X203454000Y-111706000D01*
X203454000Y-111706000D02*
X203454000Y-109036000D01*
X200914000Y-109036000D02*
X162684000Y-109036000D01*
X206124000Y-109036000D02*
X203454000Y-109036000D01*
X203454000Y-124406000D02*
X203454000Y-127076000D01*
X203454000Y-124406000D02*
X165354000Y-124406000D01*
X165354000Y-124406000D02*
X165354000Y-127076000D01*
X200914000Y-111706000D02*
X200914000Y-109036000D01*
X200914000Y-111706000D02*
X165354000Y-111706000D01*
X165354000Y-111706000D02*
X165354000Y-109036000D01*
X162684000Y-109036000D02*
X162684000Y-127076000D01*
X162684000Y-127076000D02*
X206124000Y-127076000D01*
X206124000Y-127076000D02*
X206124000Y-109036000D01*
%TO.C,C9*%
D10*
X133981333Y-119175142D02*
X133933714Y-119222761D01*
X133790857Y-119270380D01*
X133695619Y-119270380D01*
X133552761Y-119222761D01*
X133457523Y-119127523D01*
X133409904Y-119032285D01*
X133362285Y-118841809D01*
X133362285Y-118698952D01*
X133409904Y-118508476D01*
X133457523Y-118413238D01*
X133552761Y-118318000D01*
X133695619Y-118270380D01*
X133790857Y-118270380D01*
X133933714Y-118318000D01*
X133981333Y-118365619D01*
X134457523Y-119270380D02*
X134648000Y-119270380D01*
X134743238Y-119222761D01*
X134790857Y-119175142D01*
X134886095Y-119032285D01*
X134933714Y-118841809D01*
X134933714Y-118460857D01*
X134886095Y-118365619D01*
X134838476Y-118318000D01*
X134743238Y-118270380D01*
X134552761Y-118270380D01*
X134457523Y-118318000D01*
X134409904Y-118365619D01*
X134362285Y-118460857D01*
X134362285Y-118698952D01*
X134409904Y-118794190D01*
X134457523Y-118841809D01*
X134552761Y-118889428D01*
X134743238Y-118889428D01*
X134838476Y-118841809D01*
X134886095Y-118794190D01*
X134933714Y-118698952D01*
%TO.C,J11*%
X115812476Y-120810380D02*
X115812476Y-121524666D01*
X115764857Y-121667523D01*
X115669619Y-121762761D01*
X115526761Y-121810380D01*
X115431523Y-121810380D01*
X116812476Y-121810380D02*
X116241047Y-121810380D01*
X116526761Y-121810380D02*
X116526761Y-120810380D01*
X116431523Y-120953238D01*
X116336285Y-121048476D01*
X116241047Y-121096095D01*
X117764857Y-121810380D02*
X117193428Y-121810380D01*
X117479142Y-121810380D02*
X117479142Y-120810380D01*
X117383904Y-120953238D01*
X117288666Y-121048476D01*
X117193428Y-121096095D01*
%TO.C,J2*%
X136227666Y-121826380D02*
X136227666Y-122540666D01*
X136180047Y-122683523D01*
X136084809Y-122778761D01*
X135941952Y-122826380D01*
X135846714Y-122826380D01*
X136656238Y-121921619D02*
X136703857Y-121874000D01*
X136799095Y-121826380D01*
X137037190Y-121826380D01*
X137132428Y-121874000D01*
X137180047Y-121921619D01*
X137227666Y-122016857D01*
X137227666Y-122112095D01*
X137180047Y-122254952D01*
X136608619Y-122826380D01*
X137227666Y-122826380D01*
%TO.C,R27*%
X118138142Y-115968380D02*
X117804809Y-115492190D01*
X117566714Y-115968380D02*
X117566714Y-114968380D01*
X117947666Y-114968380D01*
X118042904Y-115016000D01*
X118090523Y-115063619D01*
X118138142Y-115158857D01*
X118138142Y-115301714D01*
X118090523Y-115396952D01*
X118042904Y-115444571D01*
X117947666Y-115492190D01*
X117566714Y-115492190D01*
X118519095Y-115063619D02*
X118566714Y-115016000D01*
X118661952Y-114968380D01*
X118900047Y-114968380D01*
X118995285Y-115016000D01*
X119042904Y-115063619D01*
X119090523Y-115158857D01*
X119090523Y-115254095D01*
X119042904Y-115396952D01*
X118471476Y-115968380D01*
X119090523Y-115968380D01*
X119423857Y-114968380D02*
X120090523Y-114968380D01*
X119661952Y-115968380D01*
%TO.C,D2*%
X117788904Y-60977380D02*
X117788904Y-59977380D01*
X118027000Y-59977380D01*
X118169857Y-60025000D01*
X118265095Y-60120238D01*
X118312714Y-60215476D01*
X118360333Y-60405952D01*
X118360333Y-60548809D01*
X118312714Y-60739285D01*
X118265095Y-60834523D01*
X118169857Y-60929761D01*
X118027000Y-60977380D01*
X117788904Y-60977380D01*
X118741285Y-60072619D02*
X118788904Y-60025000D01*
X118884142Y-59977380D01*
X119122238Y-59977380D01*
X119217476Y-60025000D01*
X119265095Y-60072619D01*
X119312714Y-60167857D01*
X119312714Y-60263095D01*
X119265095Y-60405952D01*
X118693666Y-60977380D01*
X119312714Y-60977380D01*
X114963095Y-61163380D02*
X114963095Y-60163380D01*
X115534523Y-61163380D02*
X115105952Y-60591952D01*
X115534523Y-60163380D02*
X114963095Y-60734809D01*
%TO.C,R13*%
X162715142Y-130065380D02*
X162381809Y-129589190D01*
X162143714Y-130065380D02*
X162143714Y-129065380D01*
X162524666Y-129065380D01*
X162619904Y-129113000D01*
X162667523Y-129160619D01*
X162715142Y-129255857D01*
X162715142Y-129398714D01*
X162667523Y-129493952D01*
X162619904Y-129541571D01*
X162524666Y-129589190D01*
X162143714Y-129589190D01*
X163667523Y-130065380D02*
X163096095Y-130065380D01*
X163381809Y-130065380D02*
X163381809Y-129065380D01*
X163286571Y-129208238D01*
X163191333Y-129303476D01*
X163096095Y-129351095D01*
X164000857Y-129065380D02*
X164619904Y-129065380D01*
X164286571Y-129446333D01*
X164429428Y-129446333D01*
X164524666Y-129493952D01*
X164572285Y-129541571D01*
X164619904Y-129636809D01*
X164619904Y-129874904D01*
X164572285Y-129970142D01*
X164524666Y-130017761D01*
X164429428Y-130065380D01*
X164143714Y-130065380D01*
X164048476Y-130017761D01*
X164000857Y-129970142D01*
%TO.C,D1*%
X97722904Y-122191380D02*
X97722904Y-121191380D01*
X97961000Y-121191380D01*
X98103857Y-121239000D01*
X98199095Y-121334238D01*
X98246714Y-121429476D01*
X98294333Y-121619952D01*
X98294333Y-121762809D01*
X98246714Y-121953285D01*
X98199095Y-122048523D01*
X98103857Y-122143761D01*
X97961000Y-122191380D01*
X97722904Y-122191380D01*
X99246714Y-122191380D02*
X98675285Y-122191380D01*
X98961000Y-122191380D02*
X98961000Y-121191380D01*
X98865761Y-121334238D01*
X98770523Y-121429476D01*
X98675285Y-121477095D01*
X100586695Y-116365580D02*
X100586695Y-115365580D01*
X101158123Y-116365580D02*
X100729552Y-115794152D01*
X101158123Y-115365580D02*
X100586695Y-115937009D01*
%TO.C,Q1*%
X203140761Y-120000619D02*
X203045523Y-119953000D01*
X202950285Y-119857761D01*
X202807428Y-119714904D01*
X202712190Y-119667285D01*
X202616952Y-119667285D01*
X202664571Y-119905380D02*
X202569333Y-119857761D01*
X202474095Y-119762523D01*
X202426476Y-119572047D01*
X202426476Y-119238714D01*
X202474095Y-119048238D01*
X202569333Y-118953000D01*
X202664571Y-118905380D01*
X202855047Y-118905380D01*
X202950285Y-118953000D01*
X203045523Y-119048238D01*
X203093142Y-119238714D01*
X203093142Y-119572047D01*
X203045523Y-119762523D01*
X202950285Y-119857761D01*
X202855047Y-119905380D01*
X202664571Y-119905380D01*
X204045523Y-119905380D02*
X203474095Y-119905380D01*
X203759809Y-119905380D02*
X203759809Y-118905380D01*
X203664571Y-119048238D01*
X203569333Y-119143476D01*
X203474095Y-119191095D01*
%TO.C,R7*%
X191258333Y-112920380D02*
X190925000Y-112444190D01*
X190686904Y-112920380D02*
X190686904Y-111920380D01*
X191067857Y-111920380D01*
X191163095Y-111968000D01*
X191210714Y-112015619D01*
X191258333Y-112110857D01*
X191258333Y-112253714D01*
X191210714Y-112348952D01*
X191163095Y-112396571D01*
X191067857Y-112444190D01*
X190686904Y-112444190D01*
X191591666Y-111920380D02*
X192258333Y-111920380D01*
X191829761Y-112920380D01*
%TO.C,R6*%
X193798333Y-130319380D02*
X193465000Y-129843190D01*
X193226904Y-130319380D02*
X193226904Y-129319380D01*
X193607857Y-129319380D01*
X193703095Y-129367000D01*
X193750714Y-129414619D01*
X193798333Y-129509857D01*
X193798333Y-129652714D01*
X193750714Y-129747952D01*
X193703095Y-129795571D01*
X193607857Y-129843190D01*
X193226904Y-129843190D01*
X194655476Y-129319380D02*
X194465000Y-129319380D01*
X194369761Y-129367000D01*
X194322142Y-129414619D01*
X194226904Y-129557476D01*
X194179285Y-129747952D01*
X194179285Y-130128904D01*
X194226904Y-130224142D01*
X194274523Y-130271761D01*
X194369761Y-130319380D01*
X194560238Y-130319380D01*
X194655476Y-130271761D01*
X194703095Y-130224142D01*
X194750714Y-130128904D01*
X194750714Y-129890809D01*
X194703095Y-129795571D01*
X194655476Y-129747952D01*
X194560238Y-129700333D01*
X194369761Y-129700333D01*
X194274523Y-129747952D01*
X194226904Y-129795571D01*
X194179285Y-129890809D01*
%TO.C,R5*%
X171827333Y-130319380D02*
X171494000Y-129843190D01*
X171255904Y-130319380D02*
X171255904Y-129319380D01*
X171636857Y-129319380D01*
X171732095Y-129367000D01*
X171779714Y-129414619D01*
X171827333Y-129509857D01*
X171827333Y-129652714D01*
X171779714Y-129747952D01*
X171732095Y-129795571D01*
X171636857Y-129843190D01*
X171255904Y-129843190D01*
X172732095Y-129319380D02*
X172255904Y-129319380D01*
X172208285Y-129795571D01*
X172255904Y-129747952D01*
X172351142Y-129700333D01*
X172589238Y-129700333D01*
X172684476Y-129747952D01*
X172732095Y-129795571D01*
X172779714Y-129890809D01*
X172779714Y-130128904D01*
X172732095Y-130224142D01*
X172684476Y-130271761D01*
X172589238Y-130319380D01*
X172351142Y-130319380D01*
X172255904Y-130271761D01*
X172208285Y-130224142D01*
%TO.C,F1*%
X120225666Y-59564571D02*
X119892333Y-59564571D01*
X119892333Y-60088380D02*
X119892333Y-59088380D01*
X120368523Y-59088380D01*
X121273285Y-60088380D02*
X120701857Y-60088380D01*
X120987571Y-60088380D02*
X120987571Y-59088380D01*
X120892333Y-59231238D01*
X120797095Y-59326476D01*
X120701857Y-59374095D01*
%TO.C,Q3*%
X105223761Y-53071619D02*
X105128523Y-53024000D01*
X105033285Y-52928761D01*
X104890428Y-52785904D01*
X104795190Y-52738285D01*
X104699952Y-52738285D01*
X104747571Y-52976380D02*
X104652333Y-52928761D01*
X104557095Y-52833523D01*
X104509476Y-52643047D01*
X104509476Y-52309714D01*
X104557095Y-52119238D01*
X104652333Y-52024000D01*
X104747571Y-51976380D01*
X104938047Y-51976380D01*
X105033285Y-52024000D01*
X105128523Y-52119238D01*
X105176142Y-52309714D01*
X105176142Y-52643047D01*
X105128523Y-52833523D01*
X105033285Y-52928761D01*
X104938047Y-52976380D01*
X104747571Y-52976380D01*
X105509476Y-51976380D02*
X106128523Y-51976380D01*
X105795190Y-52357333D01*
X105938047Y-52357333D01*
X106033285Y-52404952D01*
X106080904Y-52452571D01*
X106128523Y-52547809D01*
X106128523Y-52785904D01*
X106080904Y-52881142D01*
X106033285Y-52928761D01*
X105938047Y-52976380D01*
X105652333Y-52976380D01*
X105557095Y-52928761D01*
X105509476Y-52881142D01*
%TO.C,J6*%
X148546666Y-68740380D02*
X148546666Y-69454666D01*
X148499047Y-69597523D01*
X148403809Y-69692761D01*
X148260952Y-69740380D01*
X148165714Y-69740380D01*
X149451428Y-68740380D02*
X149260952Y-68740380D01*
X149165714Y-68788000D01*
X149118095Y-68835619D01*
X149022857Y-68978476D01*
X148975238Y-69168952D01*
X148975238Y-69549904D01*
X149022857Y-69645142D01*
X149070476Y-69692761D01*
X149165714Y-69740380D01*
X149356190Y-69740380D01*
X149451428Y-69692761D01*
X149499047Y-69645142D01*
X149546666Y-69549904D01*
X149546666Y-69311809D01*
X149499047Y-69216571D01*
X149451428Y-69168952D01*
X149356190Y-69121333D01*
X149165714Y-69121333D01*
X149070476Y-69168952D01*
X149022857Y-69216571D01*
X148975238Y-69311809D01*
%TO.C,J10*%
X96508476Y-59469380D02*
X96508476Y-60183666D01*
X96460857Y-60326523D01*
X96365619Y-60421761D01*
X96222761Y-60469380D01*
X96127523Y-60469380D01*
X97508476Y-60469380D02*
X96937047Y-60469380D01*
X97222761Y-60469380D02*
X97222761Y-59469380D01*
X97127523Y-59612238D01*
X97032285Y-59707476D01*
X96937047Y-59755095D01*
X98127523Y-59469380D02*
X98222761Y-59469380D01*
X98318000Y-59517000D01*
X98365619Y-59564619D01*
X98413238Y-59659857D01*
X98460857Y-59850333D01*
X98460857Y-60088428D01*
X98413238Y-60278904D01*
X98365619Y-60374142D01*
X98318000Y-60421761D01*
X98222761Y-60469380D01*
X98127523Y-60469380D01*
X98032285Y-60421761D01*
X97984666Y-60374142D01*
X97937047Y-60278904D01*
X97889428Y-60088428D01*
X97889428Y-59850333D01*
X97937047Y-59659857D01*
X97984666Y-59564619D01*
X98032285Y-59517000D01*
X98127523Y-59469380D01*
%TO.C,BZ1*%
X94151047Y-63374571D02*
X94293904Y-63422190D01*
X94341523Y-63469809D01*
X94389142Y-63565047D01*
X94389142Y-63707904D01*
X94341523Y-63803142D01*
X94293904Y-63850761D01*
X94198666Y-63898380D01*
X93817714Y-63898380D01*
X93817714Y-62898380D01*
X94151047Y-62898380D01*
X94246285Y-62946000D01*
X94293904Y-62993619D01*
X94341523Y-63088857D01*
X94341523Y-63184095D01*
X94293904Y-63279333D01*
X94246285Y-63326952D01*
X94151047Y-63374571D01*
X93817714Y-63374571D01*
X94722476Y-62898380D02*
X95389142Y-62898380D01*
X94722476Y-63898380D01*
X95389142Y-63898380D01*
X96293904Y-63898380D02*
X95722476Y-63898380D01*
X96008190Y-63898380D02*
X96008190Y-62898380D01*
X95912952Y-63041238D01*
X95817714Y-63136476D01*
X95722476Y-63184095D01*
X93127047Y-54627428D02*
X93888952Y-54627428D01*
X93508000Y-55008380D02*
X93508000Y-54246476D01*
%TO.C,C5*%
X118868333Y-120699142D02*
X118820714Y-120746761D01*
X118677857Y-120794380D01*
X118582619Y-120794380D01*
X118439761Y-120746761D01*
X118344523Y-120651523D01*
X118296904Y-120556285D01*
X118249285Y-120365809D01*
X118249285Y-120222952D01*
X118296904Y-120032476D01*
X118344523Y-119937238D01*
X118439761Y-119842000D01*
X118582619Y-119794380D01*
X118677857Y-119794380D01*
X118820714Y-119842000D01*
X118868333Y-119889619D01*
X119773095Y-119794380D02*
X119296904Y-119794380D01*
X119249285Y-120270571D01*
X119296904Y-120222952D01*
X119392142Y-120175333D01*
X119630238Y-120175333D01*
X119725476Y-120222952D01*
X119773095Y-120270571D01*
X119820714Y-120365809D01*
X119820714Y-120603904D01*
X119773095Y-120699142D01*
X119725476Y-120746761D01*
X119630238Y-120794380D01*
X119392142Y-120794380D01*
X119296904Y-120746761D01*
X119249285Y-120699142D01*
%TO.C,C3*%
X151253333Y-121080142D02*
X151205714Y-121127761D01*
X151062857Y-121175380D01*
X150967619Y-121175380D01*
X150824761Y-121127761D01*
X150729523Y-121032523D01*
X150681904Y-120937285D01*
X150634285Y-120746809D01*
X150634285Y-120603952D01*
X150681904Y-120413476D01*
X150729523Y-120318238D01*
X150824761Y-120223000D01*
X150967619Y-120175380D01*
X151062857Y-120175380D01*
X151205714Y-120223000D01*
X151253333Y-120270619D01*
X151586666Y-120175380D02*
X152205714Y-120175380D01*
X151872380Y-120556333D01*
X152015238Y-120556333D01*
X152110476Y-120603952D01*
X152158095Y-120651571D01*
X152205714Y-120746809D01*
X152205714Y-120984904D01*
X152158095Y-121080142D01*
X152110476Y-121127761D01*
X152015238Y-121175380D01*
X151729523Y-121175380D01*
X151634285Y-121127761D01*
X151586666Y-121080142D01*
%TO.C,R15*%
X157599142Y-121429380D02*
X157265809Y-120953190D01*
X157027714Y-121429380D02*
X157027714Y-120429380D01*
X157408666Y-120429380D01*
X157503904Y-120477000D01*
X157551523Y-120524619D01*
X157599142Y-120619857D01*
X157599142Y-120762714D01*
X157551523Y-120857952D01*
X157503904Y-120905571D01*
X157408666Y-120953190D01*
X157027714Y-120953190D01*
X158551523Y-121429380D02*
X157980095Y-121429380D01*
X158265809Y-121429380D02*
X158265809Y-120429380D01*
X158170571Y-120572238D01*
X158075333Y-120667476D01*
X157980095Y-120715095D01*
X159456285Y-120429380D02*
X158980095Y-120429380D01*
X158932476Y-120905571D01*
X158980095Y-120857952D01*
X159075333Y-120810333D01*
X159313428Y-120810333D01*
X159408666Y-120857952D01*
X159456285Y-120905571D01*
X159503904Y-121000809D01*
X159503904Y-121238904D01*
X159456285Y-121334142D01*
X159408666Y-121381761D01*
X159313428Y-121429380D01*
X159075333Y-121429380D01*
X158980095Y-121381761D01*
X158932476Y-121334142D01*
%TO.C,C4*%
X136394333Y-117270142D02*
X136346714Y-117317761D01*
X136203857Y-117365380D01*
X136108619Y-117365380D01*
X135965761Y-117317761D01*
X135870523Y-117222523D01*
X135822904Y-117127285D01*
X135775285Y-116936809D01*
X135775285Y-116793952D01*
X135822904Y-116603476D01*
X135870523Y-116508238D01*
X135965761Y-116413000D01*
X136108619Y-116365380D01*
X136203857Y-116365380D01*
X136346714Y-116413000D01*
X136394333Y-116460619D01*
X137251476Y-116698714D02*
X137251476Y-117365380D01*
X137013380Y-116317761D02*
X136775285Y-117032047D01*
X137394333Y-117032047D01*
%TO.C,R9*%
X136394333Y-119397380D02*
X136061000Y-118921190D01*
X135822904Y-119397380D02*
X135822904Y-118397380D01*
X136203857Y-118397380D01*
X136299095Y-118445000D01*
X136346714Y-118492619D01*
X136394333Y-118587857D01*
X136394333Y-118730714D01*
X136346714Y-118825952D01*
X136299095Y-118873571D01*
X136203857Y-118921190D01*
X135822904Y-118921190D01*
X136870523Y-119397380D02*
X137061000Y-119397380D01*
X137156238Y-119349761D01*
X137203857Y-119302142D01*
X137299095Y-119159285D01*
X137346714Y-118968809D01*
X137346714Y-118587857D01*
X137299095Y-118492619D01*
X137251476Y-118445000D01*
X137156238Y-118397380D01*
X136965761Y-118397380D01*
X136870523Y-118445000D01*
X136822904Y-118492619D01*
X136775285Y-118587857D01*
X136775285Y-118825952D01*
X136822904Y-118921190D01*
X136870523Y-118968809D01*
X136965761Y-119016428D01*
X137156238Y-119016428D01*
X137251476Y-118968809D01*
X137299095Y-118921190D01*
X137346714Y-118825952D01*
%TO.C,D3*%
X207831904Y-106697380D02*
X207831904Y-105697380D01*
X208070000Y-105697380D01*
X208212857Y-105745000D01*
X208308095Y-105840238D01*
X208355714Y-105935476D01*
X208403333Y-106125952D01*
X208403333Y-106268809D01*
X208355714Y-106459285D01*
X208308095Y-106554523D01*
X208212857Y-106649761D01*
X208070000Y-106697380D01*
X207831904Y-106697380D01*
X208736666Y-105697380D02*
X209355714Y-105697380D01*
X209022380Y-106078333D01*
X209165238Y-106078333D01*
X209260476Y-106125952D01*
X209308095Y-106173571D01*
X209355714Y-106268809D01*
X209355714Y-106506904D01*
X209308095Y-106602142D01*
X209260476Y-106649761D01*
X209165238Y-106697380D01*
X208879523Y-106697380D01*
X208784285Y-106649761D01*
X208736666Y-106602142D01*
X206113095Y-107767380D02*
X206113095Y-106767380D01*
X206684523Y-107767380D02*
X206255952Y-107195952D01*
X206684523Y-106767380D02*
X206113095Y-107338809D01*
%TO.C,U5*%
X157099095Y-102703380D02*
X157099095Y-103512904D01*
X157146714Y-103608142D01*
X157194333Y-103655761D01*
X157289571Y-103703380D01*
X157480047Y-103703380D01*
X157575285Y-103655761D01*
X157622904Y-103608142D01*
X157670523Y-103512904D01*
X157670523Y-102703380D01*
X158622904Y-102703380D02*
X158146714Y-102703380D01*
X158099095Y-103179571D01*
X158146714Y-103131952D01*
X158241952Y-103084333D01*
X158480047Y-103084333D01*
X158575285Y-103131952D01*
X158622904Y-103179571D01*
X158670523Y-103274809D01*
X158670523Y-103512904D01*
X158622904Y-103608142D01*
X158575285Y-103655761D01*
X158480047Y-103703380D01*
X158241952Y-103703380D01*
X158146714Y-103655761D01*
X158099095Y-103608142D01*
%TO.C,U4*%
X157226095Y-106640380D02*
X157226095Y-107449904D01*
X157273714Y-107545142D01*
X157321333Y-107592761D01*
X157416571Y-107640380D01*
X157607047Y-107640380D01*
X157702285Y-107592761D01*
X157749904Y-107545142D01*
X157797523Y-107449904D01*
X157797523Y-106640380D01*
X158702285Y-106973714D02*
X158702285Y-107640380D01*
X158464190Y-106592761D02*
X158226095Y-107307047D01*
X158845142Y-107307047D01*
%TO.C,U2*%
X157226095Y-109688380D02*
X157226095Y-110497904D01*
X157273714Y-110593142D01*
X157321333Y-110640761D01*
X157416571Y-110688380D01*
X157607047Y-110688380D01*
X157702285Y-110640761D01*
X157749904Y-110593142D01*
X157797523Y-110497904D01*
X157797523Y-109688380D01*
X158226095Y-109783619D02*
X158273714Y-109736000D01*
X158368952Y-109688380D01*
X158607047Y-109688380D01*
X158702285Y-109736000D01*
X158749904Y-109783619D01*
X158797523Y-109878857D01*
X158797523Y-109974095D01*
X158749904Y-110116952D01*
X158178476Y-110688380D01*
X158797523Y-110688380D01*
%TO.C,U1*%
X157099095Y-118959380D02*
X157099095Y-119768904D01*
X157146714Y-119864142D01*
X157194333Y-119911761D01*
X157289571Y-119959380D01*
X157480047Y-119959380D01*
X157575285Y-119911761D01*
X157622904Y-119864142D01*
X157670523Y-119768904D01*
X157670523Y-118959380D01*
X158670523Y-119959380D02*
X158099095Y-119959380D01*
X158384809Y-119959380D02*
X158384809Y-118959380D01*
X158289571Y-119102238D01*
X158194333Y-119197476D01*
X158099095Y-119245095D01*
%TO.C,U3*%
X149134095Y-83345380D02*
X149134095Y-84154904D01*
X149181714Y-84250142D01*
X149229333Y-84297761D01*
X149324571Y-84345380D01*
X149515047Y-84345380D01*
X149610285Y-84297761D01*
X149657904Y-84250142D01*
X149705523Y-84154904D01*
X149705523Y-83345380D01*
X150086476Y-83345380D02*
X150705523Y-83345380D01*
X150372190Y-83726333D01*
X150515047Y-83726333D01*
X150610285Y-83773952D01*
X150657904Y-83821571D01*
X150705523Y-83916809D01*
X150705523Y-84154904D01*
X150657904Y-84250142D01*
X150610285Y-84297761D01*
X150515047Y-84345380D01*
X150229333Y-84345380D01*
X150134095Y-84297761D01*
X150086476Y-84250142D01*
%TO.C,R31*%
X175125142Y-123261380D02*
X174791809Y-122785190D01*
X174553714Y-123261380D02*
X174553714Y-122261380D01*
X174934666Y-122261380D01*
X175029904Y-122309000D01*
X175077523Y-122356619D01*
X175125142Y-122451857D01*
X175125142Y-122594714D01*
X175077523Y-122689952D01*
X175029904Y-122737571D01*
X174934666Y-122785190D01*
X174553714Y-122785190D01*
X175458476Y-122261380D02*
X176077523Y-122261380D01*
X175744190Y-122642333D01*
X175887047Y-122642333D01*
X175982285Y-122689952D01*
X176029904Y-122737571D01*
X176077523Y-122832809D01*
X176077523Y-123070904D01*
X176029904Y-123166142D01*
X175982285Y-123213761D01*
X175887047Y-123261380D01*
X175601333Y-123261380D01*
X175506095Y-123213761D01*
X175458476Y-123166142D01*
X177029904Y-123261380D02*
X176458476Y-123261380D01*
X176744190Y-123261380D02*
X176744190Y-122261380D01*
X176648952Y-122404238D01*
X176553714Y-122499476D01*
X176458476Y-122547095D01*
%TO.C,R30*%
X160683142Y-117492380D02*
X160349809Y-117016190D01*
X160111714Y-117492380D02*
X160111714Y-116492380D01*
X160492666Y-116492380D01*
X160587904Y-116540000D01*
X160635523Y-116587619D01*
X160683142Y-116682857D01*
X160683142Y-116825714D01*
X160635523Y-116920952D01*
X160587904Y-116968571D01*
X160492666Y-117016190D01*
X160111714Y-117016190D01*
X161016476Y-116492380D02*
X161635523Y-116492380D01*
X161302190Y-116873333D01*
X161445047Y-116873333D01*
X161540285Y-116920952D01*
X161587904Y-116968571D01*
X161635523Y-117063809D01*
X161635523Y-117301904D01*
X161587904Y-117397142D01*
X161540285Y-117444761D01*
X161445047Y-117492380D01*
X161159333Y-117492380D01*
X161064095Y-117444761D01*
X161016476Y-117397142D01*
X162254571Y-116492380D02*
X162349809Y-116492380D01*
X162445047Y-116540000D01*
X162492666Y-116587619D01*
X162540285Y-116682857D01*
X162587904Y-116873333D01*
X162587904Y-117111428D01*
X162540285Y-117301904D01*
X162492666Y-117397142D01*
X162445047Y-117444761D01*
X162349809Y-117492380D01*
X162254571Y-117492380D01*
X162159333Y-117444761D01*
X162111714Y-117397142D01*
X162064095Y-117301904D01*
X162016476Y-117111428D01*
X162016476Y-116873333D01*
X162064095Y-116682857D01*
X162111714Y-116587619D01*
X162159333Y-116540000D01*
X162254571Y-116492380D01*
%TO.C,R29*%
X165854142Y-117165380D02*
X165520809Y-116689190D01*
X165282714Y-117165380D02*
X165282714Y-116165380D01*
X165663666Y-116165380D01*
X165758904Y-116213000D01*
X165806523Y-116260619D01*
X165854142Y-116355857D01*
X165854142Y-116498714D01*
X165806523Y-116593952D01*
X165758904Y-116641571D01*
X165663666Y-116689190D01*
X165282714Y-116689190D01*
X166235095Y-116260619D02*
X166282714Y-116213000D01*
X166377952Y-116165380D01*
X166616047Y-116165380D01*
X166711285Y-116213000D01*
X166758904Y-116260619D01*
X166806523Y-116355857D01*
X166806523Y-116451095D01*
X166758904Y-116593952D01*
X166187476Y-117165380D01*
X166806523Y-117165380D01*
X167282714Y-117165380D02*
X167473190Y-117165380D01*
X167568428Y-117117761D01*
X167616047Y-117070142D01*
X167711285Y-116927285D01*
X167758904Y-116736809D01*
X167758904Y-116355857D01*
X167711285Y-116260619D01*
X167663666Y-116213000D01*
X167568428Y-116165380D01*
X167377952Y-116165380D01*
X167282714Y-116213000D01*
X167235095Y-116260619D01*
X167187476Y-116355857D01*
X167187476Y-116593952D01*
X167235095Y-116689190D01*
X167282714Y-116736809D01*
X167377952Y-116784428D01*
X167568428Y-116784428D01*
X167663666Y-116736809D01*
X167711285Y-116689190D01*
X167758904Y-116593952D01*
%TO.C,R23*%
X180713142Y-108417380D02*
X180379809Y-107941190D01*
X180141714Y-108417380D02*
X180141714Y-107417380D01*
X180522666Y-107417380D01*
X180617904Y-107465000D01*
X180665523Y-107512619D01*
X180713142Y-107607857D01*
X180713142Y-107750714D01*
X180665523Y-107845952D01*
X180617904Y-107893571D01*
X180522666Y-107941190D01*
X180141714Y-107941190D01*
X181094095Y-107512619D02*
X181141714Y-107465000D01*
X181236952Y-107417380D01*
X181475047Y-107417380D01*
X181570285Y-107465000D01*
X181617904Y-107512619D01*
X181665523Y-107607857D01*
X181665523Y-107703095D01*
X181617904Y-107845952D01*
X181046476Y-108417380D01*
X181665523Y-108417380D01*
X181998857Y-107417380D02*
X182617904Y-107417380D01*
X182284571Y-107798333D01*
X182427428Y-107798333D01*
X182522666Y-107845952D01*
X182570285Y-107893571D01*
X182617904Y-107988809D01*
X182617904Y-108226904D01*
X182570285Y-108322142D01*
X182522666Y-108369761D01*
X182427428Y-108417380D01*
X182141714Y-108417380D01*
X182046476Y-108369761D01*
X181998857Y-108322142D01*
%TO.C,R22*%
X165763142Y-114371380D02*
X165429809Y-113895190D01*
X165191714Y-114371380D02*
X165191714Y-113371380D01*
X165572666Y-113371380D01*
X165667904Y-113419000D01*
X165715523Y-113466619D01*
X165763142Y-113561857D01*
X165763142Y-113704714D01*
X165715523Y-113799952D01*
X165667904Y-113847571D01*
X165572666Y-113895190D01*
X165191714Y-113895190D01*
X166144095Y-113466619D02*
X166191714Y-113419000D01*
X166286952Y-113371380D01*
X166525047Y-113371380D01*
X166620285Y-113419000D01*
X166667904Y-113466619D01*
X166715523Y-113561857D01*
X166715523Y-113657095D01*
X166667904Y-113799952D01*
X166096476Y-114371380D01*
X166715523Y-114371380D01*
X167096476Y-113466619D02*
X167144095Y-113419000D01*
X167239333Y-113371380D01*
X167477428Y-113371380D01*
X167572666Y-113419000D01*
X167620285Y-113466619D01*
X167667904Y-113561857D01*
X167667904Y-113657095D01*
X167620285Y-113799952D01*
X167048857Y-114371380D01*
X167667904Y-114371380D01*
%TO.C,R21*%
X183797142Y-120286380D02*
X183463809Y-119810190D01*
X183225714Y-120286380D02*
X183225714Y-119286380D01*
X183606666Y-119286380D01*
X183701904Y-119334000D01*
X183749523Y-119381619D01*
X183797142Y-119476857D01*
X183797142Y-119619714D01*
X183749523Y-119714952D01*
X183701904Y-119762571D01*
X183606666Y-119810190D01*
X183225714Y-119810190D01*
X184178095Y-119381619D02*
X184225714Y-119334000D01*
X184320952Y-119286380D01*
X184559047Y-119286380D01*
X184654285Y-119334000D01*
X184701904Y-119381619D01*
X184749523Y-119476857D01*
X184749523Y-119572095D01*
X184701904Y-119714952D01*
X184130476Y-120286380D01*
X184749523Y-120286380D01*
X185701904Y-120286380D02*
X185130476Y-120286380D01*
X185416190Y-120286380D02*
X185416190Y-119286380D01*
X185320952Y-119429238D01*
X185225714Y-119524476D01*
X185130476Y-119572095D01*
%TO.C,R20*%
X185956142Y-113047380D02*
X185622809Y-112571190D01*
X185384714Y-113047380D02*
X185384714Y-112047380D01*
X185765666Y-112047380D01*
X185860904Y-112095000D01*
X185908523Y-112142619D01*
X185956142Y-112237857D01*
X185956142Y-112380714D01*
X185908523Y-112475952D01*
X185860904Y-112523571D01*
X185765666Y-112571190D01*
X185384714Y-112571190D01*
X186337095Y-112142619D02*
X186384714Y-112095000D01*
X186479952Y-112047380D01*
X186718047Y-112047380D01*
X186813285Y-112095000D01*
X186860904Y-112142619D01*
X186908523Y-112237857D01*
X186908523Y-112333095D01*
X186860904Y-112475952D01*
X186289476Y-113047380D01*
X186908523Y-113047380D01*
X187527571Y-112047380D02*
X187622809Y-112047380D01*
X187718047Y-112095000D01*
X187765666Y-112142619D01*
X187813285Y-112237857D01*
X187860904Y-112428333D01*
X187860904Y-112666428D01*
X187813285Y-112856904D01*
X187765666Y-112952142D01*
X187718047Y-112999761D01*
X187622809Y-113047380D01*
X187527571Y-113047380D01*
X187432333Y-112999761D01*
X187384714Y-112952142D01*
X187337095Y-112856904D01*
X187289476Y-112666428D01*
X187289476Y-112428333D01*
X187337095Y-112237857D01*
X187384714Y-112142619D01*
X187432333Y-112095000D01*
X187527571Y-112047380D01*
%TO.C,R19*%
X194556142Y-108602380D02*
X194222809Y-108126190D01*
X193984714Y-108602380D02*
X193984714Y-107602380D01*
X194365666Y-107602380D01*
X194460904Y-107650000D01*
X194508523Y-107697619D01*
X194556142Y-107792857D01*
X194556142Y-107935714D01*
X194508523Y-108030952D01*
X194460904Y-108078571D01*
X194365666Y-108126190D01*
X193984714Y-108126190D01*
X195508523Y-108602380D02*
X194937095Y-108602380D01*
X195222809Y-108602380D02*
X195222809Y-107602380D01*
X195127571Y-107745238D01*
X195032333Y-107840476D01*
X194937095Y-107888095D01*
X195984714Y-108602380D02*
X196175190Y-108602380D01*
X196270428Y-108554761D01*
X196318047Y-108507142D01*
X196413285Y-108364285D01*
X196460904Y-108173809D01*
X196460904Y-107792857D01*
X196413285Y-107697619D01*
X196365666Y-107650000D01*
X196270428Y-107602380D01*
X196079952Y-107602380D01*
X195984714Y-107650000D01*
X195937095Y-107697619D01*
X195889476Y-107792857D01*
X195889476Y-108030952D01*
X195937095Y-108126190D01*
X195984714Y-108173809D01*
X196079952Y-108221428D01*
X196270428Y-108221428D01*
X196365666Y-108173809D01*
X196413285Y-108126190D01*
X196460904Y-108030952D01*
%TO.C,R17*%
X146931142Y-96972380D02*
X146597809Y-96496190D01*
X146359714Y-96972380D02*
X146359714Y-95972380D01*
X146740666Y-95972380D01*
X146835904Y-96020000D01*
X146883523Y-96067619D01*
X146931142Y-96162857D01*
X146931142Y-96305714D01*
X146883523Y-96400952D01*
X146835904Y-96448571D01*
X146740666Y-96496190D01*
X146359714Y-96496190D01*
X147883523Y-96972380D02*
X147312095Y-96972380D01*
X147597809Y-96972380D02*
X147597809Y-95972380D01*
X147502571Y-96115238D01*
X147407333Y-96210476D01*
X147312095Y-96258095D01*
X148216857Y-95972380D02*
X148883523Y-95972380D01*
X148454952Y-96972380D01*
%TO.C,R16*%
X143756142Y-115641380D02*
X143422809Y-115165190D01*
X143184714Y-115641380D02*
X143184714Y-114641380D01*
X143565666Y-114641380D01*
X143660904Y-114689000D01*
X143708523Y-114736619D01*
X143756142Y-114831857D01*
X143756142Y-114974714D01*
X143708523Y-115069952D01*
X143660904Y-115117571D01*
X143565666Y-115165190D01*
X143184714Y-115165190D01*
X144708523Y-115641380D02*
X144137095Y-115641380D01*
X144422809Y-115641380D02*
X144422809Y-114641380D01*
X144327571Y-114784238D01*
X144232333Y-114879476D01*
X144137095Y-114927095D01*
X145565666Y-114641380D02*
X145375190Y-114641380D01*
X145279952Y-114689000D01*
X145232333Y-114736619D01*
X145137095Y-114879476D01*
X145089476Y-115069952D01*
X145089476Y-115450904D01*
X145137095Y-115546142D01*
X145184714Y-115593761D01*
X145279952Y-115641380D01*
X145470428Y-115641380D01*
X145565666Y-115593761D01*
X145613285Y-115546142D01*
X145660904Y-115450904D01*
X145660904Y-115212809D01*
X145613285Y-115117571D01*
X145565666Y-115069952D01*
X145470428Y-115022333D01*
X145279952Y-115022333D01*
X145184714Y-115069952D01*
X145137095Y-115117571D01*
X145089476Y-115212809D01*
%TO.C,R28*%
X167033142Y-123334380D02*
X166699809Y-122858190D01*
X166461714Y-123334380D02*
X166461714Y-122334380D01*
X166842666Y-122334380D01*
X166937904Y-122382000D01*
X166985523Y-122429619D01*
X167033142Y-122524857D01*
X167033142Y-122667714D01*
X166985523Y-122762952D01*
X166937904Y-122810571D01*
X166842666Y-122858190D01*
X166461714Y-122858190D01*
X167414095Y-122429619D02*
X167461714Y-122382000D01*
X167556952Y-122334380D01*
X167795047Y-122334380D01*
X167890285Y-122382000D01*
X167937904Y-122429619D01*
X167985523Y-122524857D01*
X167985523Y-122620095D01*
X167937904Y-122762952D01*
X167366476Y-123334380D01*
X167985523Y-123334380D01*
X168556952Y-122762952D02*
X168461714Y-122715333D01*
X168414095Y-122667714D01*
X168366476Y-122572476D01*
X168366476Y-122524857D01*
X168414095Y-122429619D01*
X168461714Y-122382000D01*
X168556952Y-122334380D01*
X168747428Y-122334380D01*
X168842666Y-122382000D01*
X168890285Y-122429619D01*
X168937904Y-122524857D01*
X168937904Y-122572476D01*
X168890285Y-122667714D01*
X168842666Y-122715333D01*
X168747428Y-122762952D01*
X168556952Y-122762952D01*
X168461714Y-122810571D01*
X168414095Y-122858190D01*
X168366476Y-122953428D01*
X168366476Y-123143904D01*
X168414095Y-123239142D01*
X168461714Y-123286761D01*
X168556952Y-123334380D01*
X168747428Y-123334380D01*
X168842666Y-123286761D01*
X168890285Y-123239142D01*
X168937904Y-123143904D01*
X168937904Y-122953428D01*
X168890285Y-122858190D01*
X168842666Y-122810571D01*
X168747428Y-122762952D01*
%TO.C,R11*%
X219956142Y-56824380D02*
X219622809Y-56348190D01*
X219384714Y-56824380D02*
X219384714Y-55824380D01*
X219765666Y-55824380D01*
X219860904Y-55872000D01*
X219908523Y-55919619D01*
X219956142Y-56014857D01*
X219956142Y-56157714D01*
X219908523Y-56252952D01*
X219860904Y-56300571D01*
X219765666Y-56348190D01*
X219384714Y-56348190D01*
X220908523Y-56824380D02*
X220337095Y-56824380D01*
X220622809Y-56824380D02*
X220622809Y-55824380D01*
X220527571Y-55967238D01*
X220432333Y-56062476D01*
X220337095Y-56110095D01*
X221860904Y-56824380D02*
X221289476Y-56824380D01*
X221575190Y-56824380D02*
X221575190Y-55824380D01*
X221479952Y-55967238D01*
X221384714Y-56062476D01*
X221289476Y-56110095D01*
%TO.C,R10*%
X225798142Y-58094380D02*
X225464809Y-57618190D01*
X225226714Y-58094380D02*
X225226714Y-57094380D01*
X225607666Y-57094380D01*
X225702904Y-57142000D01*
X225750523Y-57189619D01*
X225798142Y-57284857D01*
X225798142Y-57427714D01*
X225750523Y-57522952D01*
X225702904Y-57570571D01*
X225607666Y-57618190D01*
X225226714Y-57618190D01*
X226750523Y-58094380D02*
X226179095Y-58094380D01*
X226464809Y-58094380D02*
X226464809Y-57094380D01*
X226369571Y-57237238D01*
X226274333Y-57332476D01*
X226179095Y-57380095D01*
X227369571Y-57094380D02*
X227464809Y-57094380D01*
X227560047Y-57142000D01*
X227607666Y-57189619D01*
X227655285Y-57284857D01*
X227702904Y-57475333D01*
X227702904Y-57713428D01*
X227655285Y-57903904D01*
X227607666Y-57999142D01*
X227560047Y-58046761D01*
X227464809Y-58094380D01*
X227369571Y-58094380D01*
X227274333Y-58046761D01*
X227226714Y-57999142D01*
X227179095Y-57903904D01*
X227131476Y-57713428D01*
X227131476Y-57475333D01*
X227179095Y-57284857D01*
X227226714Y-57189619D01*
X227274333Y-57142000D01*
X227369571Y-57094380D01*
%TO.C,R4*%
X207260333Y-88028380D02*
X206927000Y-87552190D01*
X206688904Y-88028380D02*
X206688904Y-87028380D01*
X207069857Y-87028380D01*
X207165095Y-87076000D01*
X207212714Y-87123619D01*
X207260333Y-87218857D01*
X207260333Y-87361714D01*
X207212714Y-87456952D01*
X207165095Y-87504571D01*
X207069857Y-87552190D01*
X206688904Y-87552190D01*
X208117476Y-87361714D02*
X208117476Y-88028380D01*
X207879380Y-86980761D02*
X207641285Y-87695047D01*
X208260333Y-87695047D01*
%TO.C,R3*%
X213320333Y-71429380D02*
X212987000Y-70953190D01*
X212748904Y-71429380D02*
X212748904Y-70429380D01*
X213129857Y-70429380D01*
X213225095Y-70477000D01*
X213272714Y-70524619D01*
X213320333Y-70619857D01*
X213320333Y-70762714D01*
X213272714Y-70857952D01*
X213225095Y-70905571D01*
X213129857Y-70953190D01*
X212748904Y-70953190D01*
X213653666Y-70429380D02*
X214272714Y-70429380D01*
X213939380Y-70810333D01*
X214082238Y-70810333D01*
X214177476Y-70857952D01*
X214225095Y-70905571D01*
X214272714Y-71000809D01*
X214272714Y-71238904D01*
X214225095Y-71334142D01*
X214177476Y-71381761D01*
X214082238Y-71429380D01*
X213796523Y-71429380D01*
X213701285Y-71381761D01*
X213653666Y-71334142D01*
%TO.C,R2*%
X226274333Y-71556380D02*
X225941000Y-71080190D01*
X225702904Y-71556380D02*
X225702904Y-70556380D01*
X226083857Y-70556380D01*
X226179095Y-70604000D01*
X226226714Y-70651619D01*
X226274333Y-70746857D01*
X226274333Y-70889714D01*
X226226714Y-70984952D01*
X226179095Y-71032571D01*
X226083857Y-71080190D01*
X225702904Y-71080190D01*
X226655285Y-70651619D02*
X226702904Y-70604000D01*
X226798142Y-70556380D01*
X227036238Y-70556380D01*
X227131476Y-70604000D01*
X227179095Y-70651619D01*
X227226714Y-70746857D01*
X227226714Y-70842095D01*
X227179095Y-70984952D01*
X226607666Y-71556380D01*
X227226714Y-71556380D01*
%TO.C,R8*%
X130806333Y-112158380D02*
X130473000Y-111682190D01*
X130234904Y-112158380D02*
X130234904Y-111158380D01*
X130615857Y-111158380D01*
X130711095Y-111206000D01*
X130758714Y-111253619D01*
X130806333Y-111348857D01*
X130806333Y-111491714D01*
X130758714Y-111586952D01*
X130711095Y-111634571D01*
X130615857Y-111682190D01*
X130234904Y-111682190D01*
X131377761Y-111586952D02*
X131282523Y-111539333D01*
X131234904Y-111491714D01*
X131187285Y-111396476D01*
X131187285Y-111348857D01*
X131234904Y-111253619D01*
X131282523Y-111206000D01*
X131377761Y-111158380D01*
X131568238Y-111158380D01*
X131663476Y-111206000D01*
X131711095Y-111253619D01*
X131758714Y-111348857D01*
X131758714Y-111396476D01*
X131711095Y-111491714D01*
X131663476Y-111539333D01*
X131568238Y-111586952D01*
X131377761Y-111586952D01*
X131282523Y-111634571D01*
X131234904Y-111682190D01*
X131187285Y-111777428D01*
X131187285Y-111967904D01*
X131234904Y-112063142D01*
X131282523Y-112110761D01*
X131377761Y-112158380D01*
X131568238Y-112158380D01*
X131663476Y-112110761D01*
X131711095Y-112063142D01*
X131758714Y-111967904D01*
X131758714Y-111777428D01*
X131711095Y-111682190D01*
X131663476Y-111634571D01*
X131568238Y-111586952D01*
%TO.C,R14*%
X195100142Y-120286380D02*
X194766809Y-119810190D01*
X194528714Y-120286380D02*
X194528714Y-119286380D01*
X194909666Y-119286380D01*
X195004904Y-119334000D01*
X195052523Y-119381619D01*
X195100142Y-119476857D01*
X195100142Y-119619714D01*
X195052523Y-119714952D01*
X195004904Y-119762571D01*
X194909666Y-119810190D01*
X194528714Y-119810190D01*
X196052523Y-120286380D02*
X195481095Y-120286380D01*
X195766809Y-120286380D02*
X195766809Y-119286380D01*
X195671571Y-119429238D01*
X195576333Y-119524476D01*
X195481095Y-119572095D01*
X196909666Y-119619714D02*
X196909666Y-120286380D01*
X196671571Y-119238761D02*
X196433476Y-119953047D01*
X197052523Y-119953047D01*
%TO.C,R12*%
X191417142Y-120794380D02*
X191083809Y-120318190D01*
X190845714Y-120794380D02*
X190845714Y-119794380D01*
X191226666Y-119794380D01*
X191321904Y-119842000D01*
X191369523Y-119889619D01*
X191417142Y-119984857D01*
X191417142Y-120127714D01*
X191369523Y-120222952D01*
X191321904Y-120270571D01*
X191226666Y-120318190D01*
X190845714Y-120318190D01*
X192369523Y-120794380D02*
X191798095Y-120794380D01*
X192083809Y-120794380D02*
X192083809Y-119794380D01*
X191988571Y-119937238D01*
X191893333Y-120032476D01*
X191798095Y-120080095D01*
X192750476Y-119889619D02*
X192798095Y-119842000D01*
X192893333Y-119794380D01*
X193131428Y-119794380D01*
X193226666Y-119842000D01*
X193274285Y-119889619D01*
X193321904Y-119984857D01*
X193321904Y-120080095D01*
X193274285Y-120222952D01*
X192702857Y-120794380D01*
X193321904Y-120794380D01*
%TO.C,R1*%
X219924333Y-79557380D02*
X219591000Y-79081190D01*
X219352904Y-79557380D02*
X219352904Y-78557380D01*
X219733857Y-78557380D01*
X219829095Y-78605000D01*
X219876714Y-78652619D01*
X219924333Y-78747857D01*
X219924333Y-78890714D01*
X219876714Y-78985952D01*
X219829095Y-79033571D01*
X219733857Y-79081190D01*
X219352904Y-79081190D01*
X220876714Y-79557380D02*
X220305285Y-79557380D01*
X220591000Y-79557380D02*
X220591000Y-78557380D01*
X220495761Y-78700238D01*
X220400523Y-78795476D01*
X220305285Y-78843095D01*
%TO.C,R25*%
X129568142Y-100855380D02*
X129234809Y-100379190D01*
X128996714Y-100855380D02*
X128996714Y-99855380D01*
X129377666Y-99855380D01*
X129472904Y-99903000D01*
X129520523Y-99950619D01*
X129568142Y-100045857D01*
X129568142Y-100188714D01*
X129520523Y-100283952D01*
X129472904Y-100331571D01*
X129377666Y-100379190D01*
X128996714Y-100379190D01*
X129949095Y-99950619D02*
X129996714Y-99903000D01*
X130091952Y-99855380D01*
X130330047Y-99855380D01*
X130425285Y-99903000D01*
X130472904Y-99950619D01*
X130520523Y-100045857D01*
X130520523Y-100141095D01*
X130472904Y-100283952D01*
X129901476Y-100855380D01*
X130520523Y-100855380D01*
X131425285Y-99855380D02*
X130949095Y-99855380D01*
X130901476Y-100331571D01*
X130949095Y-100283952D01*
X131044333Y-100236333D01*
X131282428Y-100236333D01*
X131377666Y-100283952D01*
X131425285Y-100331571D01*
X131472904Y-100426809D01*
X131472904Y-100664904D01*
X131425285Y-100760142D01*
X131377666Y-100807761D01*
X131282428Y-100855380D01*
X131044333Y-100855380D01*
X130949095Y-100807761D01*
X130901476Y-100760142D01*
%TO.C,Q2*%
X206152761Y-129452619D02*
X206057523Y-129405000D01*
X205962285Y-129309761D01*
X205819428Y-129166904D01*
X205724190Y-129119285D01*
X205628952Y-129119285D01*
X205676571Y-129357380D02*
X205581333Y-129309761D01*
X205486095Y-129214523D01*
X205438476Y-129024047D01*
X205438476Y-128690714D01*
X205486095Y-128500238D01*
X205581333Y-128405000D01*
X205676571Y-128357380D01*
X205867047Y-128357380D01*
X205962285Y-128405000D01*
X206057523Y-128500238D01*
X206105142Y-128690714D01*
X206105142Y-129024047D01*
X206057523Y-129214523D01*
X205962285Y-129309761D01*
X205867047Y-129357380D01*
X205676571Y-129357380D01*
X206486095Y-128452619D02*
X206533714Y-128405000D01*
X206628952Y-128357380D01*
X206867047Y-128357380D01*
X206962285Y-128405000D01*
X207009904Y-128452619D01*
X207057523Y-128547857D01*
X207057523Y-128643095D01*
X207009904Y-128785952D01*
X206438476Y-129357380D01*
X207057523Y-129357380D01*
%TO.C,K1*%
X216843904Y-100020380D02*
X216843904Y-99020380D01*
X217415333Y-100020380D02*
X216986761Y-99448952D01*
X217415333Y-99020380D02*
X216843904Y-99591809D01*
X218367714Y-100020380D02*
X217796285Y-100020380D01*
X218082000Y-100020380D02*
X218082000Y-99020380D01*
X217986761Y-99163238D01*
X217891523Y-99258476D01*
X217796285Y-99306095D01*
%TO.C,J9*%
X105914380Y-59080333D02*
X106628666Y-59080333D01*
X106771523Y-59127952D01*
X106866761Y-59223190D01*
X106914380Y-59366047D01*
X106914380Y-59461285D01*
X106914380Y-58556523D02*
X106914380Y-58366047D01*
X106866761Y-58270809D01*
X106819142Y-58223190D01*
X106676285Y-58127952D01*
X106485809Y-58080333D01*
X106104857Y-58080333D01*
X106009619Y-58127952D01*
X105962000Y-58175571D01*
X105914380Y-58270809D01*
X105914380Y-58461285D01*
X105962000Y-58556523D01*
X106009619Y-58604142D01*
X106104857Y-58651761D01*
X106342952Y-58651761D01*
X106438190Y-58604142D01*
X106485809Y-58556523D01*
X106533428Y-58461285D01*
X106533428Y-58270809D01*
X106485809Y-58175571D01*
X106438190Y-58127952D01*
X106342952Y-58080333D01*
%TO.C,J7*%
X108124666Y-121880380D02*
X108124666Y-122594666D01*
X108077047Y-122737523D01*
X107981809Y-122832761D01*
X107838952Y-122880380D01*
X107743714Y-122880380D01*
X108505619Y-121880380D02*
X109172285Y-121880380D01*
X108743714Y-122880380D01*
%TO.C,J5*%
X151939666Y-121626380D02*
X151939666Y-122340666D01*
X151892047Y-122483523D01*
X151796809Y-122578761D01*
X151653952Y-122626380D01*
X151558714Y-122626380D01*
X152892047Y-121626380D02*
X152415857Y-121626380D01*
X152368238Y-122102571D01*
X152415857Y-122054952D01*
X152511095Y-122007333D01*
X152749190Y-122007333D01*
X152844428Y-122054952D01*
X152892047Y-122102571D01*
X152939666Y-122197809D01*
X152939666Y-122435904D01*
X152892047Y-122531142D01*
X152844428Y-122578761D01*
X152749190Y-122626380D01*
X152511095Y-122626380D01*
X152415857Y-122578761D01*
X152368238Y-122531142D01*
%TO.C,J4*%
X229536666Y-96480380D02*
X229536666Y-97194666D01*
X229489047Y-97337523D01*
X229393809Y-97432761D01*
X229250952Y-97480380D01*
X229155714Y-97480380D01*
X230441428Y-96813714D02*
X230441428Y-97480380D01*
X230203333Y-96432761D02*
X229965238Y-97147047D01*
X230584285Y-97147047D01*
%TO.C,J3*%
X226234666Y-54681380D02*
X226234666Y-55395666D01*
X226187047Y-55538523D01*
X226091809Y-55633761D01*
X225948952Y-55681380D01*
X225853714Y-55681380D01*
X226615619Y-54681380D02*
X227234666Y-54681380D01*
X226901333Y-55062333D01*
X227044190Y-55062333D01*
X227139428Y-55109952D01*
X227187047Y-55157571D01*
X227234666Y-55252809D01*
X227234666Y-55490904D01*
X227187047Y-55586142D01*
X227139428Y-55633761D01*
X227044190Y-55681380D01*
X226758476Y-55681380D01*
X226663238Y-55633761D01*
X226615619Y-55586142D01*
%TO.C,J1*%
X104314666Y-121880380D02*
X104314666Y-122594666D01*
X104267047Y-122737523D01*
X104171809Y-122832761D01*
X104028952Y-122880380D01*
X103933714Y-122880380D01*
X105314666Y-122880380D02*
X104743238Y-122880380D01*
X105028952Y-122880380D02*
X105028952Y-121880380D01*
X104933714Y-122023238D01*
X104838476Y-122118476D01*
X104743238Y-122166095D01*
%TO.C,J8*%
X105914380Y-62382333D02*
X106628666Y-62382333D01*
X106771523Y-62429952D01*
X106866761Y-62525190D01*
X106914380Y-62668047D01*
X106914380Y-62763285D01*
X106342952Y-61763285D02*
X106295333Y-61858523D01*
X106247714Y-61906142D01*
X106152476Y-61953761D01*
X106104857Y-61953761D01*
X106009619Y-61906142D01*
X105962000Y-61858523D01*
X105914380Y-61763285D01*
X105914380Y-61572809D01*
X105962000Y-61477571D01*
X106009619Y-61429952D01*
X106104857Y-61382333D01*
X106152476Y-61382333D01*
X106247714Y-61429952D01*
X106295333Y-61477571D01*
X106342952Y-61572809D01*
X106342952Y-61763285D01*
X106390571Y-61858523D01*
X106438190Y-61906142D01*
X106533428Y-61953761D01*
X106723904Y-61953761D01*
X106819142Y-61906142D01*
X106866761Y-61858523D01*
X106914380Y-61763285D01*
X106914380Y-61572809D01*
X106866761Y-61477571D01*
X106819142Y-61429952D01*
X106723904Y-61382333D01*
X106533428Y-61382333D01*
X106438190Y-61429952D01*
X106390571Y-61477571D01*
X106342952Y-61572809D01*
%TO.C,D6*%
X117915904Y-118254380D02*
X117915904Y-117254380D01*
X118154000Y-117254380D01*
X118296857Y-117302000D01*
X118392095Y-117397238D01*
X118439714Y-117492476D01*
X118487333Y-117682952D01*
X118487333Y-117825809D01*
X118439714Y-118016285D01*
X118392095Y-118111523D01*
X118296857Y-118206761D01*
X118154000Y-118254380D01*
X117915904Y-118254380D01*
X119344476Y-117254380D02*
X119154000Y-117254380D01*
X119058761Y-117302000D01*
X119011142Y-117349619D01*
X118915904Y-117492476D01*
X118868285Y-117682952D01*
X118868285Y-118063904D01*
X118915904Y-118159142D01*
X118963523Y-118206761D01*
X119058761Y-118254380D01*
X119249238Y-118254380D01*
X119344476Y-118206761D01*
X119392095Y-118159142D01*
X119439714Y-118063904D01*
X119439714Y-117825809D01*
X119392095Y-117730571D01*
X119344476Y-117682952D01*
X119249238Y-117635333D01*
X119058761Y-117635333D01*
X118963523Y-117682952D01*
X118915904Y-117730571D01*
X118868285Y-117825809D01*
X130457095Y-118254380D02*
X130457095Y-117254380D01*
X131028523Y-118254380D02*
X130599952Y-117682952D01*
X131028523Y-117254380D02*
X130457095Y-117825809D01*
%TO.C,D5*%
X133663904Y-106697380D02*
X133663904Y-105697380D01*
X133902000Y-105697380D01*
X134044857Y-105745000D01*
X134140095Y-105840238D01*
X134187714Y-105935476D01*
X134235333Y-106125952D01*
X134235333Y-106268809D01*
X134187714Y-106459285D01*
X134140095Y-106554523D01*
X134044857Y-106649761D01*
X133902000Y-106697380D01*
X133663904Y-106697380D01*
X135140095Y-105697380D02*
X134663904Y-105697380D01*
X134616285Y-106173571D01*
X134663904Y-106125952D01*
X134759142Y-106078333D01*
X134997238Y-106078333D01*
X135092476Y-106125952D01*
X135140095Y-106173571D01*
X135187714Y-106268809D01*
X135187714Y-106506904D01*
X135140095Y-106602142D01*
X135092476Y-106649761D01*
X134997238Y-106697380D01*
X134759142Y-106697380D01*
X134663904Y-106649761D01*
X134616285Y-106602142D01*
X132235095Y-106156380D02*
X132235095Y-105156380D01*
X132806523Y-106156380D02*
X132377952Y-105584952D01*
X132806523Y-105156380D02*
X132235095Y-105727809D01*
%TO.C,D4*%
X153623904Y-92146380D02*
X153623904Y-91146380D01*
X153862000Y-91146380D01*
X154004857Y-91194000D01*
X154100095Y-91289238D01*
X154147714Y-91384476D01*
X154195333Y-91574952D01*
X154195333Y-91717809D01*
X154147714Y-91908285D01*
X154100095Y-92003523D01*
X154004857Y-92098761D01*
X153862000Y-92146380D01*
X153623904Y-92146380D01*
X155052476Y-91479714D02*
X155052476Y-92146380D01*
X154814380Y-91098761D02*
X154576285Y-91813047D01*
X155195333Y-91813047D01*
X153730095Y-87066380D02*
X153730095Y-86066380D01*
X154301523Y-87066380D02*
X153872952Y-86494952D01*
X154301523Y-86066380D02*
X153730095Y-86637809D01*
%TO.C,C1*%
X210832142Y-115555666D02*
X210879761Y-115603285D01*
X210927380Y-115746142D01*
X210927380Y-115841380D01*
X210879761Y-115984238D01*
X210784523Y-116079476D01*
X210689285Y-116127095D01*
X210498809Y-116174714D01*
X210355952Y-116174714D01*
X210165476Y-116127095D01*
X210070238Y-116079476D01*
X209975000Y-115984238D01*
X209927380Y-115841380D01*
X209927380Y-115746142D01*
X209975000Y-115603285D01*
X210022619Y-115555666D01*
X210927380Y-114603285D02*
X210927380Y-115174714D01*
X210927380Y-114889000D02*
X209927380Y-114889000D01*
X210070238Y-114984238D01*
X210165476Y-115079476D01*
X210213095Y-115174714D01*
%TO.C,C7*%
X160651333Y-111936142D02*
X160603714Y-111983761D01*
X160460857Y-112031380D01*
X160365619Y-112031380D01*
X160222761Y-111983761D01*
X160127523Y-111888523D01*
X160079904Y-111793285D01*
X160032285Y-111602809D01*
X160032285Y-111459952D01*
X160079904Y-111269476D01*
X160127523Y-111174238D01*
X160222761Y-111079000D01*
X160365619Y-111031380D01*
X160460857Y-111031380D01*
X160603714Y-111079000D01*
X160651333Y-111126619D01*
X160984666Y-111031380D02*
X161651333Y-111031380D01*
X161222761Y-112031380D01*
%TO.C,C2*%
X214463333Y-58380142D02*
X214415714Y-58427761D01*
X214272857Y-58475380D01*
X214177619Y-58475380D01*
X214034761Y-58427761D01*
X213939523Y-58332523D01*
X213891904Y-58237285D01*
X213844285Y-58046809D01*
X213844285Y-57903952D01*
X213891904Y-57713476D01*
X213939523Y-57618238D01*
X214034761Y-57523000D01*
X214177619Y-57475380D01*
X214272857Y-57475380D01*
X214415714Y-57523000D01*
X214463333Y-57570619D01*
X214844285Y-57570619D02*
X214891904Y-57523000D01*
X214987142Y-57475380D01*
X215225238Y-57475380D01*
X215320476Y-57523000D01*
X215368095Y-57570619D01*
X215415714Y-57665857D01*
X215415714Y-57761095D01*
X215368095Y-57903952D01*
X214796666Y-58475380D01*
X215415714Y-58475380D01*
%TO.C,C8*%
X144141333Y-86536142D02*
X144093714Y-86583761D01*
X143950857Y-86631380D01*
X143855619Y-86631380D01*
X143712761Y-86583761D01*
X143617523Y-86488523D01*
X143569904Y-86393285D01*
X143522285Y-86202809D01*
X143522285Y-86059952D01*
X143569904Y-85869476D01*
X143617523Y-85774238D01*
X143712761Y-85679000D01*
X143855619Y-85631380D01*
X143950857Y-85631380D01*
X144093714Y-85679000D01*
X144141333Y-85726619D01*
X144712761Y-86059952D02*
X144617523Y-86012333D01*
X144569904Y-85964714D01*
X144522285Y-85869476D01*
X144522285Y-85821857D01*
X144569904Y-85726619D01*
X144617523Y-85679000D01*
X144712761Y-85631380D01*
X144903238Y-85631380D01*
X144998476Y-85679000D01*
X145046095Y-85726619D01*
X145093714Y-85821857D01*
X145093714Y-85869476D01*
X145046095Y-85964714D01*
X144998476Y-86012333D01*
X144903238Y-86059952D01*
X144712761Y-86059952D01*
X144617523Y-86107571D01*
X144569904Y-86155190D01*
X144522285Y-86250428D01*
X144522285Y-86440904D01*
X144569904Y-86536142D01*
X144617523Y-86583761D01*
X144712761Y-86631380D01*
X144903238Y-86631380D01*
X144998476Y-86583761D01*
X145046095Y-86536142D01*
X145093714Y-86440904D01*
X145093714Y-86250428D01*
X145046095Y-86155190D01*
X144998476Y-86107571D01*
X144903238Y-86059952D01*
%TO.C,C6*%
X147316333Y-86536142D02*
X147268714Y-86583761D01*
X147125857Y-86631380D01*
X147030619Y-86631380D01*
X146887761Y-86583761D01*
X146792523Y-86488523D01*
X146744904Y-86393285D01*
X146697285Y-86202809D01*
X146697285Y-86059952D01*
X146744904Y-85869476D01*
X146792523Y-85774238D01*
X146887761Y-85679000D01*
X147030619Y-85631380D01*
X147125857Y-85631380D01*
X147268714Y-85679000D01*
X147316333Y-85726619D01*
X148173476Y-85631380D02*
X147983000Y-85631380D01*
X147887761Y-85679000D01*
X147840142Y-85726619D01*
X147744904Y-85869476D01*
X147697285Y-86059952D01*
X147697285Y-86440904D01*
X147744904Y-86536142D01*
X147792523Y-86583761D01*
X147887761Y-86631380D01*
X148078238Y-86631380D01*
X148173476Y-86583761D01*
X148221095Y-86536142D01*
X148268714Y-86440904D01*
X148268714Y-86202809D01*
X148221095Y-86107571D01*
X148173476Y-86059952D01*
X148078238Y-86012333D01*
X147887761Y-86012333D01*
X147792523Y-86059952D01*
X147744904Y-86107571D01*
X147697285Y-86202809D01*
%TO.C,BpEch1*%
X206851523Y-85002571D02*
X206994380Y-85050190D01*
X207042000Y-85097809D01*
X207089619Y-85193047D01*
X207089619Y-85335904D01*
X207042000Y-85431142D01*
X206994380Y-85478761D01*
X206899142Y-85526380D01*
X206518190Y-85526380D01*
X206518190Y-84526380D01*
X206851523Y-84526380D01*
X206946761Y-84574000D01*
X206994380Y-84621619D01*
X207042000Y-84716857D01*
X207042000Y-84812095D01*
X206994380Y-84907333D01*
X206946761Y-84954952D01*
X206851523Y-85002571D01*
X206518190Y-85002571D01*
X207518190Y-84859714D02*
X207518190Y-85859714D01*
X207518190Y-84907333D02*
X207613428Y-84859714D01*
X207803904Y-84859714D01*
X207899142Y-84907333D01*
X207946761Y-84954952D01*
X207994380Y-85050190D01*
X207994380Y-85335904D01*
X207946761Y-85431142D01*
X207899142Y-85478761D01*
X207803904Y-85526380D01*
X207613428Y-85526380D01*
X207518190Y-85478761D01*
X208422952Y-85002571D02*
X208756285Y-85002571D01*
X208899142Y-85526380D02*
X208422952Y-85526380D01*
X208422952Y-84526380D01*
X208899142Y-84526380D01*
X209756285Y-85478761D02*
X209661047Y-85526380D01*
X209470571Y-85526380D01*
X209375333Y-85478761D01*
X209327714Y-85431142D01*
X209280095Y-85335904D01*
X209280095Y-85050190D01*
X209327714Y-84954952D01*
X209375333Y-84907333D01*
X209470571Y-84859714D01*
X209661047Y-84859714D01*
X209756285Y-84907333D01*
X210184857Y-85526380D02*
X210184857Y-84526380D01*
X210613428Y-85526380D02*
X210613428Y-85002571D01*
X210565809Y-84907333D01*
X210470571Y-84859714D01*
X210327714Y-84859714D01*
X210232476Y-84907333D01*
X210184857Y-84954952D01*
X211613428Y-85526380D02*
X211042000Y-85526380D01*
X211327714Y-85526380D02*
X211327714Y-84526380D01*
X211232476Y-84669238D01*
X211137238Y-84764476D01*
X211042000Y-84812095D01*
%TO.C,Bp-Ent1*%
X226350333Y-85091571D02*
X226493190Y-85139190D01*
X226540809Y-85186809D01*
X226588428Y-85282047D01*
X226588428Y-85424904D01*
X226540809Y-85520142D01*
X226493190Y-85567761D01*
X226397952Y-85615380D01*
X226017000Y-85615380D01*
X226017000Y-84615380D01*
X226350333Y-84615380D01*
X226445571Y-84663000D01*
X226493190Y-84710619D01*
X226540809Y-84805857D01*
X226540809Y-84901095D01*
X226493190Y-84996333D01*
X226445571Y-85043952D01*
X226350333Y-85091571D01*
X226017000Y-85091571D01*
X227017000Y-84948714D02*
X227017000Y-85948714D01*
X227017000Y-84996333D02*
X227112238Y-84948714D01*
X227302714Y-84948714D01*
X227397952Y-84996333D01*
X227445571Y-85043952D01*
X227493190Y-85139190D01*
X227493190Y-85424904D01*
X227445571Y-85520142D01*
X227397952Y-85567761D01*
X227302714Y-85615380D01*
X227112238Y-85615380D01*
X227017000Y-85567761D01*
X227921761Y-85234428D02*
X228683666Y-85234428D01*
X229159857Y-85091571D02*
X229493190Y-85091571D01*
X229636047Y-85615380D02*
X229159857Y-85615380D01*
X229159857Y-84615380D01*
X229636047Y-84615380D01*
X230064619Y-84948714D02*
X230064619Y-85615380D01*
X230064619Y-85043952D02*
X230112238Y-84996333D01*
X230207476Y-84948714D01*
X230350333Y-84948714D01*
X230445571Y-84996333D01*
X230493190Y-85091571D01*
X230493190Y-85615380D01*
X230826523Y-84948714D02*
X231207476Y-84948714D01*
X230969380Y-84615380D02*
X230969380Y-85472523D01*
X231017000Y-85567761D01*
X231112238Y-85615380D01*
X231207476Y-85615380D01*
X232064619Y-85615380D02*
X231493190Y-85615380D01*
X231778904Y-85615380D02*
X231778904Y-84615380D01*
X231683666Y-84758238D01*
X231588428Y-84853476D01*
X231493190Y-84901095D01*
%TO.C,Bp-1*%
X213951809Y-97664571D02*
X214094666Y-97712190D01*
X214142285Y-97759809D01*
X214189904Y-97855047D01*
X214189904Y-97997904D01*
X214142285Y-98093142D01*
X214094666Y-98140761D01*
X213999428Y-98188380D01*
X213618476Y-98188380D01*
X213618476Y-97188380D01*
X213951809Y-97188380D01*
X214047047Y-97236000D01*
X214094666Y-97283619D01*
X214142285Y-97378857D01*
X214142285Y-97474095D01*
X214094666Y-97569333D01*
X214047047Y-97616952D01*
X213951809Y-97664571D01*
X213618476Y-97664571D01*
X214618476Y-97521714D02*
X214618476Y-98521714D01*
X214618476Y-97569333D02*
X214713714Y-97521714D01*
X214904190Y-97521714D01*
X214999428Y-97569333D01*
X215047047Y-97616952D01*
X215094666Y-97712190D01*
X215094666Y-97997904D01*
X215047047Y-98093142D01*
X214999428Y-98140761D01*
X214904190Y-98188380D01*
X214713714Y-98188380D01*
X214618476Y-98140761D01*
X215523238Y-97807428D02*
X216285142Y-97807428D01*
X217285142Y-98188380D02*
X216713714Y-98188380D01*
X216999428Y-98188380D02*
X216999428Y-97188380D01*
X216904190Y-97331238D01*
X216808952Y-97426476D01*
X216713714Y-97474095D01*
%TO.C,Bp+1*%
X228302809Y-92187571D02*
X228445666Y-92235190D01*
X228493285Y-92282809D01*
X228540904Y-92378047D01*
X228540904Y-92520904D01*
X228493285Y-92616142D01*
X228445666Y-92663761D01*
X228350428Y-92711380D01*
X227969476Y-92711380D01*
X227969476Y-91711380D01*
X228302809Y-91711380D01*
X228398047Y-91759000D01*
X228445666Y-91806619D01*
X228493285Y-91901857D01*
X228493285Y-91997095D01*
X228445666Y-92092333D01*
X228398047Y-92139952D01*
X228302809Y-92187571D01*
X227969476Y-92187571D01*
X228969476Y-92044714D02*
X228969476Y-93044714D01*
X228969476Y-92092333D02*
X229064714Y-92044714D01*
X229255190Y-92044714D01*
X229350428Y-92092333D01*
X229398047Y-92139952D01*
X229445666Y-92235190D01*
X229445666Y-92520904D01*
X229398047Y-92616142D01*
X229350428Y-92663761D01*
X229255190Y-92711380D01*
X229064714Y-92711380D01*
X228969476Y-92663761D01*
X229874238Y-92330428D02*
X230636142Y-92330428D01*
X230255190Y-92711380D02*
X230255190Y-91949476D01*
X231636142Y-92711380D02*
X231064714Y-92711380D01*
X231350428Y-92711380D02*
X231350428Y-91711380D01*
X231255190Y-91854238D01*
X231159952Y-91949476D01*
X231064714Y-91997095D01*
%TO.C,A1*%
X198167714Y-108441666D02*
X198643904Y-108441666D01*
X198072476Y-108727380D02*
X198405809Y-107727380D01*
X198739142Y-108727380D01*
X199596285Y-108727380D02*
X199024857Y-108727380D01*
X199310571Y-108727380D02*
X199310571Y-107727380D01*
X199215333Y-107870238D01*
X199120095Y-107965476D01*
X199024857Y-108013095D01*
%TD*%
M02*
